<?xml version="1.0" encoding="UTF-8"?>
<svg version="1.1" xmlns="http://www.w3.org/2000/svg" width="1774" height="887">
<path d="M0 0 C180.18 0 360.36 0 546 0 C546 208.23 546 416.46 546 631 C365.82 631 185.64 631 0 631 C0 422.77 0 214.54 0 0 Z " fill="#FEFEFE" transform="translate(614,128)"/>
<path d="M0 0 C1.28513516 -0.00623996 2.57027033 -0.01247993 3.89434898 -0.01890898 C7.43654922 -0.03551129 10.97831495 -0.02739801 14.52051616 -0.0149641 C18.3501424 -0.0058785 22.17969621 -0.01990054 26.00930786 -0.03088379 C33.50109603 -0.04863529 40.99272358 -0.04484441 48.48451795 -0.03323323 C54.57404132 -0.02418722 60.66351978 -0.02297994 66.75304794 -0.02732849 C67.62084669 -0.02794142 68.48864544 -0.02855436 69.38274112 -0.02918586 C71.14581794 -0.0304648 72.90889475 -0.03176165 74.67197154 -0.03307623 C91.18900494 -0.0444718 107.7059494 -0.03138369 124.22296821 -0.00987476 C138.38907692 0.00800162 152.55505453 0.00488569 166.72116089 -0.0135498 C183.18355621 -0.0349637 199.64587371 -0.04337991 216.10828102 -0.03110075 C217.86413756 -0.02982659 219.61999411 -0.0285691 221.37585068 -0.02732849 C222.23970573 -0.02671139 223.10356078 -0.02609429 223.99359325 -0.02545848 C230.07538985 -0.02200762 236.157137 -0.02782812 242.23892593 -0.0372467 C249.65103653 -0.04847356 257.06297771 -0.04541199 264.47506894 -0.02412373 C268.25537176 -0.01362345 272.03539228 -0.0094739 275.8156929 -0.02272034 C279.91578501 -0.03686997 284.01516654 -0.01995629 288.11523438 0 C289.30686821 -0.00892289 290.49850205 -0.01784577 291.726246 -0.02703905 C299.55936709 0.04700144 305.25902015 0.99935907 311.12985229 6.60949707 C313.76480321 10.85056774 315.74021021 15.31585047 317.74313354 19.88293457 C318.6292531 21.86887912 319.51597376 23.85455557 320.40328979 25.83996582 C320.8339978 26.80885742 321.26470581 27.77774902 321.70846558 28.77600098 C323.32655638 32.39294786 324.99543306 35.98438956 326.68063354 39.57043457 C327.22203979 40.73187988 327.76344604 41.8933252 328.32125854 43.08996582 C329.44225382 45.47072034 330.57601427 47.8413673 331.72750854 50.20715332 C332.28953979 51.37891113 332.85157104 52.55066895 333.43063354 53.75793457 C333.93594604 54.79434082 334.44125854 55.83074707 334.96188354 56.89855957 C335.93063354 59.50793457 335.93063354 59.50793457 334.93063354 62.50793457 C328.01155518 63.34639151 321.09217113 64.18229063 314.1725769 65.01647949 C311.82257219 65.30008127 309.47263598 65.58425124 307.12277222 65.86901855 C303.72948113 66.28013021 300.33594241 66.68914328 296.94235229 67.09777832 C295.90543747 67.22385971 294.86852264 67.3499411 293.80018616 67.47984314 C287.18566963 68.27374496 280.56852768 68.94191576 273.93063354 69.50793457 C273.30381632 71.41186495 273.30381632 71.41186495 272.93063354 73.50793457 C274.26024227 75.49765601 274.26024227 75.49765601 276.29782104 77.29309082 C277.01840698 77.98854004 277.73899292 78.68398926 278.48141479 79.4005127 C279.24840698 80.11658691 280.01539917 80.83266113 280.80563354 81.57043457 C282.30729445 82.99433545 283.80489141 84.42253804 285.29782104 85.85559082 C285.96926147 86.48473389 286.6407019 87.11387695 287.33248901 87.76208496 C288.93063354 89.50793457 288.93063354 89.50793457 289.93063354 92.50793457 C288.52690553 93.71070153 287.10711257 94.89473976 285.68063354 96.07043457 C284.89172729 96.73172363 284.10282104 97.3930127 283.29000854 98.07434082 C280.93063354 99.50793457 280.93063354 99.50793457 278.91110229 99.41809082 C269.04022476 94.88177037 262.05776154 85.25104513 255.30587769 77.09851074 C253.91491112 75.48975037 252.45208679 73.9929693 250.93063354 72.50793457 C250.88938354 73.60105957 250.84813354 74.69418457 250.80563354 75.82043457 C250.11629561 81.72753044 246.94425388 86.49444997 243.93063354 91.50793457 C243.27063354 91.50793457 242.61063354 91.50793457 241.93063354 91.50793457 C241.58838745 92.38771973 241.58838745 92.38771973 241.23922729 93.28527832 C237.75191189 99.20850956 229.72808608 102.54288467 223.36813354 104.44543457 C213.05821182 106.8212629 203.06710225 106.06673482 193.80563354 100.82043457 C183.99120912 94.48511725 178.64136821 86.64013857 174.93063354 75.50793457 C174.78368042 76.06480957 174.63672729 76.62168457 174.48532104 77.19543457 C171.42852637 87.59556359 164.54555305 95.81892239 155.22750854 101.37121582 C145.08950118 106.38849497 134.45299635 106.86604349 123.73141479 103.60559082 C113.76256683 99.69869225 106.19223597 93.45825402 101.61813354 83.71105957 C100.64883458 81.32819961 99.75005946 78.9458539 98.93063354 76.50793457 C98.51813354 77.42574707 98.10563354 78.34355957 97.68063354 79.28918457 C92.28522164 90.91506919 86.2835864 98.74790437 73.93063354 103.50793457 C63.0522177 107.05969086 52.59391797 106.19596201 42.32516479 101.25402832 C34.0249112 96.64556679 27.87608847 90.15758574 23.93063354 81.50793457 C23.36381451 78.51051864 23.06875993 75.55362136 22.93063354 72.50793457 C22.27063354 72.50793457 21.61063354 72.50793457 20.93063354 72.50793457 C20.68442261 73.06094238 20.43821167 73.6139502 20.18453979 74.18371582 C13.47465358 86.62104385 1.63078954 97.54808483 -11.06936646 103.50793457 C-12.73017573 103.86932279 -14.39650546 104.20722709 -16.06936646 104.50793457 C-16.04493973 105.79086899 -16.020513 107.07380341 -15.99534607 108.39561462 C-15.77206717 120.50380938 -15.60732687 132.61158501 -15.49943256 144.72137356 C-15.4420956 150.94691903 -15.36436978 157.17079892 -15.23953247 163.39538574 C-15.11974255 169.40612631 -15.05418545 175.41526833 -15.02571678 181.42711067 C-15.00543832 183.71699247 -14.96583551 186.00678961 -14.90633583 188.29598808 C-14.43440274 207.21069891 -14.43440274 207.21069891 -18.43309021 211.8139801 C-21.20912243 214.09137581 -23.94192359 215.76434515 -27.06936646 217.50793457 C-28.61593421 218.91951938 -30.12576111 220.37384588 -31.57327271 221.88684082 C-32.25067505 222.57971191 -32.92807739 223.27258301 -33.62600708 223.9864502 C-34.28794067 224.67416504 -34.94987427 225.36187988 -35.63186646 226.07043457 C-37.00354869 227.49287285 -38.37961847 228.91109782 -39.76077271 230.32434082 C-40.6455127 231.2438855 -40.6455127 231.2438855 -41.54812622 232.18200684 C-43.06936646 233.50793457 -43.06936646 233.50793457 -45.06936646 233.50793457 C-45.06530226 232.90017118 -45.06123806 232.2924078 -45.0570507 231.66622734 C-44.96153502 216.86795685 -44.92131395 202.0703089 -44.94239616 187.27178764 C-44.95126264 180.11510764 -44.94151584 172.95936243 -44.88772583 165.80285645 C-44.8408809 159.56404482 -44.82918861 153.32631879 -44.85944855 147.0873872 C-44.87424852 143.78422421 -44.86638072 140.48365424 -44.82686996 137.18062973 C-44.78570323 133.4896361 -44.80668263 129.80385489 -44.84231567 126.11291504 C-44.81571365 125.02174881 -44.78911163 123.93058258 -44.76170349 122.80635071 C-44.82926724 119.72849281 -44.9757898 117.38901509 -46.06936646 114.50793457 C-49.11982445 111.79849172 -52.39950225 110.22469731 -56.06936646 108.50793457 C-65.03839004 100.76133533 -70.2404009 90.12040748 -71.25296021 78.37902832 C-71.52533185 69.93550747 -68.10615382 64.73449009 -63.25686646 58.25793457 C-62.07822739 56.65655873 -60.89984951 55.05499062 -59.72171021 53.45324707 C-59.11697876 52.63630371 -58.51224731 51.81936035 -57.88919067 50.97766113 C-55.55598633 47.81121423 -53.2598408 44.61900144 -50.96536255 41.42443848 C-45.42633422 33.71317774 -39.79579293 26.0812207 -34.06936646 18.50793457 C-32.98571356 17.04983868 -31.9023464 15.59153035 -30.81936646 14.13293457 C-30.34499146 13.51160645 -29.87061646 12.89027832 -29.38186646 12.25012207 C-28.15176035 10.61730266 -26.98301603 8.93876173 -25.81936646 7.25793457 C-18.69457334 0.13314146 -9.56601997 -0.071899 0 0 Z " fill="#104373" transform="translate(744.0693664550781,375.4920654296875)"/>
<path d="M0 0 C1.41625977 1.44873047 1.41625977 1.44873047 2.69140625 3.1171875 C3.16126953 3.72433594 3.63113281 4.33148437 4.11523438 4.95703125 C4.83163086 5.90642578 4.83163086 5.90642578 5.5625 6.875 C6.04396484 7.50019531 6.52542969 8.12539063 7.02148438 8.76953125 C8.35643192 10.50661568 9.68145354 12.25044319 11 14 C11.51368448 14.59889888 12.02736897 15.19779776 12.55661964 15.81484509 C14.23536548 18.35632329 14.37674084 19.65453226 14.38095093 22.66999817 C14.3894104 23.60461884 14.39786987 24.5392395 14.40658569 25.50218201 C14.39747665 27.03021202 14.39747665 27.03021202 14.38818359 28.58911133 C14.39606903 30.20707611 14.39606903 30.20707611 14.40411377 31.85772705 C14.41734121 35.43264154 14.40855886 39.007112 14.3984375 42.58203125 C14.40045906 45.07386866 14.40337118 47.5657055 14.40713501 50.05754089 C14.41156342 55.29060376 14.40540376 60.52355163 14.39111328 65.7565918 C14.37309856 72.4295884 14.38379736 79.1021595 14.40183067 85.77516651 C14.41273791 90.92881449 14.40918882 96.08237797 14.4014473 101.23602867 C14.39945933 103.6937432 14.40185467 106.15146564 14.40888596 108.60917091 C14.48141795 141.12276082 14.48141795 141.12276082 7.25 154.5 C6.722854 155.50522705 6.722854 155.50522705 6.18505859 156.53076172 C0.24258286 167.45966819 -9.43040277 173.77264717 -21 178 C-26.7905728 179.31787667 -32.59355174 179.14514823 -38.4984436 179.14044189 C-39.66299934 179.14341302 -40.82755507 179.14638414 -42.02740037 179.1494453 C-45.25153559 179.15660865 -48.47563827 179.15930329 -51.69978023 179.16004276 C-55.18051544 179.16189824 -58.66123921 179.16944808 -62.14196777 179.17617798 C-69.749612 179.18974214 -77.35725095 179.19578311 -84.96490526 179.20018864 C-89.71862302 179.20295447 -94.47233876 179.20719246 -99.22605515 179.21169281 C-112.3974857 179.22388329 -125.56891465 179.23418283 -138.74035072 179.2375679 C-140.00411174 179.23789725 -140.00411174 179.23789725 -141.29340329 179.23823325 C-142.1378843 179.23845153 -142.98236532 179.23866981 -143.85243666 179.2388947 C-145.56357106 179.23933816 -147.27470545 179.23978472 -148.98583984 179.24023438 C-150.25900248 179.24056652 -150.25900248 179.24056652 -151.55788557 179.24090537 C-165.30372363 179.24485139 -179.04950862 179.26230038 -192.79532619 179.2855939 C-206.9207312 179.30933667 -221.04610961 179.32177109 -235.1715349 179.32293582 C-243.09725167 179.32385097 -251.02289929 179.3295628 -258.94859695 179.34775543 C-265.69896436 179.36319601 -272.44924123 179.36825365 -279.19962294 179.36001733 C-282.64012222 179.35612469 -286.0804394 179.35697201 -289.52091599 179.37107468 C-293.26065075 179.38381357 -296.99992258 179.37790619 -300.73965454 179.36749268 C-301.81341894 179.37554908 -302.88718333 179.38360548 -303.99348605 179.39190602 C-321.83321469 179.27624683 -336.66571754 172.46082892 -349.19921875 160.0234375 C-352.69041385 156.37529557 -355.5558188 152.41961532 -358 148 C-356.43287354 143.93496895 -353.5149698 141.5374344 -350.3125 138.75 C-345.98165091 134.90165167 -342.03733665 130.99311694 -338.40234375 126.4609375 C-337 125 -337 125 -334 124 C-333.79246094 124.556875 -333.58492187 125.11375 -333.37109375 125.6875 C-329.43761487 135.43067781 -323.68033444 141.7740672 -314 146 C-309.49382681 147.74075176 -305.71553073 148.2666188 -300.89306641 148.31884766 C-300.20944031 148.32889328 -299.52581421 148.3389389 -298.82147217 148.34928894 C-296.58151015 148.37996409 -294.34166678 148.39711185 -292.1015625 148.4140625 C-290.54071035 148.43278681 -288.97986819 148.45236116 -287.41903687 148.4727478 C-283.32564193 148.52394174 -279.23221423 148.56363532 -275.13867188 148.60089111 C-270.95564756 148.64101093 -266.77275807 148.69206677 -262.58984375 148.7421875 C-254.39332148 148.83879582 -246.19673215 148.92324853 -238 149 C-238.00444122 148.30286896 -238.00888245 147.60573792 -238.01345825 146.88748169 C-238.05349586 140.32472274 -238.08396442 133.76199775 -238.10362434 127.19914436 C-238.11407142 123.82493006 -238.12824725 120.45081648 -238.15087891 117.07666016 C-238.17504885 113.19951682 -238.18646511 109.32251723 -238.1953125 105.4453125 C-238.20563507 104.23070343 -238.21595764 103.01609436 -238.22659302 101.76467896 C-238.22674408 100.64366791 -238.22689514 99.52265686 -238.22705078 98.36767578 C-238.231492 97.37728302 -238.23593323 96.38689026 -238.24050903 95.3664856 C-238 93 -238 93 -236 91 C-233.50976562 90.74121094 -233.50976562 90.74121094 -230.40625 90.734375 C-229.29378906 90.73179687 -228.18132812 90.72921875 -227.03515625 90.7265625 C-225.86855469 90.73429688 -224.70195313 90.74203125 -223.5 90.75 C-222.33339844 90.74226562 -221.16679688 90.73453125 -219.96484375 90.7265625 C-218.85238281 90.72914063 -217.73992187 90.73171875 -216.59375 90.734375 C-215.56958984 90.73663086 -214.54542969 90.73888672 -213.49023438 90.74121094 C-211 91 -211 91 -209 93 C-208.75949097 95.3664856 -208.75949097 95.3664856 -208.77294922 98.36767578 C-208.77317581 100.04919235 -208.77317581 100.04919235 -208.77340698 101.76467896 C-208.78372955 102.97928802 -208.79405212 104.19389709 -208.8046875 105.4453125 C-208.8075174 106.68546112 -208.81034729 107.92560974 -208.81326294 109.20333862 C-208.82257826 112.50124633 -208.8405511 115.79895972 -208.8626709 119.09680176 C-208.88312526 122.4616457 -208.89226377 125.82651807 -208.90234375 129.19140625 C-208.92443485 135.79435706 -208.95898061 142.39714074 -209 149 C-203.39 149 -197.78 149 -192 149 C-192.02356567 146.52439575 -192.02356567 146.52439575 -192.04760742 143.9987793 C-192.10182043 137.88798891 -192.13631887 131.77721986 -192.16479492 125.66625977 C-192.1799012 123.01908801 -192.2003873 120.37194136 -192.22631836 117.72485352 C-192.26261991 113.92457899 -192.27970803 110.12463474 -192.29296875 106.32421875 C-192.30845261 105.13664474 -192.32393646 103.94907074 -192.33988953 102.72550964 C-192.34022942 101.0741375 -192.34022942 101.0741375 -192.34057617 99.3894043 C-192.35056892 97.93379341 -192.35056892 97.93379341 -192.36076355 96.44877625 C-192 94 -192 94 -190.64718628 92.18643188 C-188.16551304 90.39893748 -186.11509693 90.62821762 -183.08984375 90.63671875 C-181.93548828 90.63736328 -180.78113281 90.63800781 -179.59179688 90.63867188 C-178.38587891 90.65478516 -177.17996094 90.67089844 -175.9375 90.6875 C-174.12282227 90.68266602 -174.12282227 90.68266602 -172.27148438 90.67773438 C-163.26689925 90.73310075 -163.26689925 90.73310075 -161 93 C-160.75949097 95.3664856 -160.75949097 95.3664856 -160.77294922 98.36767578 C-160.77317581 100.04919235 -160.77317581 100.04919235 -160.77340698 101.76467896 C-160.78372955 102.97928802 -160.79405212 104.19389709 -160.8046875 105.4453125 C-160.8075174 106.68546112 -160.81034729 107.92560974 -160.81326294 109.20333862 C-160.82257826 112.50124633 -160.8405511 115.79895972 -160.8626709 119.09680176 C-160.88312526 122.4616457 -160.89226377 125.82651807 -160.90234375 129.19140625 C-160.92443481 135.79434723 -160.95793517 142.39715771 -161 149 C-158.36 149 -155.72 149 -153 149 C-153.00999275 147.97642647 -153.00999275 147.97642647 -153.02018738 146.93217468 C-153.08644829 139.8435842 -153.1317622 132.75508139 -153.16479492 125.66625977 C-153.1799012 123.01908801 -153.2003873 120.37194136 -153.22631836 117.72485352 C-153.26261991 113.92457899 -153.27970803 110.12463474 -153.29296875 106.32421875 C-153.30845261 105.13664474 -153.32393646 103.94907074 -153.33988953 102.72550964 C-153.34022942 101.0741375 -153.34022942 101.0741375 -153.34057617 99.3894043 C-153.35056892 97.93379341 -153.35056892 97.93379341 -153.36076355 96.44877625 C-153 94 -153 94 -151.72505188 92.18586731 C-148.66720511 90.0837853 -145.01413153 90.61329603 -141.4375 90.6875 C-140.65697266 90.68427734 -139.87644531 90.68105469 -139.07226562 90.67773438 C-133.26716981 90.73283019 -133.26716981 90.73283019 -131 93 C-130.75949097 95.3664856 -130.75949097 95.3664856 -130.77294922 98.36767578 C-130.77317581 100.04919235 -130.77317581 100.04919235 -130.77340698 101.76467896 C-130.78372955 102.97928802 -130.79405212 104.19389709 -130.8046875 105.4453125 C-130.8075174 106.68546112 -130.81034729 107.92560974 -130.81326294 109.20333862 C-130.82257826 112.50124633 -130.8405511 115.79895972 -130.8626709 119.09680176 C-130.88312526 122.4616457 -130.89226377 125.82651807 -130.90234375 129.19140625 C-130.92443481 135.79434723 -130.95793517 142.39715771 -131 149 C-128.69 149 -126.38 149 -124 149 C-124.00444122 148.30286896 -124.00888245 147.60573792 -124.01345825 146.88748169 C-124.05349586 140.32472274 -124.08396442 133.76199775 -124.10362434 127.19914436 C-124.11407142 123.82493006 -124.12824725 120.45081648 -124.15087891 117.07666016 C-124.17504885 113.19951682 -124.18646511 109.32251723 -124.1953125 105.4453125 C-124.20563507 104.23070343 -124.21595764 103.01609436 -124.22659302 101.76467896 C-124.22674408 100.64366791 -124.22689514 99.52265686 -124.22705078 98.36767578 C-124.231492 97.37728302 -124.23593323 96.38689026 -124.24050903 95.3664856 C-124 93 -124 93 -122 91 C-120.125 90.734375 -120.125 90.734375 -118 90.75 C-117.29875 90.74484375 -116.5975 90.7396875 -115.875 90.734375 C-114 91 -114 91 -112 93 C-111.75949097 95.3664856 -111.75949097 95.3664856 -111.77294922 98.36767578 C-111.77317581 100.04919235 -111.77317581 100.04919235 -111.77340698 101.76467896 C-111.78372955 102.97928802 -111.79405212 104.19389709 -111.8046875 105.4453125 C-111.8075174 106.68546112 -111.81034729 107.92560974 -111.81326294 109.20333862 C-111.82257826 112.50124633 -111.8405511 115.79895972 -111.8626709 119.09680176 C-111.88312526 122.4616457 -111.89226377 125.82651807 -111.90234375 129.19140625 C-111.92443481 135.79434723 -111.95793517 142.39715771 -112 149 C-109.69 149 -107.38 149 -105 149 C-105.00999275 147.95430344 -105.00999275 147.95430344 -105.02018738 146.88748169 C-105.08024356 140.32474793 -105.12594621 133.7620906 -105.15543652 127.19914436 C-105.17110744 123.82486394 -105.19237093 120.45081013 -105.22631836 117.07666016 C-105.2625736 113.19948252 -105.27969728 109.32262828 -105.29296875 105.4453125 C-105.30845261 104.23070343 -105.32393646 103.01609436 -105.33988953 101.76467896 C-105.34022942 100.08316238 -105.34022942 100.08316238 -105.34057617 98.36767578 C-105.35056892 96.88208664 -105.35056892 96.88208664 -105.36076355 95.3664856 C-105.24171158 94.58554535 -105.12265961 93.8046051 -105 93 C-101.33236683 90.55491122 -99.36568225 90.70114276 -95 90.6875 C-93.7625 90.67074219 -92.525 90.65398437 -91.25 90.63671875 C-88 91 -88 91 -86.31816101 92.18586731 C-84.5108414 94.67320957 -84.63842086 96.32997245 -84.65942383 99.3894043 C-84.65965042 100.49031906 -84.65987701 101.59123383 -84.66011047 102.72550964 C-84.67559433 103.91308365 -84.69107819 105.10065765 -84.70703125 106.32421875 C-84.71127609 107.54075638 -84.71552094 108.75729401 -84.71989441 110.01069641 C-84.73671149 113.90318771 -84.77437041 117.79516471 -84.8125 121.6875 C-84.82754287 124.32356024 -84.84123196 126.95962858 -84.85351562 129.59570312 C-84.88662501 136.0639781 -84.93685495 142.53195231 -85 149 C-82.69 149 -80.38 149 -78 149 C-78 130.52 -78 112.04 -78 93 C-77.34 93 -76.68 93 -76 93 C-76 92.34 -76 91.68 -76 91 C-73.20807795 90.94619422 -70.4171859 90.90642331 -67.625 90.875 C-66.8309375 90.85824219 -66.036875 90.84148437 -65.21875 90.82421875 C-63.14507985 90.80664527 -61.07116759 90.89664832 -59 91 C-57 93 -57 93 -56.75949097 95.3664856 C-56.76393219 96.35687836 -56.76837341 97.34727112 -56.77294922 98.36767578 C-56.77310028 99.48868683 -56.77325134 100.60969788 -56.77340698 101.76467896 C-56.78372955 102.97928802 -56.79405212 104.19389709 -56.8046875 105.4453125 C-56.80893234 107.30553543 -56.80893234 107.30553543 -56.81326294 109.20333862 C-56.82257826 112.50124633 -56.8405511 115.79895972 -56.8626709 119.09680176 C-56.88312526 122.4616457 -56.89226377 125.82651807 -56.90234375 129.19140625 C-56.92443481 135.79434723 -56.95793517 142.39715771 -57 149 C-53.47826604 148.91845544 -49.95818017 148.80567356 -46.4375 148.6875 C-45.44685547 148.66494141 -44.45621094 148.64238281 -43.43554688 148.61914062 C-34.95221047 148.30911836 -28.91880284 146.51023529 -22.5078125 140.74609375 C-20.0071989 137.85030547 -18.96180485 134.65485843 -18 131 C-17.82612416 130.40375446 -17.65224833 129.80750893 -17.47310352 129.19319534 C-16.93948963 126.71948831 -16.89621193 124.50993291 -16.92253113 121.97918701 C-16.93008423 120.96713699 -16.93763733 119.95508698 -16.94541931 118.91236877 C-16.95851639 117.80787888 -16.97161346 116.70338898 -16.98510742 115.56542969 C-17.00453968 113.14484004 -17.02349408 110.72424652 -17.04203796 108.3036499 C-17.0531983 107.01970085 -17.06435863 105.7357518 -17.07585716 104.4128952 C-17.10567165 100.39452859 -17.12121467 96.37642582 -17.1287384 92.35797119 C-17.13002202 91.67892849 -17.13130563 90.99988578 -17.13262814 90.30026603 C-17.13750648 87.49996356 -17.14168193 84.69966059 -17.14541471 81.89935637 C-17.15671157 73.95920355 -17.18749237 66.02025171 -17.27758789 58.08056641 C-17.34909604 51.76770932 -17.3780334 45.45626537 -17.35742456 39.14301419 C-17.34810526 35.80416905 -17.36637032 32.47105261 -17.42339134 29.13228607 C-17.75483425 8.71317083 -17.75483425 8.71317083 -14.75732803 4.07868958 C-10.38843561 -0.31576321 -5.68494642 -2.968468 0 0 Z " fill="#0A3155" transform="translate(1065,514)"/>
<path d="M0 0 C0.79191742 -0.00139984 1.58383484 -0.00279968 2.39974976 -0.00424194 C15.72172806 0.01506746 27.85398681 1.4801254 40.625 5.4375 C41.95492971 5.80498891 43.28562052 6.1697386 44.6171875 6.53125 C58.90649476 10.76064327 72.91356302 18.24727515 84.625 27.4375 C85.511875 28.12328125 86.39875 28.8090625 87.3125 29.515625 C104.49733246 43.16801968 120.66012973 61.81484526 126.625 83.4375 C127.30433594 83.27507812 127.98367188 83.11265625 128.68359375 82.9453125 C143.27706126 80.42585596 158.74711072 82.87510722 172.625 87.4375 C173.25954102 87.63972168 173.89408203 87.84194336 174.54785156 88.05029297 C191.5824728 93.55450417 205.09405351 102.76476062 217.625 115.4375 C218.63626953 116.43330078 218.63626953 116.43330078 219.66796875 117.44921875 C235.23434691 133.87050097 242.44015627 157.00516249 241.98046875 179.2890625 C241.47865352 186.84346499 239.59698523 194.15347956 237.625 201.4375 C237.191875 203.09458984 237.191875 203.09458984 236.75 204.78515625 C233.02813571 217.39629461 225.06610438 230.22962767 214.3125 238.0625 C213.425625 238.51625 212.53875 238.97 211.625 239.4375 C208.625 238.4375 208.625 238.4375 207.58178711 236.7668457 C207.12171265 235.7008313 207.12171265 235.7008313 206.65234375 234.61328125 C206.31009766 233.83146484 205.96785156 233.04964844 205.61523438 232.24414062 C205.09413086 231.00954102 205.09413086 231.00954102 204.5625 229.75 C204.21123047 228.94626953 203.85996094 228.14253906 203.49804688 227.31445312 C202.51124669 225.03306063 201.56273899 222.7394129 200.625 220.4375 C200.1609375 219.33148438 199.696875 218.22546875 199.21875 217.0859375 C198.625 214.4375 198.625 214.4375 199.56640625 212.48828125 C200.10136719 211.91464844 200.63632813 211.34101563 201.1875 210.75 C205.10802687 206.05968931 207.33294691 201.07009854 209.625 195.4375 C209.94726562 194.71949219 210.26953125 194.00148438 210.6015625 193.26171875 C215.4448429 181.24404636 213.03562706 166.36230068 208.5625 154.5625 C200.52281257 136.46734346 186.81955097 124.18289457 168.875 116.1875 C150.83108316 109.50029759 133.01056985 110.60194138 114.64355469 114.97998047 C111.9879521 115.58189136 109.31645654 116.02905212 106.625 116.4375 C106.356875 115.179375 106.08875 113.92125 105.8125 112.625 C103.18701486 100.9274645 99.60182923 90.82235158 93.625 80.4375 C93.06941406 79.44363281 92.51382812 78.44976562 91.94140625 77.42578125 C79.39335511 56.33181518 59.08878663 42.66212157 36.375 34.5625 C35.57175293 34.27600586 34.76850586 33.98951172 33.94091797 33.69433594 C23.56195448 30.17611499 13.55513877 29.07002732 2.625 29.125 C1.44309082 29.13063965 0.26118164 29.1362793 -0.95654297 29.14208984 C-31.89041688 29.56607156 -59.46836432 40.39459727 -82.0625 61.6875 C-99.39098268 79.80941138 -106.89571636 101.20864761 -111.375 125.4375 C-116.24667834 124.5398395 -120.99041885 123.21873811 -125.75976562 121.8984375 C-144.43946945 116.81604093 -162.49779103 119.26230156 -179.375 128.4375 C-183.27314471 130.99271818 -186.78220694 133.74782172 -189.98046875 137.140625 C-191.375 138.4375 -191.375 138.4375 -193.375 138.4375 C-193.63667969 139.0046875 -193.89835938 139.571875 -194.16796875 140.15625 C-195.4728121 142.6223617 -197.01163494 144.70796777 -198.6875 146.9375 C-207.21979101 158.9967088 -210.16662821 172.79510394 -208.375 187.4375 C-207.408447 191.28801822 -205.93547977 194.90088048 -204.37109375 198.546875 C-203.29448126 201.67116223 -203.31169787 202.43398633 -204.375 205.4375 C-205.51074219 207.18920898 -205.51074219 207.18920898 -206.921875 208.93359375 C-207.4375 209.57490234 -207.953125 210.21621094 -208.484375 210.87695312 C-209.02578125 211.53630859 -209.5671875 212.19566406 -210.125 212.875 C-210.6509375 213.53048828 -211.176875 214.18597656 -211.71875 214.86132812 C-214.75525071 218.60809943 -217.89796647 222.09568444 -221.375 225.4375 C-235.08027187 206.36315255 -238.88756381 185.23594485 -236.09375 162.109375 C-232.32269279 139.65444344 -216.72960772 119.83521891 -198.8125 106.7109375 C-178.53112031 92.86226176 -156.3675412 89.97262837 -132.375 90.4375 C-131.9625 89.37273437 -131.55 88.30796875 -131.125 87.2109375 C-124.55205991 70.54673754 -116.17215826 56.91622976 -104.375 43.4375 C-103.57449219 42.52097656 -102.77398438 41.60445312 -101.94921875 40.66015625 C-90.40241445 28.35553059 -75.73916258 19.1761678 -60.375 12.4375 C-59.75028809 12.15825684 -59.12557617 11.87901367 -58.48193359 11.59130859 C-49.04591918 7.4196228 -39.48361945 4.48480101 -29.375 2.4375 C-28.53420898 2.26017334 -27.69341797 2.08284668 -26.82714844 1.90014648 C-17.90533098 0.19773674 -9.0483229 -0.00153411 0 0 Z " fill="#0FAB98" transform="translate(889.375,183.5625)"/>
<path d="M0 0 C2 2 2 2 2.03533936 3.86811829 C1.93440979 4.60426865 1.83348022 5.34041901 1.72949219 6.09887695 C1.61939819 6.90628326 1.5093042 7.71368958 1.39587402 8.54556274 C0.80737875 12.19426064 0.1060753 15.80524976 -0.671875 19.41796875 C-0.83462921 20.19016251 -0.99738342 20.96235626 -1.16506958 21.75794983 C-1.68872159 24.23548247 -2.21889228 26.7115558 -2.75 29.1875 C-3.1135505 30.893532 -3.476994 32.5995868 -3.84033203 34.30566406 C-4.72662064 38.45818117 -5.61986087 42.60916267 -6.51647949 46.75946045 C-6.95719281 48.80163987 -7.3952437 50.84439339 -7.83300781 52.88720703 C-8.50448595 56.01024742 -9.18642976 59.13069063 -9.875 62.25 C-10.06545898 63.13453857 -10.25591797 64.01907715 -10.45214844 64.93041992 C-11.76665277 70.76665277 -11.76665277 70.76665277 -14 73 C-16.87259049 73.11185308 -18.46790072 72.48426096 -20.59130859 70.55175781 C-22.35561471 68.62396586 -24.02975094 66.64508832 -25.6875 64.625 C-26.26822266 63.93921875 -26.84894531 63.2534375 -27.44726562 62.546875 C-29.79024943 59.76238096 -31.97868556 57.03197165 -34 54 C-53.59445025 63.42955884 -71.58426942 79.27280257 -89.00732422 92.18359375 C-98.67418298 99.34452521 -108.46753976 106.30070659 -118.35058594 113.15966797 C-121.10393405 115.07219451 -123.85311344 116.99059701 -126.6015625 118.91015625 C-161.65883408 143.37848213 -161.65883408 143.37848213 -177.61328125 153.4609375 C-179.86340074 154.79304856 -179.86340074 154.79304856 -181 156 C-184.58762775 156.58706636 -185.96799193 156.01975309 -189.1015625 154.0859375 C-190.28501225 153.19407215 -191.45891569 152.28945311 -192.625 151.375 C-193.95925635 150.36147995 -195.29391129 149.34848447 -196.62890625 148.3359375 C-197.33547363 147.79420898 -198.04204102 147.25248047 -198.77001953 146.69433594 C-201.85944021 144.34699857 -204.99467328 142.06455097 -208.12890625 139.77758789 C-214.53912843 135.09532187 -220.89782538 130.36099602 -227.125 125.4375 C-227.66898438 125.00993408 -228.21296875 124.58236816 -228.7734375 124.1418457 C-231.25260871 122.18920808 -233.72175503 120.22690849 -236.16748047 118.23242188 C-238.45367041 116.36848465 -240.7569739 114.52743504 -243.0625 112.6875 C-243.77744629 112.09316162 -244.49239258 111.49882324 -245.22900391 110.88647461 C-245.90753418 110.35030518 -246.58606445 109.81413574 -247.28515625 109.26171875 C-248.18053101 108.53408325 -248.18053101 108.53408325 -249.09399414 107.79174805 C-251.0579289 106.74626508 -251.0579289 106.74626508 -253.43774414 107.67651367 C-255.9611806 108.97994855 -258.33236112 110.36210077 -260.7109375 111.9140625 C-262.06602417 112.79602295 -262.06602417 112.79602295 -263.44848633 113.69580078 C-264.41423584 114.33243652 -265.37998535 114.96907227 -266.375 115.625 C-267.38651123 116.28870605 -268.39802246 116.95241211 -269.44018555 117.63623047 C-286.61060491 128.96103347 -303.41947704 140.82981066 -320 153 C-321.0216626 153.74926758 -321.0216626 153.74926758 -322.06396484 154.51367188 C-339.88946043 167.62805227 -356.61280117 181.57987622 -372.3125 197.1875 C-373.29959961 198.16746948 -373.29959961 198.16746948 -374.30664062 199.16723633 C-378.18631365 203.06014889 -381.84740985 207.08105259 -385.43969727 211.23950195 C-387.27748078 213.31308307 -389.21812223 215.18683127 -391.3125 217 C-391.96863281 217.5775 -392.62476563 218.155 -393.30078125 218.75 C-395 220 -395 220 -397 220 C-403.13981883 206.15025601 -403.13981883 206.15025601 -404 199 C-404.165 197.78183594 -404.33 196.56367187 -404.5 195.30859375 C-405.0420956 189.49783194 -405.37180722 184.35678199 -401.71875 179.51171875 C-399.03275554 176.44061884 -396.008026 173.7522829 -393 171 C-392.07144135 169.90117878 -391.15812772 168.7892648 -390.26171875 167.6640625 C-389.51535156 166.78492188 -388.76898437 165.90578125 -388 165 C-387.34 165 -386.68 165 -386 165 C-385.67 164.01 -385.34 163.02 -385 162 C-383.38840371 160.54092979 -381.71025332 159.15457379 -380 157.8125 C-376.44769336 154.98161296 -372.97689182 152.12779884 -369.625 149.0625 C-364.01354833 144.033928 -358.02756927 139.51120917 -352 135 C-351.30084473 134.47631836 -350.60168945 133.95263672 -349.88134766 133.41308594 C-323.57138452 113.75958368 -296.33913441 95.3694847 -268.875 77.375 C-268.2377298 76.95723297 -267.60045959 76.53946594 -266.94387817 76.10903931 C-253.65396616 67.40413291 -253.65396616 67.40413291 -248 68 C-245.7193521 69.42869855 -243.84372995 70.78176807 -241.8125 72.5 C-240.65858665 73.43227156 -239.5036241 74.36324587 -238.34765625 75.29296875 C-237.77934082 75.75622559 -237.21102539 76.21948242 -236.62548828 76.69677734 C-234.3926949 78.48690216 -232.07985187 80.15136897 -229.75 81.8125 C-219.44609616 89.2517086 -209.41997789 97.07445864 -199.4375 104.9375 C-198.86290039 105.38746338 -198.28830078 105.83742676 -197.69628906 106.30102539 C-195.28409109 108.19081626 -192.88848103 110.09263838 -190.53125 112.05078125 C-189.8403125 112.61152344 -189.149375 113.17226563 -188.4375 113.75 C-187.87933594 114.21921875 -187.32117188 114.6884375 -186.74609375 115.171875 C-184.20759431 116.37581657 -182.67670725 115.71968305 -180 115 C-177.9011908 113.893973 -177.9011908 113.893973 -175.91796875 112.4453125 C-175.15895264 111.91848877 -174.39993652 111.39166504 -173.61791992 110.84887695 C-172.41486206 109.99555786 -172.41486206 109.99555786 -171.1875 109.125 C-169.4791882 107.93356287 -167.77085452 106.74215712 -166.0625 105.55078125 C-165.21042969 104.95217285 -164.35835937 104.35356445 -163.48046875 103.73681641 C-160.55699508 101.68980935 -157.61290964 99.67446811 -154.66503906 97.6628418 C-148.64654675 93.55317748 -142.68700678 89.36965433 -136.77124023 85.11376953 C-131.14131212 81.07509486 -125.44472326 77.13404751 -119.75 73.1875 C-110.41253111 66.71134182 -101.17179697 60.11520932 -91.97998047 53.43457031 C-88.99787848 51.27392527 -85.99974741 49.13604573 -83 47 C-74.63702145 41.04117589 -66.31974545 35.01896231 -58 29 C-60.09560967 24.40493285 -63.49613503 21.48113955 -67.1875 18.15429688 C-69.63723797 15.83093428 -70.93266878 14.57074949 -71.3359375 11.15234375 C-71.22507812 10.44207031 -71.11421875 9.73179687 -71 9 C-67.7188262 7.09358407 -64.88977414 6.5805635 -61.1328125 6.18359375 C-59.99972656 6.05919922 -58.86664062 5.93480469 -57.69921875 5.80664062 C-56.51972656 5.68482422 -55.34023437 5.56300781 -54.125 5.4375 C-51.79413195 5.1874894 -49.46339763 4.93622812 -47.1328125 4.68359375 C-46.10043457 4.57587646 -45.06805664 4.46815918 -44.00439453 4.35717773 C-41.94781513 4.11268109 -39.8970485 3.8150904 -37.85449219 3.47265625 C-34.28748137 2.88201881 -30.73029857 2.72914756 -27.125 2.5625 C-20.83357818 2.24271286 -20.83357818 2.24271286 -14.6875 0.9375 C-9.82592616 -0.29849335 -4.9941282 -0.57171838 0 0 Z " fill="#FC8D0B" transform="translate(1103,440)"/>
<path d="M0 0 C24.42 0 48.84 0 74 0 C75.98 10.23 77.96 20.46 80 31 C80.9075 34.91875 81.815 38.8375 82.75 42.875 C86.794708 60.45897406 89.02620898 73.95013978 79 90 C78.34 90 77.68 90 77 90 C76.77183594 90.58652344 76.54367187 91.17304688 76.30859375 91.77734375 C72.82127835 97.70057499 64.79745254 101.0349501 58.4375 102.9375 C48.12757828 105.31332833 38.1364687 104.55880025 28.875 99.3125 C19.66257138 93.3657775 12.97578599 85.84313909 10.51660156 74.83642578 C9.58347163 69.59223558 8.98196284 64.30850936 8.36962891 59.01904297 C7.71378381 53.66225269 6.87299745 48.33551412 6.0625 43 C3.95278052 28.67947991 1.97783853 14.33932936 0 0 Z " fill="#072846" transform="translate(909,377)"/>
<path d="M0 0 C23.1 0 46.2 0 70 0 C68.86300726 18.19188377 68.86300726 18.19188377 67.625 25.0625 C66.42094937 32.19190326 65.40752261 39.32693171 64.5 46.5 C64.12234172 49.4007833 63.74231958 52.3012488 63.36181641 55.20166016 C63.12592991 57.02604009 62.89613946 58.85122174 62.67333984 60.67724609 C61.02886798 74.04773696 58.59566699 85.79127939 48.19921875 95.31640625 C39.10418915 102.27903104 28.34732284 105.10151208 17 104 C3.8856794 101.56536014 -4.77573689 94.34220761 -12.3125 83.75 C-18.35899872 71.92827791 -14.86653236 60.25468506 -11.9375 48.125 C-11.51089372 46.28855996 -11.08634191 44.45164149 -10.66381836 42.61425781 C-9.83504434 39.02360201 -8.99486205 35.43596453 -8.14355469 31.85058594 C-7.17778601 27.77468112 -6.25172084 23.69245027 -5.3515625 19.6015625 C-5.12734619 18.58433105 -4.90312988 17.56709961 -4.67211914 16.51904297 C-4.28034243 14.73949493 -3.88887739 12.95987824 -3.49780273 11.18017578 C-2.60444237 7.23211272 -1.51481538 3.78703846 0 0 Z " fill="#072947" transform="translate(782,377)"/>
<path d="M0 0 C0.33 0 0.66 0 1 0 C1 1.98 1 3.96 1 6 C1.99 6.33 2.98 6.66 4 7 C4 7.66 4 8.32 4 9 C4.66 9 5.32 9 6 9 C6.515625 9.825 7.03125 10.65 7.5625 11.5 C13.44951323 20.68895423 23.25220488 26.82120656 33.75 29.3125 C37.96788235 29.99806705 42.05835854 30.07046725 46.328125 30.04296875 C48.20612793 30.03366333 48.20612793 30.03366333 50.12207031 30.02416992 C51.54664551 30.01220581 51.54664551 30.01220581 53 30 C53.37219446 43.29988581 53.65573852 56.59851596 53.82899475 69.90256596 C53.91219239 76.08186474 54.02483794 82.25757895 54.20703125 88.43481445 C54.38205219 94.40686632 54.47677811 100.3754926 54.51803589 106.34991264 C54.54739784 108.61838131 54.60474291 110.88668089 54.69168091 113.15367317 C55.37803997 131.80854531 55.37803997 131.80854531 49.53808594 138.62692261 C46.24895735 141.92026217 42.70278015 144.75817103 38.95062256 147.50335503 C36.04590215 149.73204616 33.63440071 152.27463588 31.125 154.9375 C29.7889761 156.33013509 28.42590835 157.6995471 27 159 C26.34 159 25.68 159 25 159 C25.0040642 158.39223661 25.0081284 157.78447323 25.01231575 157.15829277 C25.10783144 142.36002228 25.14805251 127.56237433 25.12697029 112.76385307 C25.11810381 105.60717307 25.12785061 98.45142786 25.18164062 91.29492188 C25.22848556 85.05611025 25.24017785 78.81838422 25.2099179 72.57945263 C25.19511793 69.27628964 25.20298573 65.97571967 25.24249649 62.67269516 C25.28366322 58.98170153 25.26268382 55.29592032 25.22705078 51.60498047 C25.2536528 50.51381424 25.28025482 49.42264801 25.30766296 48.29841614 C25.24009922 45.22055824 25.09357666 42.88108052 24 40 C20.949542 37.29055715 17.66986421 35.71676274 14 34 C7.17345396 28.10387141 2.83176358 20.49529074 0 12 C-0.068991 9.93854893 -0.08467727 7.87498599 -0.0625 5.8125 C-0.05347656 4.72582031 -0.04445313 3.63914062 -0.03515625 2.51953125 C-0.02355469 1.68808594 -0.01195312 0.85664063 0 0 Z " fill="#07284A" transform="translate(674,450)"/>
<path d="M0 0 C2.475 0.99 2.475 0.99 5 2 C5 20.15 5 38.3 5 57 C2.69 57 0.38 57 -2 57 C-2 38.52 -2 20.04 -2 1 C-1.34 0.67 -0.68 0.34 0 0 Z " fill="#E0E6EB" transform="translate(936,606)"/>
<path d="M0 0 C0.33 0 0.66 0 1 0 C1 19.14 1 38.28 1 58 C1.99 58.33 2.98 58.66 4 59 C2.68 59.66 1.36 60.32 0 61 C0 40.87 0 20.74 0 0 Z " fill="#1D3A60" transform="translate(699,548)"/>
<path d="M0 0 C-2.35968744 2.09749995 -3.54616994 2.96905704 -6.75 3.1875 C-7.86375 3.0946875 -7.86375 3.0946875 -9 3 C-9 4.98 -9 6.96 -9 9 C-9.99 8.34 -10.98 7.68 -12 7 C-12.1875 4.375 -12.1875 4.375 -12 2 C-8.09971775 -0.60018816 -4.52565431 -0.15085514 0 0 Z " fill="#FBBE34" transform="translate(1044,447)"/>
<path d="M0 0 C1.64826111 2.96687001 2.44271087 5.65626525 3 9 C-0.465 10.485 -0.465 10.485 -4 12 C-3.52494322 10.18641846 -3.04483958 8.37415821 -2.5625 6.5625 C-2.29566406 5.55316406 -2.02882813 4.54382813 -1.75390625 3.50390625 C-1 1 -1 1 0 0 Z " fill="#DBE0E4" transform="translate(919,450)"/>
<path d="M0 0 C1.98 0.99 1.98 0.99 4 2 C3.48517081 7.852795 2.54642808 13.3297637 1 19 C0.67 19 0.34 19 0 19 C0 15.7 0 12.4 0 9 C0.66 9 1.32 9 2 9 C1.34 6.03 0.68 3.06 0 0 Z " fill="#FAC344" transform="translate(1101,440)"/>
<path d="M0 0 C-2.60604988 1.73736659 -4.07233236 2.45003827 -7 3.1875 C-8.0209375 3.45626953 -8.0209375 3.45626953 -9.0625 3.73046875 C-11 4 -11 4 -14 3 C-14 2.34 -14 1.68 -14 1 C-9.23692563 0.04738513 -4.8333472 -0.08333357 0 0 Z " fill="#FBC049" transform="translate(1076,443)"/>
<path d="M0 0 C-2.81870287 2.81870287 -5.09056945 2.7303841 -9 3 C-11.4375 2.0625 -11.4375 2.0625 -13 1 C-8.59085217 -0.10228696 -4.51617599 -0.07654536 0 0 Z " fill="#FAC959" transform="translate(1100,440)"/>
<path d="M0 0 C0.99 0.66 1.98 1.32 3 2 C2.67 2.99 2.34 3.98 2 5 C0.35 5 -1.3 5 -3 5 C-3 4.34 -3 3.68 -3 3 C-2.34 3 -1.68 3 -1 3 C-0.67 2.01 -0.34 1.02 0 0 Z " fill="#223E6C" transform="translate(1077,433)"/>
</svg>
