<?xml version="1.0" encoding="UTF-8"?>
<svg version="1.1" xmlns="http://www.w3.org/2000/svg" width="1774" height="887">
<path d="M0 0 C585.42 0 1170.84 0 1774 0 C1774 292.71 1774 585.42 1774 887 C1188.58 887 603.16 887 0 887 C0 594.29 0 301.58 0 0 Z " fill="#FEFEFE" transform="translate(0,0)"/>
<path d="M0 0 C2 2 2 2 2.04248047 4.10058594 C1.94338379 4.96973633 1.84428711 5.83888672 1.7421875 6.734375 C1.63229492 7.72244141 1.52240234 8.71050781 1.40917969 9.72851562 C1.27415039 10.80810547 1.13912109 11.88769531 1 13 C0.86239258 14.12599609 0.72478516 15.25199219 0.58300781 16.41210938 C0.12319757 20.02875136 -0.37178681 23.63915729 -0.875 27.25 C-1.03613281 28.4771875 -1.19726562 29.704375 -1.36328125 30.96875 C-3.50331222 46.29734393 -3.50331222 46.29734393 -10 52 C-12.46899414 53.1940918 -12.46899414 53.1940918 -15.28515625 54.19921875 C-16.35604492 54.59512207 -17.42693359 54.99102539 -18.53027344 55.39892578 C-20.27872559 56.03677002 -20.27872559 56.03677002 -22.0625 56.6875 C-33.74575777 61.1108228 -45.02467963 66.14550666 -56.25 71.625 C-56.96954865 71.97404388 -57.68909729 72.32308777 -58.43045044 72.68270874 C-66.3808747 76.54860098 -74.23539799 80.57967023 -81.984375 84.8359375 C-82.67452698 85.20764069 -83.36467896 85.57934387 -84.07574463 85.96231079 C-88.0503518 88.07000623 -88.0503518 88.07000623 -90 92 C-89.32412842 92.16798096 -88.64825684 92.33596191 -87.9519043 92.5090332 C-81.30081818 94.23193618 -75.09478102 96.41920934 -68.8125 99.1875 C-67.90612793 99.58332275 -66.99975586 99.97914551 -66.06591797 100.38696289 C-31.53795472 115.60808562 -1.378937 136.88011025 13 173 C18.29250179 187.83227775 19.35414424 203.00445638 19.1875 218.625 C19.17787712 220.04402547 19.16844083 221.46305221 19.15917969 222.88208008 C19.13048511 226.5265213 19.08328548 230.17048081 19.02996826 233.81463623 C19.00013926 235.98984466 18.97796203 238.16501693 18.95751953 240.34033203 C18.91614555 244.45685249 18.83641159 248.57167269 18.75 252.6875 C18.73606201 253.93934082 18.72212402 255.19118164 18.70776367 256.48095703 C18.39930168 267.55037951 18.39930168 267.55037951 14 272 C8.06265405 276.22418831 3.45612299 276.57067349 -3.71861267 276.50120544 C-4.78727886 276.50673984 -5.85594505 276.51227424 -6.95699507 276.51797634 C-10.53268421 276.53157302 -14.10767417 276.51661778 -17.68334961 276.50170898 C-20.24952491 276.5054927 -22.81569816 276.51099316 -25.38186646 276.51808167 C-31.6274746 276.53200276 -37.87288029 276.52446433 -44.11847877 276.50940608 C-51.4041193 276.49251269 -58.68970985 276.4957609 -65.97536392 276.49950016 C-78.98858089 276.50537766 -92.00170111 276.49121665 -105.01489258 276.46655273 C-117.61388789 276.4426768 -130.21275371 276.43553129 -142.81176758 276.44604492 C-156.54906832 276.45748801 -170.28630916 276.45933905 -184.02360922 276.44494683 C-185.49262813 276.44342113 -186.96164705 276.44190077 -188.43066597 276.44038582 C-189.15331066 276.439628 -189.87595535 276.43887019 -190.62049837 276.43808941 C-195.68559077 276.43336921 -200.75065625 276.43518218 -205.81574821 276.43945122 C-212.65548693 276.44493075 -219.49504493 276.43400278 -226.33475113 276.41249657 C-228.83555693 276.40696488 -231.33637993 276.40642982 -233.83718681 276.41144943 C-260.34256416 276.45794917 -284.55637703 273.27177504 -304.6875 254.3359375 C-323.92207297 234.90641954 -326.31897089 210.03382719 -326.2746582 184.05322266 C-326.27901933 182.33146446 -326.28420706 180.60970819 -326.29014587 178.88795471 C-326.30337956 174.27111621 -326.30413352 169.65436031 -326.30158257 165.03750658 C-326.30050466 161.17224431 -326.30541571 157.30699821 -326.310188 153.44173944 C-326.32122342 144.33256628 -326.32175084 135.2234344 -326.31567383 126.11425781 C-326.30960375 116.72027308 -326.32203511 107.32643698 -326.3432439 97.93247759 C-326.36082947 89.84552101 -326.3668671 81.75861194 -326.36360615 73.67163694 C-326.36179232 68.85000568 -326.36444191 64.02848111 -326.37832069 59.20686722 C-326.39084901 54.68736144 -326.38900277 50.16809015 -326.37590981 45.64858818 C-326.3735356 43.98889908 -326.37630874 42.32919367 -326.38453293 40.66952324 C-326.39492867 38.40942137 -326.38695942 36.15011756 -326.3742218 33.89004517 C-326.37438954 32.62438028 -326.37455729 31.3587154 -326.37473011 30.05469704 C-326 27 -326 27 -324.65988445 25.14781761 C-322.10857314 23.38357429 -319.41590988 22.52034383 -316.48828125 21.51171875 C-315.84706329 21.28771393 -315.20584534 21.06370911 -314.54519653 20.83291626 C-312.47031954 20.10974536 -310.39159062 19.39845572 -308.3125 18.6875 C-305.48587898 17.70888755 -302.66097056 16.72537285 -299.8359375 15.7421875 C-298.8034211 15.38435936 -298.8034211 15.38435936 -297.75004578 15.01930237 C-291.42974609 12.82183409 -285.20155403 10.42627887 -278.99609375 7.92578125 C-275.81772587 6.94367801 -273.30694682 6.74263116 -270 7 C-268.3024907 8.6975093 -268.87113944 10.82068873 -268.85873187 13.08618736 C-268.85980012 13.82030657 -268.86086837 14.55442577 -268.86196899 15.31079102 C-268.85914771 16.08525385 -268.85632643 16.85971668 -268.85341966 17.65764809 C-268.8450349 20.27307739 -268.84373208 22.88846457 -268.84228516 25.50390625 C-268.83761958 27.37120179 -268.83247645 29.23849618 -268.82688904 31.10578918 C-268.8155848 35.13821303 -268.8071617 39.17062939 -268.80076981 43.20306396 C-268.79010951 49.58218149 -268.76986817 55.96124559 -268.74765015 62.34033203 C-268.6856654 80.48418724 -268.63175729 98.62804016 -268.59863281 116.77197266 C-268.58027333 126.78422619 -268.55131657 136.79639108 -268.5106281 146.80857944 C-268.48957253 152.10793334 -268.47410295 157.40717556 -268.47182083 162.70657349 C-268.46966945 167.6970328 -268.45374994 172.68725998 -268.42743111 177.67764854 C-268.42025409 179.50572109 -268.41812937 181.33382182 -268.42153358 183.16190529 C-268.44910189 199.58051661 -268.44910189 199.58051661 -261 214 C-254.68864562 220.13603898 -247.45662281 221.44995098 -239.02758789 221.39872742 C-238.15912294 221.40537424 -237.290658 221.41202107 -236.39587593 221.41886932 C-233.50468136 221.43742537 -230.61390333 221.43489902 -227.72265625 221.43237305 C-225.64267903 221.44139471 -223.56270712 221.45172293 -221.48274231 221.46325684 C-215.8490841 221.49080529 -210.21552683 221.50010848 -204.58181 221.50611091 C-198.68942779 221.51550012 -192.79712082 221.541704 -186.90478516 221.56611633 C-175.75257841 221.60976985 -164.60038628 221.63832392 -153.44812012 221.66143972 C-140.74922113 221.68849748 -128.05039786 221.73240868 -115.35155296 221.77772844 C-89.23440971 221.87055833 -63.11724271 221.94224671 -37 222 C-37.11689907 218.83798061 -37.2504393 215.67686371 -37.38671875 212.515625 C-37.43548157 211.18845459 -37.43548157 211.18845459 -37.48522949 209.83447266 C-38.13503076 195.34557046 -42.43024462 181.71668801 -52.0625 170.625 C-76.2956918 148.96980733 -108.55162584 139.67528269 -138.75 129.7265625 C-139.62914062 129.43555664 -140.50828125 129.14455078 -141.4140625 128.84472656 C-143.15458958 128.27616315 -144.89955955 127.72104366 -146.6484375 127.17871094 C-147.46570312 126.9212207 -148.28296875 126.66373047 -149.125 126.3984375 C-149.84945313 126.17591309 -150.57390625 125.95338867 -151.3203125 125.72412109 C-153 125 -153 125 -154 123 C-153.92056858 110.90656589 -151.89773358 98.64705607 -150.32739258 86.67700195 C-150.0580221 84.4744313 -149.88141248 82.26071644 -149.73046875 80.046875 C-148.75395262 75.97370613 -147.09617694 74.7337594 -143.8125 72.1875 C-143.27713623 71.76718506 -142.74177246 71.34687012 -142.19018555 70.91381836 C-140.47761647 69.58418399 -138.74330938 68.28899829 -137 67 C-136.17628906 66.3827002 -136.17628906 66.3827002 -135.3359375 65.75292969 C-116.14560967 51.43976456 -95.58014492 39.4446609 -74.06152344 29.00195312 C-72.66940903 28.32534991 -71.27947574 27.64424323 -69.89160156 26.95898438 C-55.5660934 19.88992442 -40.84685549 13.8801592 -26 8 C-24.95199219 7.58202148 -23.90398437 7.16404297 -22.82421875 6.73339844 C-19.92866665 5.58205407 -17.02828294 4.44418784 -14.125 3.3125 C-13.26986816 2.973396 -12.41473633 2.63429199 -11.53369141 2.28491211 C-3.92790676 -0.63473778 -3.92790676 -0.63473778 0 0 Z " fill="#06264D" transform="translate(1359,301)"/>
<path d="M0 0 C1.28921872 -0.00709439 2.57843743 -0.01418877 3.90672338 -0.02149814 C7.46041798 -0.04032382 11.01341887 -0.02824249 14.56709528 -0.01077521 C18.40899849 0.00264782 22.25080347 -0.01285577 26.09269714 -0.02459717 C33.60858692 -0.04294044 41.12421608 -0.03448416 48.64009763 -0.01650894 C54.74917245 -0.00246413 60.85817667 0.00140582 66.96726608 -0.00195122 C67.83784019 -0.00242866 68.7084143 -0.0029061 69.60536944 -0.00339801 C71.37408327 -0.00442437 73.14279708 -0.00547973 74.91151087 -0.00656378 C90.5377695 -0.01512387 106.16390255 0.00152282 121.79013062 0.03126526 C136.94545769 0.0601109 152.10060393 0.06718062 167.25595093 0.05177307 C183.77108986 0.03500603 200.28614302 0.03098106 216.80128419 0.04848343 C218.56275772 0.05032777 220.32423126 0.0521625 222.0857048 0.0539875 C223.38563354 0.05535564 223.38563354 0.05535564 224.71182347 0.05675141 C230.81315243 0.06235292 236.91443946 0.05905332 243.01576614 0.05244255 C250.45167362 0.04470537 257.8874032 0.05147609 265.32327487 0.07661759 C269.11572325 0.08910261 272.90789481 0.09527135 276.70035362 0.08407593 C280.81359418 0.0721629 284.92610892 0.09131222 289.03930664 0.11352539 C290.23483142 0.10528462 291.43035621 0.09704386 292.66210902 0.08855337 C300.65385122 0.16830748 305.79726504 1.41093037 312.1914978 6.43409729 C314.4197267 9.30796254 315.75459488 12.39208602 317.11141968 15.73365784 C317.71879542 17.17509434 318.32825464 18.6156543 318.93954468 20.05543518 C319.25665405 20.80548828 319.57376343 21.55554138 319.90048218 22.32832336 C321.5577498 26.16982811 323.33606967 29.95346156 325.11141968 33.74147034 C325.82265749 35.27062757 326.53359449 36.79992475 327.24423218 38.32936096 C328.33031678 40.66424413 329.41943187 42.99750934 330.51669312 45.3271637 C331.59888383 47.62788226 332.66869983 49.93400805 333.73641968 52.24147034 C334.06960205 52.94137589 334.40278442 53.64128143 334.74606323 54.36239624 C337.00638667 59.2870381 337.00638667 59.2870381 335.89266968 62.62818909 C328.97359132 63.46664602 322.05420726 64.30254515 315.13461304 65.13673401 C312.78460833 65.42033579 310.43467211 65.70450576 308.08480835 65.98927307 C304.69151727 66.40038472 301.29797854 66.80939779 297.90438843 67.21803284 C296.8674736 67.34411423 295.83055878 67.47019562 294.76222229 67.60009766 C288.14770576 68.39399948 281.53056382 69.06217027 274.89266968 69.62818909 C274.25575311 71.52486238 274.25575311 71.52486238 273.89266968 73.62818909 C275.33551731 75.76467396 275.33551731 75.76467396 277.51376343 77.73756409 C278.28397827 78.49166565 279.05419312 79.24576721 279.8477478 80.02272034 C280.66694702 80.80002502 281.48614624 81.57732971 282.33016968 82.37818909 C283.14550171 83.17096252 283.96083374 83.96373596 284.8008728 84.78053284 C286.8207736 86.7413722 288.85139096 88.68965399 290.89266968 90.62818909 C289.44892074 93.68118988 288.27553008 95.4475629 285.51766968 97.44068909 C284.9324353 97.8802594 284.34720093 98.31982971 283.74423218 98.77272034 C281.89266968 99.62818909 281.89266968 99.62818909 279.99032593 99.50709534 C270.65440082 95.59539487 263.85843372 86.42502922 257.89266968 78.62818909 C256.5624313 76.95905116 255.23001256 75.29164019 253.89266968 73.62818909 C253.66192749 74.18506409 253.4311853 74.74193909 253.19345093 75.31568909 C249.88019255 83.06845178 246.28815825 89.97636198 239.89266968 95.62818909 C239.35255249 96.12190002 238.8124353 96.61561096 238.25595093 97.12428284 C230.92675077 103.28572783 221.07460593 106.49020539 211.49032593 106.00709534 C199.23938137 104.22011545 190.06261898 99.17026393 182.24423218 89.60475159 C179.67709758 85.85050273 177.77139604 81.75972449 175.89266968 77.62818909 C175.3299939 78.82315002 175.3299939 78.82315002 174.75595093 80.04225159 C168.8859936 92.19616828 162.98469875 98.89583271 150.32235718 103.83131409 C139.85460013 107.26446913 129.84627785 106.1332267 119.89266968 101.62818909 C110.67606817 96.49341109 104.29932406 89.65889367 100.89266968 79.62818909 C100.70516968 76.69068909 100.70516968 76.69068909 100.89266968 74.62818909 C100.23266968 74.62818909 99.57266968 74.62818909 98.89266968 74.62818909 C98.85141968 75.57693909 98.81016968 76.52568909 98.76766968 77.50318909 C97.51377267 85.89074341 91.70759078 92.60083093 85.39266968 97.87037659 C79.65089256 101.90756362 72.9718873 105.17632413 65.89266968 105.62818909 C64.82339233 105.72100159 64.82339233 105.72100159 63.73251343 105.81568909 C52.3895446 106.39092681 42.36411026 102.01044445 33.89266968 94.62818909 C28.51961929 89.1624999 26.16494422 82.84120417 23.89266968 75.62818909 C23.56266968 74.63818909 23.23266968 73.64818909 22.89266968 72.62818909 C22.54977905 73.10385315 22.20688843 73.57951721 21.85360718 74.06959534 C11.7936564 87.52416005 1.49914377 99.97663428 -15.10733032 104.62818909 C-15.07180054 105.88527176 -15.03627075 107.14235443 -14.99966431 108.43753052 C-14.67402979 120.33737306 -14.43487366 132.23630206 -14.27833557 144.13960361 C-14.19514268 150.2583873 -14.08250736 156.37355012 -13.90029907 162.49024963 C-13.72525889 168.40395026 -13.63054866 174.31419102 -13.58929443 180.23028374 C-13.55993571 182.4764292 -13.50259684 184.72240419 -13.41564941 186.96705818 C-12.72989997 205.41996501 -12.72989997 205.41996501 -18.53189087 212.22410583 C-21.8052918 215.51177478 -25.33057729 218.35214346 -29.07136536 221.0878582 C-32.28020573 223.51554042 -35.14340599 226.28503572 -38.04483032 229.06568909 C-42.97923716 233.62818909 -42.97923716 233.62818909 -44.10733032 233.62818909 C-44.10234433 233.02134749 -44.09735834 232.4145059 -44.09222126 231.78927517 C-43.97456144 217.00737125 -43.9178497 202.226171 -43.92854786 187.44385433 C-43.93225962 180.2949462 -43.91552358 173.14718899 -43.85025024 165.99855042 C-43.79339319 159.76592159 -43.77530936 153.5345765 -43.80332392 147.30173022 C-43.8168119 144.00223115 -43.80541768 140.70589397 -43.75910378 137.4066143 C-43.71061666 133.71789585 -43.73068327 130.03542182 -43.76675415 126.34669495 C-43.73655685 125.25912399 -43.70635956 124.17155304 -43.67524719 123.05102539 C-43.74889938 119.88747957 -43.92767678 117.56956881 -45.10733032 114.62818909 C-47.71342922 112.29700722 -50.27799304 110.71331603 -53.3758955 109.10146427 C-61.88776411 104.51035168 -65.88448054 95.34502441 -69.10733032 86.62818909 C-69.79983398 83.28592591 -70.25928127 80.04089847 -70.29483032 76.62818909 C-70.30901001 76.00943909 -70.3231897 75.39068909 -70.33779907 74.75318909 C-69.72027158 69.0593763 -67.15331956 64.866292 -63.79483032 60.37818909 C-62.88980556 59.14126614 -61.98486169 57.90428401 -61.07998657 56.66725159 C-60.59803833 56.01401917 -60.11609009 55.36078674 -59.61953735 54.6877594 C-58.05791906 52.56089277 -56.5157998 50.42107349 -54.97842407 48.27662659 C-48.73766101 39.57379832 -42.42786094 30.92765946 -35.94717407 22.40162659 C-34.07748855 19.93868155 -32.26289166 17.44802645 -30.48623657 14.91725159 C-30.06302124 14.32984192 -29.63980591 13.74243225 -29.20376587 13.13722229 C-28.07291231 11.56650445 -26.96038375 9.98263711 -25.84951782 8.39772034 C-18.39932087 0.87323367 -10.18733704 -0.1012327 0 0 Z " fill="#104372" transform="translate(314.1073303222656,400.37181091308594)"/>
<path d="M0 0 C1.69708819 1.69708819 1.12974474 3.85238934 1.13371277 6.17567444 C1.14011024 7.85954002 1.14011024 7.85954002 1.14663696 9.5774231 C1.14618378 10.82039154 1.14573059 12.06335999 1.14526367 13.34399414 C1.14862228 14.64492508 1.1519809 15.94585602 1.15544128 17.28620911 C1.1643097 20.8697592 1.16662092 24.45328544 1.16725707 28.03684545 C1.16796736 30.28077076 1.17010155 32.52469001 1.17275429 34.76861382 C1.18202554 42.61308044 1.18608801 50.45753004 1.18530273 58.30200195 C1.18470534 65.583405 1.19518565 72.86473313 1.2110464 80.14611727 C1.22420438 86.41300585 1.22948301 92.67987026 1.22884732 98.94677252 C1.22859423 102.68195465 1.23133841 106.41707061 1.24202538 110.15223885 C1.32172398 140.06897847 1.32172398 140.06897847 -1 153 C-1.1395813 153.80079483 -1.2791626 154.60158966 -1.42297363 155.426651 C-6.20272826 180.12501877 -20.13651229 203.63276622 -41 218 C-60.70020758 230.67376387 -82.44628517 238.35584371 -106 239 C-106.73234863 239.02046387 -107.46469727 239.04092773 -108.21923828 239.06201172 C-143.48625075 239.90485361 -178.85207099 233.60134511 -205.43164062 208.55957031 C-221.65648941 192.42564533 -231.60315287 169.9320949 -232 147 C-232.01901367 146.35659668 -232.03802734 145.71319336 -232.05761719 145.05029297 C-232.63047867 124.69492805 -229.35592117 105.89980621 -224.68359375 86.12109375 C-223.82171119 82.18598423 -223.19293364 78.22955491 -222.625 74.2421875 C-221.88300197 71.58026956 -221.20956277 70.64280442 -219 69 C-216.60253906 68.00439453 -216.60253906 68.00439453 -213.765625 67.1328125 C-212.72349854 66.80692139 -211.68137207 66.48103027 -210.60766602 66.14526367 C-208.94562134 65.64023315 -208.94562134 65.64023315 -207.25 65.125 C-204.97243529 64.41607407 -202.69509057 63.70644098 -200.41796875 62.99609375 C-199.31372559 62.65433105 -198.20948242 62.31256836 -197.07177734 61.96044922 C-193.21693525 60.75516001 -189.38747601 59.48379015 -185.5625 58.1875 C-184.42039062 57.80722656 -183.27828125 57.42695313 -182.1015625 57.03515625 C-180.09319616 56.36485766 -178.08774762 55.68572539 -176.0859375 54.99609375 C-171.33024205 53.43190483 -167.98286489 52.55759174 -163 54 C-163.67466703 59.41169088 -164.81129286 64.58621878 -166.125 69.875 C-166.81979854 72.78313398 -167.50717299 75.69296472 -168.19384766 78.60302734 C-168.76225843 80.99820226 -169.33815896 83.39160581 -169.91943359 85.78369141 C-178.58565055 121.19030379 -178.58565055 121.19030379 -171 156 C-170.55398438 156.93714844 -170.10796875 157.87429688 -169.6484375 158.83984375 C-163.06414563 171.07044178 -151.38975148 178.12808035 -138.3984375 182.1015625 C-117.55038733 186.87831061 -97.31875032 184.13285461 -79 173 C-75.98270976 170.90968065 -73.47585001 168.70304566 -71 166 C-70.40058594 165.38125 -69.80117188 164.7625 -69.18359375 164.125 C-65.15293704 159.52848436 -62.78742545 154.65188343 -60.625 149 C-60.24867432 148.02172241 -60.24867432 148.02172241 -59.86474609 147.02368164 C-56.82681565 138.52065194 -56.8534248 129.79118347 -56.8581543 120.85229492 C-56.85467987 119.77475952 -56.85120544 118.69722412 -56.84762573 117.58703613 C-56.84031054 115.26267696 -56.83494276 112.93831099 -56.83133507 110.6139431 C-56.82413269 106.9365263 -56.80844191 103.25924008 -56.78999329 99.5818634 C-56.73767213 89.13182252 -56.68948123 78.68185882 -56.67407227 68.23168945 C-56.66401313 61.82805777 -56.63475447 55.42476358 -56.59275246 49.02126503 C-56.58042191 46.58239603 -56.57532492 44.14347946 -56.57755089 41.70458031 C-56.57989378 38.30292767 -56.55781814 34.90225318 -56.5300293 31.50073242 C-56.53663071 30.49132095 -56.54323212 29.48190948 -56.55003357 28.44190979 C-56.45887679 21.66810716 -56.45887679 21.66810716 -54.26667786 18.47634888 C-51.94087358 16.96148936 -49.80029335 15.85783422 -47.203125 14.87768555 C-46.2553418 14.51438644 -45.30755859 14.15108734 -44.33105469 13.77677917 C-42.80593262 13.21244926 -42.80593262 13.21244926 -41.25 12.63671875 C-40.19973633 12.24047806 -39.14947266 11.84423737 -38.06738281 11.43598938 C-35.85032598 10.60289445 -33.63119046 9.77531336 -31.41015625 8.95288086 C-28.00665854 7.68997074 -24.61256982 6.40389293 -21.21875 5.11523438 C-19.0630258 4.30848943 -16.90679221 3.50310406 -14.75 2.69921875 C-13.73325195 2.31287766 -12.71650391 1.92653656 -11.66894531 1.52848816 C-10.72116211 1.18094986 -9.77337891 0.83341156 -8.796875 0.4753418 C-7.96510742 0.16541794 -7.13333984 -0.14450592 -6.27636719 -0.46382141 C-3.75712833 -1.05720632 -2.40584275 -0.89358981 0 0 Z " fill="#06264C" transform="translate(993,399)"/>
<path d="M0 0 C1.41625977 1.46459961 1.41625977 1.46459961 2.69140625 3.15234375 C3.16126953 3.76400391 3.63113281 4.37566406 4.11523438 5.00585938 C4.83163086 5.96202148 4.83163086 5.96202148 5.5625 6.9375 C6.52035454 8.19796989 7.47993606 9.45712965 8.44140625 10.71484375 C8.86107666 11.27292725 9.28074707 11.83101074 9.71313477 12.40600586 C10.952132 14.04394869 10.952132 14.04394869 12.55661964 15.31247234 C14.43971771 17.51409581 14.37698777 18.72221005 14.38095093 21.59443665 C14.3894104 22.53754196 14.39786987 23.48064728 14.40658569 24.45233154 C14.39747665 26.00213715 14.39747665 26.00213715 14.38818359 27.58325195 C14.39606903 29.21803749 14.39606903 29.21803749 14.40411377 30.885849 C14.41735792 34.50347068 14.40855309 38.12065475 14.3984375 41.73828125 C14.40045857 44.25636377 14.40337028 46.77444573 14.40713501 49.29252625 C14.41156568 54.58285607 14.40539585 59.87302918 14.39111328 65.16333008 C14.37487832 71.24632843 14.38000566 77.32902365 14.3965925 83.41201431 C14.41196432 89.28797257 14.41018445 95.16381756 14.4014473 101.03978539 C14.39945747 103.52623729 14.40186136 106.01269701 14.40888596 108.49913979 C14.45600632 129.88942406 13.62173042 150.36811878 -1.73828125 166.8671875 C-12.88977315 177.62618382 -28.11889416 179.31090129 -42.92767334 179.26742554 C-44.65323877 179.27422221 -44.65323877 179.27422221 -46.4136641 179.28115618 C-50.24163803 179.29374606 -54.06946869 179.2921833 -57.89746094 179.29052734 C-60.65304088 179.29543324 -63.40861097 179.30326639 -66.16418457 179.31088257 C-72.85669152 179.3274342 -79.54916322 179.33298945 -86.24168894 179.33410732 C-91.68609695 179.3350605 -97.13049341 179.33918421 -102.57489777 179.34550858 C-118.03911206 179.36310444 -133.50329869 179.37234995 -148.96752307 179.37084763 C-149.79969553 179.37076772 -150.631868 179.3706878 -151.48925781 179.37060547 C-152.7390551 179.37048283 -152.7390551 179.37048283 -154.01410082 179.37035771 C-167.51188977 179.3695451 -181.00956705 179.38868073 -194.50732371 179.4168822 C-208.39447471 179.44566642 -222.28157135 179.45941948 -236.16875291 179.45769465 C-243.95422224 179.4570327 -251.73957447 179.46243929 -259.52501678 179.48405075 C-266.154065 179.50233557 -272.78294301 179.50655033 -279.41200563 179.4930319 C-282.7882276 179.48653887 -286.16385968 179.48845959 -289.54009247 179.5037384 C-312.29630103 179.60000721 -329.49660452 177.73054352 -347 162 C-351.24444373 157.69081052 -355.14999747 153.37047352 -358 148 C-357.20269487 144.35517656 -354.52574202 142.70999247 -351.703125 140.4765625 C-349.12797896 138.24398176 -347.01637264 135.65552669 -344.8046875 133.0703125 C-342.98748978 130.98564845 -341.1187289 128.97930928 -339.1875 127 C-338.62417969 126.4225 -338.06085938 125.845 -337.48046875 125.25 C-336 124 -336 124 -334 124 C-333.6596875 124.78503906 -333.319375 125.57007813 -332.96875 126.37890625 C-328.28013729 136.54172368 -322.51990829 142.88927953 -312 147 C-308.37098168 148.14619418 -304.91131279 148.15759139 -301.12011719 148.20532227 C-300.43678314 148.21522186 -299.7534491 148.22512146 -299.04940796 148.23532104 C-296.79859846 148.26682044 -294.54776789 148.29164752 -292.296875 148.31640625 C-290.73316917 148.33698577 -289.16946878 148.35798251 -287.60577393 148.37937927 C-283.49589449 148.43449686 -279.38596572 148.48395148 -275.27600098 148.53222656 C-271.07978946 148.58251702 -266.88364935 148.63816366 -262.6875 148.69335938 C-254.45839376 148.80081475 -246.22922767 148.90228759 -238 149 C-238.00444122 148.30286896 -238.00888245 147.60573792 -238.01345825 146.88748169 C-238.05349586 140.32472274 -238.08396442 133.76199775 -238.10362434 127.19914436 C-238.11407142 123.82493006 -238.12824725 120.45081648 -238.15087891 117.07666016 C-238.17504885 113.19951682 -238.18646511 109.32251723 -238.1953125 105.4453125 C-238.20563507 104.23070343 -238.21595764 103.01609436 -238.22659302 101.76467896 C-238.22674408 100.64366791 -238.22689514 99.52265686 -238.22705078 98.36767578 C-238.231492 97.37728302 -238.23593323 96.38689026 -238.24050903 95.3664856 C-238 93 -238 93 -236 91 C-233.50976562 90.74121094 -233.50976562 90.74121094 -230.40625 90.734375 C-229.29378906 90.73179687 -228.18132812 90.72921875 -227.03515625 90.7265625 C-225.86855469 90.73429688 -224.70195312 90.74203125 -223.5 90.75 C-222.33339844 90.74226562 -221.16679687 90.73453125 -219.96484375 90.7265625 C-218.85238281 90.72914063 -217.73992187 90.73171875 -216.59375 90.734375 C-215.56958984 90.73663086 -214.54542969 90.73888672 -213.49023438 90.74121094 C-211 91 -211 91 -209 93 C-208.75949097 95.3664856 -208.75949097 95.3664856 -208.77294922 98.36767578 C-208.77317581 100.04919235 -208.77317581 100.04919235 -208.77340698 101.76467896 C-208.78372955 102.97928802 -208.79405212 104.19389709 -208.8046875 105.4453125 C-208.8075174 106.68546112 -208.81034729 107.92560974 -208.81326294 109.20333862 C-208.82257826 112.50124633 -208.8405511 115.79895972 -208.8626709 119.09680176 C-208.88312526 122.4616457 -208.89226377 125.82651807 -208.90234375 129.19140625 C-208.92443485 135.79435706 -208.95898061 142.39714074 -209 149 C-203.06 149 -197.12 149 -191 149 C-191.01047363 147.31406738 -191.02094727 145.62813477 -191.03173828 143.89111328 C-191.06395982 138.32714192 -191.0869565 132.76318395 -191.10362434 127.19914436 C-191.11407142 123.82493006 -191.12824725 120.45081648 -191.15087891 117.07666016 C-191.17504885 113.19951682 -191.18646511 109.32251723 -191.1953125 105.4453125 C-191.20563507 104.23070343 -191.21595764 103.01609436 -191.22659302 101.76467896 C-191.22674408 100.64366791 -191.22689514 99.52265686 -191.22705078 98.36767578 C-191.231492 97.37728302 -191.23593323 96.38689026 -191.24050903 95.3664856 C-191 93 -191 93 -189 91 C-186.41796875 90.74121094 -186.41796875 90.74121094 -183.1875 90.734375 C-182.02992188 90.73179687 -180.87234375 90.72921875 -179.6796875 90.7265625 C-178.46539062 90.73429688 -177.25109375 90.74203125 -176 90.75 C-174.78570312 90.74226562 -173.57140625 90.73453125 -172.3203125 90.7265625 C-170.58394531 90.73042969 -170.58394531 90.73042969 -168.8125 90.734375 C-167.21341797 90.73775879 -167.21341797 90.73775879 -165.58203125 90.74121094 C-163 91 -163 91 -161 93 C-160.75949097 95.3664856 -160.75949097 95.3664856 -160.77294922 98.36767578 C-160.77317581 100.04919235 -160.77317581 100.04919235 -160.77340698 101.76467896 C-160.78372955 102.97928802 -160.79405212 104.19389709 -160.8046875 105.4453125 C-160.8075174 106.68546112 -160.81034729 107.92560974 -160.81326294 109.20333862 C-160.82257826 112.50124633 -160.8405511 115.79895972 -160.8626709 119.09680176 C-160.88312526 122.4616457 -160.89226377 125.82651807 -160.90234375 129.19140625 C-160.92443481 135.79434723 -160.95793517 142.39715771 -161 149 C-158.36 149 -155.72 149 -153 149 C-153.00999275 147.97642647 -153.00999275 147.97642647 -153.02018738 146.93217468 C-153.08644829 139.8435842 -153.1317622 132.75508139 -153.16479492 125.66625977 C-153.1799012 123.01908801 -153.2003873 120.37194136 -153.22631836 117.72485352 C-153.26261991 113.92457899 -153.27970803 110.12463474 -153.29296875 106.32421875 C-153.30845261 105.13664474 -153.32393646 103.94907074 -153.33988953 102.72550964 C-153.34022942 101.0741375 -153.34022942 101.0741375 -153.34057617 99.3894043 C-153.35056892 97.93379341 -153.35056892 97.93379341 -153.36076355 96.44877625 C-153 94 -153 94 -151.72505188 92.18586731 C-148.66720511 90.0837853 -145.01413153 90.61329603 -141.4375 90.6875 C-140.65697266 90.68427734 -139.87644531 90.68105469 -139.07226562 90.67773438 C-133.26716981 90.73283019 -133.26716981 90.73283019 -131 93 C-130.75949097 95.3664856 -130.75949097 95.3664856 -130.77294922 98.36767578 C-130.77317581 100.04919235 -130.77317581 100.04919235 -130.77340698 101.76467896 C-130.78372955 102.97928802 -130.79405212 104.19389709 -130.8046875 105.4453125 C-130.8075174 106.68546112 -130.81034729 107.92560974 -130.81326294 109.20333862 C-130.82257826 112.50124633 -130.8405511 115.79895972 -130.8626709 119.09680176 C-130.88312526 122.4616457 -130.89226377 125.82651807 -130.90234375 129.19140625 C-130.92443481 135.79434723 -130.95793517 142.39715771 -131 149 C-129.02 149 -127.04 149 -125 149 C-125.00999275 147.97642647 -125.00999275 147.97642647 -125.02018738 146.93217468 C-125.08644829 139.8435842 -125.1317622 132.75508139 -125.16479492 125.66625977 C-125.1799012 123.01908801 -125.2003873 120.37194136 -125.22631836 117.72485352 C-125.26261991 113.92457899 -125.27970803 110.12463474 -125.29296875 106.32421875 C-125.30845261 105.13664474 -125.32393646 103.94907074 -125.33988953 102.72550964 C-125.34022942 101.0741375 -125.34022942 101.0741375 -125.34057617 99.3894043 C-125.35056892 97.93379341 -125.35056892 97.93379341 -125.36076355 96.44877625 C-125 94 -125 94 -123.602005 92.18586731 C-120.58678967 89.95388595 -117.62835107 90.71203563 -114 91 C-112 93 -112 93 -111.75949097 95.3664856 C-111.76393219 96.35687836 -111.76837341 97.34727112 -111.77294922 98.36767578 C-111.77317581 100.04919235 -111.77317581 100.04919235 -111.77340698 101.76467896 C-111.78372955 102.97928802 -111.79405212 104.19389709 -111.8046875 105.4453125 C-111.8075174 106.68546112 -111.81034729 107.92560974 -111.81326294 109.20333862 C-111.82257826 112.50124633 -111.8405511 115.79895972 -111.8626709 119.09680176 C-111.88312526 122.4616457 -111.89226377 125.82651807 -111.90234375 129.19140625 C-111.92443481 135.79434723 -111.95793517 142.39715771 -112 149 C-109.69 149 -107.38 149 -105 149 C-105.00444122 148.30286896 -105.00888245 147.60573792 -105.01345825 146.88748169 C-105.05349586 140.32472274 -105.08396442 133.76199775 -105.10362434 127.19914436 C-105.11407142 123.82493006 -105.12824725 120.45081648 -105.15087891 117.07666016 C-105.17504885 113.19951682 -105.18646511 109.32251723 -105.1953125 105.4453125 C-105.20563507 104.23070343 -105.21595764 103.01609436 -105.22659302 101.76467896 C-105.22674408 100.64366791 -105.22689514 99.52265686 -105.22705078 98.36767578 C-105.231492 97.37728302 -105.23593323 96.38689026 -105.24050903 95.3664856 C-105 93 -105 93 -103 91 C-100.47207337 90.77444919 -98.08944424 90.67561409 -95.5625 90.6875 C-94.5405957 90.66333008 -94.5405957 90.66333008 -93.49804688 90.63867188 C-88.52425769 90.63380039 -88.52425769 90.63380039 -86.30229187 92.18586731 C-84.51600604 94.6742185 -84.63849464 96.34071853 -84.65942383 99.3894043 C-84.65965042 100.49031906 -84.65987701 101.59123383 -84.66011047 102.72550964 C-84.67559433 103.91308365 -84.69107819 105.10065765 -84.70703125 106.32421875 C-84.71127609 107.54075638 -84.71552094 108.75729401 -84.71989441 110.01069641 C-84.73671149 113.90318771 -84.77437041 117.79516471 -84.8125 121.6875 C-84.82754287 124.32356024 -84.84123196 126.95962858 -84.85351562 129.59570312 C-84.88662501 136.0639781 -84.93685495 142.53195231 -85 149 C-82.69 149 -80.38 149 -78 149 C-78.00444122 148.30286896 -78.00888245 147.60573792 -78.01345825 146.88748169 C-78.05349586 140.32472274 -78.08396442 133.76199775 -78.10362434 127.19914436 C-78.11407142 123.82493006 -78.12824725 120.45081648 -78.15087891 117.07666016 C-78.17504885 113.19951682 -78.18646511 109.32251723 -78.1953125 105.4453125 C-78.20563507 104.23070343 -78.21595764 103.01609436 -78.22659302 101.76467896 C-78.22674408 100.64366791 -78.22689514 99.52265686 -78.22705078 98.36767578 C-78.231492 97.37728302 -78.23593323 96.38689026 -78.24050903 95.3664856 C-78 93 -78 93 -76 91 C-73.12657939 90.80143028 -70.37138012 90.72171054 -67.5 90.75 C-66.32244141 90.73839844 -66.32244141 90.73839844 -65.12109375 90.7265625 C-59.25330787 90.74669213 -59.25330787 90.74669213 -57 93 C-56.75949097 95.3664856 -56.75949097 95.3664856 -56.77294922 98.36767578 C-56.77310028 99.48868683 -56.77325134 100.60969788 -56.77340698 101.76467896 C-56.78372955 102.97928802 -56.79405212 104.19389709 -56.8046875 105.4453125 C-56.80893234 107.30553543 -56.80893234 107.30553543 -56.81326294 109.20333862 C-56.82257826 112.50124633 -56.8405511 115.79895972 -56.8626709 119.09680176 C-56.88312526 122.4616457 -56.89226377 125.82651807 -56.90234375 129.19140625 C-56.92443481 135.79434723 -56.95793517 142.39715771 -57 149 C-53.45897228 148.8949044 -49.91906154 148.76775292 -46.37890625 148.63671875 C-45.38040649 148.60735229 -44.38190674 148.57798584 -43.35314941 148.54772949 C-34.37831966 148.1966132 -28.72420299 146.40724954 -22.0625 140.3125 C-17.0706796 132.2953339 -16.58493349 124.12528924 -16.75805664 114.88427734 C-16.7671405 113.71548538 -16.77622437 112.54669342 -16.7855835 111.34248352 C-16.80583084 108.82110506 -16.83230099 106.29977033 -16.86439705 103.77851486 C-16.91074885 99.78487956 -16.93168006 95.79160729 -16.94200134 91.79776001 C-16.94595057 90.42466534 -16.94993818 89.05157078 -16.95396328 87.67847633 C-16.95596859 86.99143789 -16.9579739 86.30439944 -16.96003997 85.59654164 C-16.98995595 76.3141687 -17.04803193 67.03264086 -17.16772461 57.75097656 C-17.24849779 51.46672859 -17.28635259 45.18376985 -17.27608389 38.89899218 C-17.27247716 35.580728 -17.29749074 32.26662557 -17.36226082 28.9488945 C-17.74530133 8.69210672 -17.74530133 8.69210672 -14.76041794 4.08795929 C-10.38982995 -0.30036064 -5.68378926 -2.97056297 0 0 Z " fill="#0A3156" transform="translate(636,539)"/>
<path d="M0 0 C2.34119243 -0.00963057 4.68147624 -0.04069735 7.02246094 -0.07226562 C21.08977856 -0.17255927 34.6682369 1.50493744 47.93652344 6.42773438 C48.76667969 6.7281665 49.59683594 7.02859863 50.45214844 7.33813477 C68.76654868 14.15169466 84.36548668 24.21602133 98.87402344 37.24023438 C100.07865234 38.31724609 100.07865234 38.31724609 101.30761719 39.41601562 C110.33841295 47.96388113 117.5600369 58.32185691 123.43652344 69.24023438 C123.75886963 69.83852051 124.08121582 70.43680664 124.41333008 71.05322266 C126.47236698 75.04647258 127.76492696 78.91420633 128.87402344 83.24023438 C129.43903564 83.08014893 130.00404785 82.92006348 130.58618164 82.75512695 C144.02686541 79.73022011 158.91970164 82.28703758 171.87402344 86.24023438 C172.86571533 86.52906494 172.86571533 86.52906494 173.87744141 86.82373047 C199.22134659 94.25736303 220.79934648 111.44994936 233.83105469 134.41601562 C244.78447571 154.48975421 246.69348242 177.10914616 240.56738281 198.97460938 C235.91101005 214.18979924 229.11128692 228.70585699 215.87402344 238.24023438 C213.57324219 238.98242188 213.57324219 238.98242188 211.87402344 239.24023438 C208.98792352 234.4987845 206.80374986 229.78677596 204.83105469 224.59960938 C203.84459944 222.02165652 203.84459944 222.02165652 201.99902344 218.92773438 C200.87402344 216.24023438 200.87402344 216.24023438 201.62792969 213.82226562 C202.80180009 211.3898884 204.08381002 209.40537757 205.68652344 207.24023438 C214.80241401 193.87919869 216.70011035 178.22248435 213.82324219 162.55273438 C208.75638513 144.87086282 196.77987562 130.07589557 180.93652344 120.92773438 C160.39465481 109.54411551 139.0403945 109.09841273 116.78271484 114.78271484 C114.16752595 115.40958412 111.53254282 115.84250313 108.87402344 116.24023438 C108.60589844 114.98210937 108.33777344 113.72398437 108.06152344 112.42773438 C105.43765451 100.73739972 101.86572738 90.61195904 95.87402344 80.24023438 C95.00583984 78.71462891 95.00583984 78.71462891 94.12011719 77.15820312 C79.79393137 53.39202479 55.37464378 38.15522031 28.87402344 31.24023438 C20.8567799 29.3668303 13.09052666 28.88641278 4.87402344 28.92773438 C3.10007202 28.93619385 3.10007202 28.93619385 1.2902832 28.94482422 C-30.32521854 29.37794266 -57.4300324 40.23643669 -80.37597656 62.05273438 C-96.97757526 79.32591878 -106.08730959 101.70190368 -109.12597656 125.24023438 C-112.87618704 124.5832632 -116.29655473 123.52806869 -119.87597656 122.24023438 C-125.08367324 120.50013234 -129.65252669 119.43655611 -135.12597656 119.24023438 C-135.75777832 119.20913574 -136.38958008 119.17803711 -137.04052734 119.14599609 C-155.99373029 118.29015598 -172.11430866 123.23090005 -187.12597656 135.24023438 C-187.78597656 136.23023438 -188.44597656 137.22023438 -189.12597656 138.24023438 C-189.78597656 138.24023438 -190.44597656 138.24023438 -191.12597656 138.24023438 C-191.38765625 138.80742187 -191.64933594 139.37460937 -191.91894531 139.95898438 C-193.22378866 142.42509608 -194.7626115 144.51070214 -196.43847656 146.74023438 C-204.72279521 158.44896867 -207.83074613 171.40370934 -205.78222656 185.62695312 C-205.08637659 188.85685673 -204.39276828 191.70835568 -202.90332031 194.67773438 C-201.50851523 197.85505308 -200.92805205 199.74643645 -201.12597656 203.24023438 C-204.07988529 209.23185065 -208.76516913 214.2416857 -213.12597656 219.24023438 C-214.0980107 220.39764041 -215.06707796 221.55754911 -216.03222656 222.72070312 C-217.06863281 223.96787109 -217.06863281 223.96787109 -218.12597656 225.24023438 C-222.15169739 221.60878517 -224.55335201 218.03186587 -226.75097656 213.05273438 C-227.0502002 212.39217041 -227.34942383 211.73160645 -227.65771484 211.05102539 C-235.91120466 192.45011322 -237.74357372 169.21301484 -230.66503906 149.92382812 C-220.22629596 124.93972978 -201.90839946 106.91388359 -177.12597656 96.24023438 C-173.17127752 94.69593127 -169.22616748 93.34015279 -165.12597656 92.24023438 C-164.20836548 91.97315674 -164.20836548 91.97315674 -163.2722168 91.70068359 C-156.23362395 89.8563334 -149.29779322 90.0152385 -142.06347656 90.11523438 C-140.81630859 90.12425781 -139.56914062 90.13328125 -138.28417969 90.14257812 C-135.23124152 90.16597229 -132.17871351 90.19875264 -129.12597656 90.24023438 C-128.87203125 89.08136719 -128.61808594 87.9225 -128.35644531 86.72851562 C-127.24785687 82.31067896 -125.5247245 78.46141242 -123.43847656 74.42773438 C-123.08325928 73.73268799 -122.72804199 73.0376416 -122.36206055 72.3215332 C-106.26139394 41.27204175 -79.10311375 18.17179389 -45.84082031 7.41601562 C-44.61492187 7.02800781 -43.38902344 6.64 -42.12597656 6.24023438 C-40.45853483 5.65912026 -38.7916959 5.07626735 -37.12597656 4.49023438 C-24.94926352 0.50938588 -12.70641412 0.03143855 0 0 Z " fill="#0FAB98" transform="translate(458.1259765625,208.759765625)"/>
<path d="M0 0 C1.3434549 -0.00956978 1.3434549 -0.00956978 2.71405029 -0.01933289 C3.68787659 -0.02044571 4.66170288 -0.02155853 5.66503906 -0.02270508 C6.67221985 -0.02603348 7.67940063 -0.02936188 8.71710205 -0.03279114 C10.85908552 -0.03786512 13.00107693 -0.04019932 15.14306641 -0.04003906 C18.37579022 -0.04219965 21.60815813 -0.0602776 24.84082031 -0.0793457 C52.65683886 -0.15975634 52.65683886 -0.15975634 65.86816406 5.33276367 C66.62935547 5.64101074 67.39054687 5.94925781 68.17480469 6.2668457 C89.28860169 15.08817933 103.6116062 31.47192214 112.56494141 52.19165039 C120.97009449 72.79955313 121.20429819 95.38770489 121.12670898 117.33227539 C121.11805798 121.06604806 121.14734204 124.79835412 121.17871094 128.53198242 C121.18032023 130.94213822 121.17975065 133.35229669 121.17675781 135.76245117 C121.18799179 136.86048065 121.19922577 137.95851013 121.21080017 139.08981323 C121.12545283 148.57844068 118.61374792 158.24591745 111.68066406 165.14526367 C101.15309305 173.01821402 91.06037738 173.43939263 78.39208984 173.38818359 C76.84737569 173.3892578 75.30266193 173.39119854 73.75794983 173.39393616 C69.58276238 173.39876305 65.40768261 173.3911576 61.23250818 173.38098311 C56.85991197 173.3721748 52.48731885 173.37396055 48.11471558 173.37434387 C40.77958379 173.37340898 33.44449352 173.36474556 26.109375 173.35107422 C17.62276104 173.33531542 9.1361924 173.33007742 0.64956486 173.33080977 C-7.51646802 173.33141932 -15.68248612 173.3263228 -23.84851456 173.31801796 C-27.32455689 173.31448309 -30.80059399 173.31265444 -34.27663803 173.31212425 C-38.36258932 173.31112228 -42.44850233 173.30503767 -46.53444099 173.29495811 C-48.03650872 173.29202972 -49.53858085 173.29080843 -51.04065132 173.29138565 C-53.08454926 173.29187402 -55.12844556 173.28561954 -57.17233276 173.27897644 C-58.31787062 173.2773006 -59.46340847 173.27562475 -60.64365959 173.27389812 C-63.31933594 173.14526367 -63.31933594 173.14526367 -65.31933594 172.14526367 C-65.22732732 162.49924302 -62.36657351 153.79485759 -59.39160156 144.72705078 C-58.56515885 142.19496575 -57.7696711 139.65445329 -56.97558594 137.11206055 C-56.45138095 135.48841954 -55.92540185 133.86535001 -55.39746094 132.24291992 C-55.04714813 131.11165428 -55.04714813 131.11165428 -54.6897583 129.95753479 C-53.13688526 125.33152879 -51.61105758 122.82234053 -47.31933594 120.14526367 C-44.48223626 119.19956378 -42.75801108 119.02162883 -39.82051086 119.02500916 C-38.89924408 119.02363449 -37.97797729 119.02225983 -37.02879333 119.02084351 C-36.02034866 119.02443878 -35.01190399 119.02803406 -33.97290039 119.03173828 C-32.90932312 119.03159225 -31.84574585 119.03144623 -30.74993896 119.03129578 C-27.22747777 119.03199355 -23.70506917 119.03977966 -20.18261719 119.04760742 C-17.74309824 119.04947208 -15.30357891 119.05089576 -12.86405945 119.05189514 C-6.43772348 119.05571654 -0.01141006 119.06554363 6.41491699 119.07659912 C12.97029312 119.08682134 19.52567289 119.0913945 26.08105469 119.09643555 C38.94760077 119.10716621 51.81413122 119.12404639 64.68066406 119.14526367 C64.56897517 114.74898929 64.43879904 110.35343672 64.30566406 105.95776367 C64.25925781 104.11794922 64.25925781 104.11794922 64.21191406 102.2409668 C63.73509465 87.18142044 62.41887142 73.18988856 52.68066406 61.14526367 C52.02066406 60.81526367 51.36066406 60.48526367 50.68066406 60.14526367 C50.68066406 59.48526367 50.68066406 58.82526367 50.68066406 58.14526367 C49.95234375 57.85651367 49.22402344 57.56776367 48.47363281 57.27026367 C46.76043425 56.58019208 45.05303203 55.87522367 43.35644531 55.14526367 C31.04771529 49.93694155 18.41162147 49.17663801 5.17675781 48.93432617 C4.43945435 48.91998032 3.70215088 48.90563446 2.94250488 48.89085388 C-0.11355529 48.83332848 -3.16941088 48.77827762 -6.22583008 48.74389648 C-8.487916 48.71639968 -10.74902934 48.67063274 -13.01074219 48.62182617 C-14.04661217 48.61694687 -14.04661217 48.61694687 -15.10340881 48.61196899 C-17.79039712 48.54260533 -19.92677941 48.34545754 -22.33862305 47.11547852 C-25.60277887 40.5579138 -20.38181696 30.0906793 -18.30102539 23.57177734 C-17.631894 21.45794709 -16.99218259 19.33653347 -16.35253906 17.21362305 C-15.92268034 15.85303275 -15.49109759 14.49298569 -15.05761719 13.13354492 C-14.67645752 11.9119165 -14.29529785 10.69028809 -13.90258789 9.43164062 C-11.08842571 3.59024708 -6.57318637 0.03178515 0 0 Z " fill="#06264D" transform="translate(1471.3193359375,403.854736328125)"/>
<path d="M0 0 C0.66 0.66 1.32 1.32 2 2 C1.57390508 7.71514466 0.4194239 13.28493299 -0.7421875 18.890625 C-0.91122589 19.71649109 -1.08026428 20.54235718 -1.25442505 21.39324951 C-1.61099247 23.13145162 -1.96907834 24.86934287 -2.32861328 26.60693359 C-2.87045004 29.22799021 -3.40628575 31.8502212 -3.94140625 34.47265625 C-5.59542239 42.53298941 -7.29136772 50.55961074 -9.38500977 58.52001953 C-10.2476176 61.99853098 -10.87257769 65.50717156 -11.47265625 69.0390625 C-12 71 -12 71 -14 73 C-16.27734375 73.015625 -16.27734375 73.015625 -19 72 C-21.03785772 69.95347054 -22.78689283 68.0009084 -24.5625 65.75 C-25.03107422 65.17636719 -25.49964844 64.60273437 -25.98242188 64.01171875 C-27.33469708 62.35116262 -28.66946801 60.67800222 -30 59 C-31.15822266 57.55367187 -31.15822266 57.55367187 -32.33984375 56.078125 C-32.88769531 55.39234375 -33.43554688 54.7065625 -34 54 C-38.51324589 55.51007099 -42.00127901 58.02881327 -45.75 60.875 C-47.09142081 61.87637736 -48.43390887 62.87632631 -49.77734375 63.875 C-50.4719873 64.39191406 -51.16663086 64.90882813 -51.88232422 65.44140625 C-55.32155645 67.9726558 -58.81616173 70.42354443 -62.3125 72.875 C-71.2681012 79.16793187 -80.13741651 85.57700938 -89 92 C-103.81517649 102.73702038 -118.67676904 113.39707288 -133.78320312 123.72192383 C-137.43522986 126.22182308 -141.06643271 128.74738288 -144.67578125 131.30859375 C-153.65739604 137.6776516 -162.71797157 143.91688015 -171.9375 149.9375 C-172.8670752 150.55923096 -173.79665039 151.18096191 -174.75439453 151.8215332 C-175.62821777 152.38445068 -176.50204102 152.94736816 -177.40234375 153.52734375 C-178.17054443 154.02999756 -178.93874512 154.53265137 -179.73022461 155.05053711 C-182.60973472 156.25505629 -184.06008278 155.93820112 -187 155 C-189.8125 153.27734375 -189.8125 153.27734375 -193 150.9375 C-193.59248535 150.5048584 -194.1849707 150.0722168 -194.79541016 149.62646484 C-202.2086599 144.1775857 -209.50046236 138.56228342 -216.8046875 132.96875 C-221.98724955 129.00236758 -227.19642062 125.0726501 -232.44018555 121.1875 C-235.58736471 118.84813337 -238.67635457 116.46732991 -241.69921875 113.96875 C-242.28832031 113.48970215 -242.87742187 113.0106543 -243.484375 112.51708984 C-245.07747924 111.21492809 -246.65461655 109.8933001 -248.23046875 108.5703125 C-249.14441406 108.05210937 -250.05835938 107.53390625 -251 107 C-254.81009579 108.13873612 -257.98555189 110.11308168 -261.32421875 112.23828125 C-262.34386719 112.88700195 -263.36351562 113.53572266 -264.4140625 114.20410156 C-266.03441406 115.24775879 -266.03441406 115.24775879 -267.6875 116.3125 C-268.24356934 116.6693689 -268.79963867 117.02623779 -269.37255859 117.3939209 C-278.78783318 123.4436063 -287.9122372 129.82758986 -296.91455078 136.47509766 C-300.38628287 139.01366458 -303.91427119 141.47119909 -307.4375 143.9375 C-335.06998476 163.38091408 -359.73222922 184.54058013 -383.51147461 208.49560547 C-385.23116262 210.2262598 -386.95489788 211.95289855 -388.68188477 213.67626953 C-390.20383678 215.20190821 -391.70660245 216.74697973 -393.1875 218.3125 C-395 220 -395 220 -397 220 C-402.33870335 207.95735237 -406.1749323 196.30467847 -404 183 C-401.61639117 178.91930562 -398.49900539 176.13096976 -395 173 C-393.50271674 171.32855358 -392.02331332 169.64091267 -390.5625 167.9375 C-364.78307651 139.34333876 -328.93779414 117.0508228 -297 96 C-294.83939784 94.56275503 -292.6805496 93.12290187 -290.52197266 91.68261719 C-288.19643537 90.1309619 -285.86970786 88.58110234 -283.54296875 87.03125 C-280.6454882 85.10000581 -277.75218917 83.16279216 -274.86328125 81.21875 C-271.255245 78.79243991 -267.63205213 76.39016676 -264 74 C-263.02933594 73.35546875 -262.05867187 72.7109375 -261.05859375 72.046875 C-260.19363281 71.49515625 -259.32867187 70.9434375 -258.4375 70.375 C-257.71433594 69.90835938 -256.99117187 69.44171875 -256.24609375 68.9609375 C-253.17057198 67.64514906 -251.32887575 67.51154598 -248 68 C-245.42214307 69.59850944 -243.21472475 71.1687621 -240.875 73.0625 C-239.46019288 74.16607963 -238.0448 75.26890861 -236.62890625 76.37109375 C-235.88141113 76.96003418 -235.13391602 77.54897461 -234.36376953 78.15576172 C-230.23113134 81.38009026 -226.01553673 84.49339573 -221.8125 87.625 C-216.23017947 91.80752255 -210.65654084 96.00048424 -205.125 100.25 C-203.62839844 101.39662109 -203.62839844 101.39662109 -202.1015625 102.56640625 C-199.79330352 104.37754648 -197.52721744 106.21323405 -195.2734375 108.08984375 C-194.64421387 108.60579102 -194.01499023 109.12173828 -193.36669922 109.65332031 C-192.15200553 110.65163776 -190.94722896 111.6621873 -189.75439453 112.68652344 C-187.34877917 114.65147477 -185.69778455 115.97345986 -182.53515625 116.09375 C-179.03010436 114.58155504 -176.02299022 112.52700173 -172.9375 110.3125 C-172.24342041 109.82483154 -171.54934082 109.33716309 -170.83422852 108.8347168 C-169.3323795 107.77865919 -167.8330335 106.71903488 -166.3359375 105.65625 C-163.20109482 103.43355218 -160.05024413 101.23409585 -156.89990234 99.03344727 C-154.38191748 97.27365396 -151.86661854 95.51006976 -149.3515625 93.74609375 C-143.68259564 89.77360992 -137.9976239 85.8243087 -132.3125 81.875 C-118.21231465 72.07268209 -104.19529924 62.16785451 -90.28515625 52.09765625 C-84.79058195 48.12152905 -79.27030916 44.18176251 -73.74707031 40.24560547 C-70.53807715 37.95769559 -67.33174672 35.66605685 -64.125 33.375 C-62.94011467 32.52863112 -61.75521987 31.68227552 -60.5703125 30.8359375 C-59.72210937 30.23007812 -58.87390625 29.62421875 -58 29 C-59.81564615 24.35150834 -63.57118989 21.41349636 -67.1875 18.15429688 C-69.63723797 15.83093428 -70.93266878 14.57074949 -71.3359375 11.15234375 C-71.22507812 10.44207031 -71.11421875 9.73179687 -71 9 C-63.03502632 5.85085292 -55.23626389 5.12082802 -46.75 4.4375 C-38.05472496 3.70676044 -29.42464863 2.86908421 -20.80883789 1.44799805 C-13.91711376 0.3487965 -6.97803127 -0.3738231 0 0 Z " fill="#FC8E0B" transform="translate(674,465)"/>
<path d="M0 0 C24.42 0 48.84 0 74 0 C75.65 8.58 77.3 17.16 79 26 C80.03595856 30.69806036 81.08670155 35.38100389 82.1875 40.0625 C89.41406555 72.04704339 89.41406555 72.04704339 81.625 85.375 C79.38955363 88.63861903 76.97480258 91.3711047 74 94 C73.18982422 94.74056641 73.18982422 94.74056641 72.36328125 95.49609375 C65.0340811 101.65753874 55.18193625 104.8620163 45.59765625 104.37890625 C33.46356207 102.60897071 24.00715846 97.61557716 16.37515259 87.96566772 C11.99756987 81.70827263 10.33894092 74.99644489 9.4765625 67.5234375 C9.2365932 65.66626474 8.99600589 63.80917175 8.75488281 61.95214844 C8.63342896 60.98257202 8.5119751 60.01299561 8.38684082 59.01403809 C7.72103256 53.82644842 6.96006819 48.652654 6.2109375 43.4765625 C5.90581616 41.34381202 5.60113045 39.21099918 5.296875 37.078125 C5.14541016 36.01787109 4.99394531 34.95761719 4.83789062 33.86523438 C3.22526042 22.57682292 1.61263021 11.28841146 0 0 Z " fill="#072846" transform="translate(480,402)"/>
<path d="M0 0 C23.1 0 46.2 0 70 0 C70 12.3640803 70 12.3640803 69.23046875 16.55078125 C69.06538818 17.4850293 68.90030762 18.41927734 68.73022461 19.38183594 C68.55112549 20.34895508 68.37202637 21.31607422 68.1875 22.3125 C67.81501483 24.42791291 67.44528206 26.54381208 67.078125 28.66015625 C66.89443359 29.7186377 66.71074219 30.77711914 66.52148438 31.86767578 C65.72550797 36.64875129 65.07313253 41.44539111 64.4375 46.25 C64.31568359 47.14678467 64.19386719 48.04356934 64.06835938 48.9675293 C63.46246336 53.4408725 62.88946035 57.9154764 62.359375 62.3984375 C60.86696034 74.39204458 58.63033897 85.86496541 49.25390625 94.40234375 C39.47354032 101.33504681 29.04335126 105.18737266 17 104 C6.25725143 101.64736641 -3.44131221 96.44787312 -9.75390625 87.23828125 C-15.24893659 77.3678976 -16.71898564 68.31070322 -14.0859375 57.4296875 C-13.87442047 56.5127713 -13.66290344 55.5958551 -13.44497681 54.65115356 C-12.76654746 51.72293256 -12.07106944 48.7990721 -11.375 45.875 C-10.92986583 43.96510531 -10.4858461 42.05495052 -10.04296875 40.14453125 C-8.93739652 35.38991108 -7.81460264 30.63956629 -6.6854248 25.89050293 C-5.97964363 22.9141552 -5.28074947 19.93624971 -4.58300781 16.95800781 C-4.13097031 15.03708327 -3.67882595 13.11618386 -3.2265625 11.1953125 C-3.01728119 10.29892059 -2.80799988 9.40252869 -2.59237671 8.47897339 C-2.39769806 7.65591705 -2.20301941 6.83286072 -2.00244141 5.98486328 C-1.83241608 5.26114532 -1.66239075 4.53742737 -1.48721313 3.79177856 C-1 2 -1 2 0 0 Z " fill="#072847" transform="translate(353,402)"/>
<path d="M0 0 C0.33 0 0.66 0 1 0 C1.0928125 1.36125 1.0928125 1.36125 1.1875 2.75 C2.20413552 6.81654207 3.69602021 7.56134825 7 10 C7.46535156 10.78246094 7.93070313 11.56492187 8.41015625 12.37109375 C12.91155186 19.81443343 20.90404103 25.13919619 29 28 C35.25217509 29.48713006 41.30975269 30.03623625 47.72290039 30.01635742 C49.20603477 30.01281502 49.20603477 30.01281502 50.71913147 30.00920105 C51.47181808 30.0061647 52.2245047 30.00312836 53 30 C53.34877851 43.31727582 53.61468109 56.63345199 53.77718258 69.95437813 C53.85521118 76.14132002 53.96088186 82.32512027 54.1315918 88.51025391 C54.29555045 94.48874212 54.38445641 100.46422576 54.42315865 106.44478989 C54.45070627 108.71680873 54.50450746 110.98867747 54.58595085 113.25940323 C55.22878783 131.93902197 55.22878783 131.93902197 49.80252075 138.38226318 C46.75202897 141.44907873 43.45727318 144.05449269 39.93852425 146.56063461 C36.76866393 148.91427411 33.9706548 151.6463833 31.125 154.375 C26.12680115 159 26.12680115 159 25 159 C25.00498599 158.39315841 25.00997198 157.78631681 25.01510906 157.16108608 C25.13276889 142.37918217 25.18948062 127.59798192 25.17878246 112.81566525 C25.1750707 105.66675712 25.19180674 98.51899991 25.25708008 91.37036133 C25.31393713 85.13773251 25.33202096 78.90638741 25.3040064 72.67354113 C25.29051842 69.37404206 25.30191264 66.07770488 25.34822655 62.77842522 C25.39671367 59.08970676 25.37664705 55.40723273 25.34057617 51.71850586 C25.37077347 50.63093491 25.40097076 49.54336395 25.43208313 48.4228363 C25.35843094 45.25929049 25.17965354 42.94137972 24 40 C21.3939011 37.66881813 18.82933729 36.08512694 15.73143482 34.47327518 C7.3798924 29.96863898 2.79286515 20.73896513 0 12 C-0.43060676 7.93416568 -0.39556625 4.06554204 0 0 Z " fill="#07284A" transform="translate(245,475)"/>
<path d="M0 0 C6.03408561 6.03408561 9.70949178 12.89495872 10.125 21.5 C9.93201835 29.52080001 6.83870204 36.43810387 1.390625 42.28515625 C-5.86849336 48.76651193 -13.97222342 50.39462791 -23.44140625 50.1328125 C-30.22973945 49.45049798 -34.87669466 46.70138439 -40.0625 42.4375 C-47.03875977 33.86666657 -48.92662218 27.83128406 -48.25 16.75 C-46.80766405 8.01658968 -41.49311681 2.01418874 -34.5625 -3.1875 C-23.68276001 -9.96167773 -9.90560905 -6.85772934 0 0 Z " fill="#07264D" transform="translate(890.25,369.25)"/>
<path d="M0 0 C0.671875 1.80078125 0.671875 1.80078125 1 4 C-0.046875 5.60546875 -0.046875 5.60546875 -1.75 7.1875 C-2.39710937 7.79078125 -3.04421875 8.3940625 -3.7109375 9.015625 C-7.16445149 12.00945624 -10.69951801 14.89455507 -14.26171875 17.7578125 C-16.6467143 19.71071899 -18.92180087 21.72441782 -21.1875 23.8125 C-27.74160869 29.69140744 -34.89179109 34.81916919 -42 40 C-43.06178467 40.77512939 -43.06178467 40.77512939 -44.14501953 41.56591797 C-93.51466943 77.44142218 -93.51466943 77.44142218 -116.25 77.0625 C-118.10625 77.0315625 -118.10625 77.0315625 -120 77 C-119.64435264 71.704806 -116.77177519 69.11401216 -113.25 65.5 C-112.46109375 64.66662109 -112.46109375 64.66662109 -111.65625 63.81640625 C-103.1260828 54.84283927 -103.1260828 54.84283927 -98.4375 50.9375 C-96.58494022 49.39298711 -94.8536388 47.84926048 -93.171875 46.1171875 C-72.05075966 25.5278988 -40.30081596 9.5665376 -12 2 C-10.76121094 1.63261719 -9.52242187 1.26523438 -8.24609375 0.88671875 C-5.30076555 0.08215858 -3.02549428 -0.18336329 0 0 Z " fill="#08A48B" transform="translate(1320,242)"/>
<path d="M0 0 C25.45714286 0 25.45714286 0 33.3125 5.1875 C38.83220524 10.96393572 40.25964326 15.44003715 40.5 23.5 C40.24553208 31.76610315 38.69557866 36.70521406 32.6875 42.375 C23.9724568 49.92944422 10.03090354 47 0 47 C0 31.49 0 15.98 0 0 Z " fill="#0DA58A" transform="translate(1040,640)"/>
<path d="M0 0 C10 0 10 0 12.33984375 1.80859375 C12.86707031 2.67613281 13.39429688 3.54367187 13.9375 4.4375 C14.56527344 5.42234375 15.19304687 6.4071875 15.83984375 7.421875 C16.34233643 8.26008789 16.34233643 8.26008789 16.85498047 9.11523438 C18.61126097 12.00616944 20.48365057 14.81953635 22.34204102 17.64550781 C24.58374859 21.08250667 26.78802588 24.54379044 29 28 C29.33 18.76 29.66 9.52 30 0 C33.3 0 36.6 0 40 0 C40 15.51 40 31.02 40 47 C30 47 30 47 27.9140625 45.4453125 C27.48867187 44.67960938 27.06328125 43.91390625 26.625 43.125 C26.09003906 42.23296875 25.55507812 41.3409375 25.00390625 40.421875 C24.01197266 38.72804688 24.01197266 38.72804688 23 37 C21.4825861 34.68014163 19.93764166 32.38040388 18.38647461 30.08300781 C15.90629352 26.40074726 13.45629267 22.69823841 11 19 C10.67 28.24 10.34 37.48 10 47 C6.7 47 3.4 47 0 47 C0 31.49 0 15.98 0 0 Z " fill="#0EA48A" transform="translate(1481,640)"/>
<path d="M0 0 C1.37478516 0.01740234 1.37478516 0.01740234 2.77734375 0.03515625 C3.69644531 0.04417969 4.61554688 0.05320312 5.5625 0.0625 C6.27277344 0.07410156 6.98304687 0.08570313 7.71484375 0.09765625 C21.99699899 33.80582879 21.99699899 33.80582879 26.71484375 47.09765625 C23.08484375 47.09765625 19.45484375 47.09765625 15.71484375 47.09765625 C12.71484375 40.47265625 12.71484375 40.47265625 12.71484375 37.09765625 C6.11484375 37.09765625 -0.48515625 37.09765625 -7.28515625 37.09765625 C-8.27515625 40.39765625 -9.26515625 43.69765625 -10.28515625 47.09765625 C-13.91515625 47.09765625 -17.54515625 47.09765625 -21.28515625 47.09765625 C-17.63320245 37.07080064 -13.74937251 27.13830299 -9.79675293 17.22686768 C-9.24632476 15.84647602 -8.69676724 14.46573688 -8.14807129 13.08465576 C-7.36712339 11.12041608 -6.58258287 9.15765225 -5.796875 7.1953125 C-5.33756592 6.04554932 -4.87825684 4.89578613 -4.4050293 3.71118164 C-2.86732534 0.12253527 -2.86732534 0.12253527 0 0 Z " fill="#0AA389" transform="translate(1407.28515625,639.90234375)"/>
<path d="M0 0 C3.3 0 6.6 0 10 0 C10.33 4.95 10.66 9.9 11 15 C12.98195646 12.87754286 14.96064257 10.75219732 16.9375 8.625 C17.50146484 8.02171875 18.06542969 7.4184375 18.64648438 6.796875 C19.18466797 6.21679688 19.72285156 5.63671875 20.27734375 5.0390625 C20.77484131 4.50490723 21.27233887 3.97075195 21.78491211 3.42041016 C23.10293508 1.9954525 23.10293508 1.9954525 24 0 C28.29 0 32.58 0 37 0 C34.22573398 3.89896846 31.42693681 7.60436037 28.1171875 11.0625 C27.61485596 11.5894043 27.11252441 12.11630859 26.5949707 12.65917969 C25.58081165 13.71195337 24.55595776 14.75453756 23.52026367 15.78613281 C21.9077582 17.40824104 21.9077582 17.40824104 20 20 C20.34171385 23.16612403 21.63214488 25.15770097 23.546875 27.64453125 C24.0625 28.32193359 24.578125 28.99933594 25.109375 29.69726562 C25.65078125 30.39529297 26.1921875 31.09332031 26.75 31.8125 C27.80805911 33.19342274 28.86535758 34.57492863 29.921875 35.95703125 C30.43556641 36.62686035 30.94925781 37.29668945 31.47851562 37.98681641 C33.71598896 40.94737563 35.86003189 43.9683785 38 47 C33.56603085 48.19319436 29.29175291 48.88703112 25 47 C19.31335323 41.95109497 15.16827705 35.29928525 11 29 C10.67 34.94 10.34 40.88 10 47 C6.7 47 3.4 47 0 47 C0 31.49 0 15.98 0 0 Z " fill="#0AA388" transform="translate(1218,640)"/>
<path d="M0 0 C3.3 0 6.6 0 10 0 C10.33 4.95 10.66 9.9 11 15 C12.79419526 13.06478939 14.58541329 11.1269646 16.375 9.1875 C16.88289063 8.64029297 17.39078125 8.09308594 17.9140625 7.52929688 C20.15216303 5.09977985 22.16379112 2.75431332 24 0 C27.0390625 -0.29296875 27.0390625 -0.29296875 30.625 -0.1875 C31.81351563 -0.16042969 33.00203125 -0.13335938 34.2265625 -0.10546875 C35.14179687 -0.07066406 36.05703125 -0.03585937 37 0 C31.63559144 7.5995788 25.36524681 14.24336261 19 21 C20.33911353 23.89462526 21.86033498 26.23099479 23.8984375 28.6796875 C24.46046875 29.36160156 25.0225 30.04351563 25.6015625 30.74609375 C26.18679688 31.44863281 26.77203125 32.15117188 27.375 32.875 C31.17632571 37.44847 34.80486427 41.97907242 38 47 C33.36585939 48.00904674 29.60766543 48.23131674 25 47 C20.01336387 42.96866344 16.47828858 37.32298458 13 32 C12.34 31.01 11.68 30.02 11 29 C10.67 34.94 10.34 40.88 10 47 C6.7 47 3.4 47 0 47 C0 31.49 0 15.98 0 0 Z " fill="#0DA489" transform="translate(1304,640)"/>
<path d="M0 0 C3.3 0 6.6 0 10 0 C10.01981934 0.9787207 10.03963867 1.95744141 10.06005859 2.96582031 C10.13624624 6.60393597 10.22494295 10.24165853 10.31738281 13.87939453 C10.35561829 15.45255765 10.39048066 17.02580658 10.421875 18.59912109 C10.46764422 20.86326723 10.52561761 23.12682547 10.5859375 25.390625 C10.59748871 26.09181458 10.60903992 26.79300415 10.62094116 27.51544189 C10.72959973 31.1267836 10.90958263 33.98184965 13 37 C15.84083641 38.42041821 17.85477278 38.31452272 21 38 C23.31249696 36.52588426 23.31249696 36.52588426 25 34 C25.41792995 31.26289523 25.60472211 28.91013895 25.609375 26.171875 C25.62591125 25.42286926 25.64244751 24.67386353 25.65948486 23.90216064 C25.7079351 21.51802346 25.72932772 19.13452389 25.75 16.75 C25.7781624 15.13017631 25.80809022 13.51038228 25.83984375 11.890625 C25.91369244 7.92713586 25.96328457 3.96400002 26 0 C29.3 0 32.6 0 36 0 C36.09920549 5.15944873 36.17162646 10.31833689 36.21972656 15.47851562 C36.2397871 17.23219479 36.26704251 18.98580753 36.30175781 20.73925781 C36.35052302 23.26644318 36.37302392 25.79274091 36.390625 28.3203125 C36.41127014 29.09867462 36.43191528 29.87703674 36.45318604 30.6789856 C36.45532423 35.91835819 35.46176744 38.84322698 32 43 C25.68968807 47.76492942 20.72305661 48.64554425 13 48 C7.96260953 46.79292719 4.71844439 44.43005753 2 40 C0.26621635 34.96010233 -0.27490303 30.38468023 -0.1953125 25.09765625 C-0.1924826 24.3750914 -0.18965271 23.65252655 -0.18673706 22.9080658 C-0.17564386 20.62603384 -0.15056088 18.34441103 -0.125 16.0625 C-0.11495611 14.50456301 -0.10583274 12.94661979 -0.09765625 11.38867188 C-0.07574033 7.59229301 -0.04128738 3.7962156 0 0 Z " fill="#0AA28A" transform="translate(1130,640)"/>
<path d="M0 0 C11.48 0 11.48 0 16 3 C18.86543762 6.57374805 19.8842238 10.05725094 20.4375 14.5625 C19.81681119 19.43934064 18.65387717 23.44949015 15 26.875 C9.63894352 29.89059427 7.10042905 29 0 29 C0 19.43 0 9.86 0 0 Z " fill="#F9FDFC" transform="translate(1050,649)"/>
<path d="M0 0 C-0.33 18.48 -0.66 36.96 -1 56 C-2.98 56 -4.96 56 -7 56 C-7 37.52 -7 19.04 -7 0 C-5 -1 -5 -1 0 0 Z " fill="#F1F4F6" transform="translate(512,632)"/>
<path d="M0 0 C0.66 0 1.32 0 2 0 C3.65 4.62 5.3 9.24 7 14 C3.04 14 -0.92 14 -5 14 C-1.85714286 4.42857143 -1.85714286 4.42857143 0 0 Z " fill="#EBF7F6" transform="translate(1409,654)"/>
<path d="M0 0 C0 2.125 0 2.125 -1 5 C-2.82674756 6.66189473 -4.7615662 8.03240611 -6.7890625 9.44140625 C-10.05663042 11.74486844 -12.99288969 14.36877848 -16 17 C-14.52284691 12.02384051 -11.62321342 9.20389699 -8 5.6875 C-7.4534375 5.13771484 -6.906875 4.58792969 -6.34375 4.02148438 C-2.26731366 0 -2.26731366 0 0 0 Z " fill="#1F3A59" transform="translate(302,663)"/>
<path d="M0 0 C0.66 0.33 1.32 0.66 2 1 C-2.29 5.29 -6.58 9.58 -11 14 C-11.66 13.67 -12.32 13.34 -13 13 C-9.13242719 8.04467233 -4.81123996 4.03523352 0 0 Z " fill="#E4F6F5" transform="translate(275,340)"/>
<path d="M0 0 C1.98 0.99 1.98 0.99 4 2 C3.43393721 6.69023454 2.81462495 11.34500026 2 16 C-0.29521747 12.55717379 -0.12718255 11.91202754 0.4375 8 C0.90286106 4.7081828 1.07131052 3.21393157 0 0 Z " fill="#FAC548" transform="translate(672,465)"/>
<path d="M0 0 C0 0.66 0 1.32 0 2 C-3.3 2 -6.6 2 -10 2 C-10.33 1.34 -10.66 0.68 -11 0 C-7.01803543 -1.05404945 -4.01804691 -0.84098656 0 0 Z " fill="#2E3C55" transform="translate(380,504)"/>
<path d="M0 0 C2.0625 0.4375 2.0625 0.4375 4 1 C3.690625 1.598125 3.38125 2.19625 3.0625 2.8125 C1.89790296 5.08956772 1.89790296 5.08956772 1 8 C-1 6 -1 6 -1.1875 3.4375 C-1 1 -1 1 0 0 Z " fill="#FBBC2E" transform="translate(604,473)"/>
<path d="M0 0 C0.66 0.33 1.32 0.66 2 1 C0.71451591 2.33929505 -0.57858155 3.67128643 -1.875 5 C-2.59429688 5.7425 -3.31359375 6.485 -4.0546875 7.25 C-6 9 -6 9 -8 9 C-6.4169423 4.7257442 -3.49431596 2.73468206 0 0 Z " fill="#18325C" transform="translate(1218,371)"/>
<path d="M0 0 C0.99 0 1.98 0 3 0 C2.67 0.99 2.34 1.98 2 3 C1.34 3 0.68 3 0 3 C-0.33 4.32 -0.66 5.64 -1 7 C-1.33 7 -1.66 7 -2 7 C-2.125 4.625 -2.125 4.625 -2 2 C-1.34 1.34 -0.68 0.68 0 0 Z " fill="#152D57" transform="translate(1036,325)"/>
<path d="M0 0 C2.97 0.495 2.97 0.495 6 1 C4.515 2.485 4.515 2.485 3 4 C2.01 3.67 1.02 3.34 0 3 C0 2.01 0 1.02 0 0 Z " fill="#38C8C6" transform="translate(669,444)"/>
</svg>
