<?xml version="1.0" encoding="UTF-8"?>
<svg version="1.1" xmlns="http://www.w3.org/2000/svg" width="1774" height="887">
<path d="M0 0 C585.42 0 1170.84 0 1774 0 C1774 292.71 1774 585.42 1774 887 C1188.58 887 603.16 887 0 887 C0 594.29 0 301.58 0 0 Z " fill="#FDFDFD" transform="translate(0,0)"/>
<path d="M0 0 C2 2 2 2 2.08203125 3.86328125 C0.97279211 13.9428891 -0.48586415 23.97424293 -2 34 C-2.17660156 35.19625 -2.35320312 36.3925 -2.53515625 37.625 C-4.02374398 46.83172746 -4.02374398 46.83172746 -7 50 C-8.69873047 50.88085937 -8.69873047 50.88085937 -10.8046875 51.78125 C-11.61333252 52.12986084 -12.42197754 52.47847168 -13.25512695 52.83764648 C-14.16093506 53.22122314 -15.06674316 53.6047998 -16 54 C-16.98121826 54.41902588 -17.96243652 54.83805176 -18.97338867 55.26977539 C-21.15720349 56.20115493 -23.34181508 57.13066784 -25.52709961 58.05859375 C-53.21468059 69.77176225 -53.21468059 69.77176225 -79.9375 83.5 C-81.28896118 84.25700195 -81.28896118 84.25700195 -82.66772461 85.02929688 C-83.48764893 85.50431641 -84.30757324 85.97933594 -85.15234375 86.46875 C-85.87413818 86.88576172 -86.59593262 87.30277344 -87.33959961 87.73242188 C-89.30882674 88.98952262 -89.30882674 88.98952262 -90 92 C-89.35313232 92.15710449 -88.70626465 92.31420898 -88.03979492 92.47607422 C-80.50163549 94.40701151 -73.45954364 97.06501437 -66.3125 100.125 C-65.17417725 100.61073486 -64.03585449 101.09646973 -62.86303711 101.59692383 C-49.56144914 107.36770853 -37.47233734 114.07308751 -26 123 C-24.7934375 123.90105469 -24.7934375 123.90105469 -23.5625 124.8203125 C-18.41598885 128.76267201 -13.72729799 133.07108614 -9.125 137.625 C-8.57730957 138.16342529 -8.02961914 138.70185059 -7.46533203 139.2565918 C-4.15026234 142.59774426 -1.49980013 145.98485712 1 150 C1.35288086 150.55010742 1.70576172 151.10021484 2.06933594 151.66699219 C15.95139658 173.38432632 19.22021115 194.67934099 19.125 220.0625 C19.12278442 220.84336975 19.12056885 221.6242395 19.11828613 222.42877197 C19.09999243 227.95276544 19.05577265 233.47627062 19 239 C18.9937561 239.70739319 18.98751221 240.41478638 18.9810791 241.14361572 C18.94007434 245.55528354 18.85749107 249.96448785 18.75 254.375 C18.73598145 255.47207275 18.72196289 256.56914551 18.70751953 257.69946289 C18.52064458 263.55255356 18.20577976 267.56056581 14 272 C8.07434959 276.22694747 3.46001312 276.57247189 -3.70515442 276.50793457 C-4.77240948 276.51417453 -5.83966454 276.5204145 -6.93926066 276.52684355 C-10.51026994 276.54277897 -14.08059715 276.53016608 -17.65161133 276.51757812 C-20.21454262 276.52299932 -22.7774708 276.53012196 -25.34039307 276.53881836 C-31.57866329 276.55516939 -37.81668179 276.55276718 -44.05495534 276.5411678 C-49.13235796 276.53212002 -54.20970672 276.53091531 -59.2871151 276.53526306 C-60.37277694 276.53618246 -60.37277694 276.53618246 -61.48037135 276.53712043 C-62.95102847 276.53839942 -64.42168557 276.53969628 -65.89234265 276.5410108 C-79.68232148 276.55241534 -93.47219394 276.53930954 -107.26215532 276.51780933 C-119.06178663 276.49998009 -130.86126029 276.50300811 -142.66088867 276.52148438 C-156.38576289 276.54296543 -170.11054354 276.55127298 -183.83543223 276.53903532 C-185.3039253 276.53776126 -186.77241839 276.53650377 -188.24091148 276.53526306 C-188.96327475 276.53464596 -189.68563802 276.53402886 -190.42989108 276.53339306 C-195.48804649 276.52995864 -200.54614198 276.53572787 -205.6042881 276.54518127 C-212.43914666 276.55767482 -219.27370585 276.5485815 -226.10853577 276.52560425 C-228.60527751 276.5203536 -231.10204441 276.52176769 -233.59877586 276.53065491 C-247.627435 276.57595074 -260.46915528 275.83296398 -274 272 C-275.16408795 271.6788044 -276.32817591 271.3576088 -277.52753925 271.02667999 C-293.70527995 266.36131249 -307.66571914 254.21997359 -315.87890625 239.671875 C-325.27136167 221.92193208 -326.30828543 203.76892467 -326.2746582 184.05322266 C-326.27901933 182.33146446 -326.28420706 180.60970819 -326.29014587 178.88795471 C-326.30337956 174.27111621 -326.30413352 169.65436031 -326.30158257 165.03750658 C-326.30050466 161.17224431 -326.30541571 157.30699821 -326.310188 153.44173944 C-326.32122342 144.33256628 -326.32175084 135.2234344 -326.31567383 126.11425781 C-326.30960375 116.72027308 -326.32203511 107.32643698 -326.3432439 97.93247759 C-326.36082947 89.84552101 -326.3668671 81.75861194 -326.36360615 73.67163694 C-326.36179232 68.85000568 -326.36444191 64.02848111 -326.37832069 59.20686722 C-326.39084901 54.68736144 -326.38900277 50.16809015 -326.37590981 45.64858818 C-326.3735356 43.98889908 -326.37630874 42.32919367 -326.38453293 40.66952324 C-326.39492867 38.40942137 -326.38695942 36.15011756 -326.3742218 33.89004517 C-326.37438954 32.62438028 -326.37455729 31.3587154 -326.37473011 30.05469704 C-326 27 -326 27 -324.65776348 25.14505577 C-322.14877435 23.41203866 -319.51088812 22.59128613 -316.625 21.625 C-315.36276992 21.19420363 -314.10106199 20.76187475 -312.83984375 20.328125 C-312.20030762 20.10962891 -311.56077148 19.89113281 -310.90185547 19.66601562 C-307.96960218 18.63916235 -305.08073631 17.50639512 -302.1875 16.375 C-297.90807159 14.71394012 -293.62489501 13.15846083 -289.25390625 11.7578125 C-286.57373538 10.85668053 -283.9512449 9.82822145 -281.3125 8.8125 C-277.4044132 7.37642883 -274.21488295 6.44541014 -270 7 C-268.3024907 8.6975093 -268.87113944 10.82068873 -268.85873187 13.08618736 C-268.85980012 13.82030657 -268.86086837 14.55442577 -268.86196899 15.31079102 C-268.85914771 16.08525385 -268.85632643 16.85971668 -268.85341966 17.65764809 C-268.8450349 20.27307739 -268.84373208 22.88846457 -268.84228516 25.50390625 C-268.83761958 27.37120179 -268.83247645 29.23849618 -268.82688904 31.10578918 C-268.8155848 35.13821303 -268.8071617 39.17062939 -268.80076981 43.20306396 C-268.79010951 49.58218149 -268.76986817 55.96124559 -268.74765015 62.34033203 C-268.6856654 80.48418724 -268.63175729 98.62804016 -268.59863281 116.77197266 C-268.58027333 126.78422619 -268.55131657 136.79639108 -268.5106281 146.80857944 C-268.48957253 152.10793334 -268.47410295 157.40717556 -268.47182083 162.70657349 C-268.46966945 167.6970328 -268.45374994 172.68725998 -268.42743111 177.67764854 C-268.42025409 179.50572109 -268.41812937 181.33382182 -268.42153358 183.16190529 C-268.44910189 199.58051661 -268.44910189 199.58051661 -261 214 C-254.70165096 220.1233949 -247.47926598 221.4501085 -239.06555176 221.39872742 C-238.20117036 221.40537424 -237.33678897 221.41202107 -236.4462142 221.41886932 C-233.56883856 221.43742422 -230.69188151 221.4348991 -227.81445312 221.43237305 C-225.74432796 221.44139478 -223.67420815 221.45172301 -221.60409546 221.46325684 C-215.99729583 221.49080445 -210.39059762 221.50010837 -204.78373909 221.50611091 C-198.91938391 221.51550034 -193.05510432 221.54170424 -187.1907959 221.56611633 C-176.09171318 221.60976926 -164.99264513 221.63832369 -153.89350271 221.66143972 C-141.25506186 221.6884978 -128.61669709 221.73240899 -115.97831059 221.77772844 C-89.98558165 221.87055747 -63.99282886 221.94224624 -38 222 C-38.12164326 217.98655982 -38.25869769 213.97378514 -38.3984375 209.9609375 C-38.43251709 208.83034912 -38.46659668 207.69976074 -38.50170898 206.53491211 C-38.99464187 192.88714411 -42.26544539 181.38194024 -51.7734375 171.078125 C-53.76754708 169.24388075 -55.82608575 167.61771211 -58 166 C-58.93585938 165.29230469 -59.87171875 164.58460938 -60.8359375 163.85546875 C-68.5128092 158.29210617 -76.52745907 153.96917749 -85.08691406 149.92016602 C-87.03602845 148.98267085 -88.95580694 147.99741735 -90.87890625 147.0078125 C-95.34990501 144.76716782 -99.9494014 142.95355129 -104.625 141.1875 C-105.52871338 140.84493164 -106.43242676 140.50236328 -107.36352539 140.14941406 C-121.16359574 134.99295213 -135.23476352 130.54333748 -149.515625 126.921875 C-152 126 -152 126 -154 123 C-154.13834543 114.65315925 -152.74038921 106.17559408 -151.49609375 97.9375 C-151.13889379 95.10240107 -150.92323666 92.4633256 -150.84765625 89.625 C-150.41403703 78.80709139 -150.41403703 78.80709139 -146.6953125 74.0546875 C-144.11262015 71.86933244 -141.55958652 69.95761025 -138.72509766 68.12841797 C-137.01711484 67.01119513 -135.39068065 65.82666085 -133.76171875 64.59765625 C-119.36126973 53.80908806 -103.79181591 44.58242163 -88 36 C-87.02522705 35.46632813 -87.02522705 35.46632813 -86.03076172 34.921875 C-75.91026504 29.3893034 -65.61198885 24.51992118 -55 20 C-53.6184279 19.38037519 -52.23745227 18.75941946 -50.85693359 18.13745117 C-46.2550164 16.08978986 -41.6021814 14.20338725 -36.9140625 12.36328125 C-35.67866226 11.87591743 -35.67866226 11.87591743 -34.41830444 11.37870789 C-32.69606015 10.69971611 -30.97345074 10.02164975 -29.25048828 9.34448242 C-26.61015446 8.30666477 -23.97100771 7.26587311 -21.33203125 6.22460938 C-19.65110951 5.56232777 -17.97012228 4.90021238 -16.2890625 4.23828125 C-15.50157623 3.92788406 -14.71408997 3.61748688 -13.90274048 3.29768372 C-4.60514867 -0.35424221 -4.60514867 -0.35424221 0 0 Z " fill="#0A254E" transform="translate(1359,301)"/>
<path d="M0 0 C1.28513516 -0.00623996 2.57027033 -0.01247993 3.89434898 -0.01890898 C7.43654922 -0.03551129 10.97831495 -0.02739801 14.52051616 -0.0149641 C18.3501424 -0.0058785 22.17969621 -0.01990054 26.00930786 -0.03088379 C33.50109603 -0.04863529 40.99272358 -0.04484441 48.48451795 -0.03323323 C54.57404132 -0.02418722 60.66351978 -0.02297994 66.75304794 -0.02732849 C67.62084669 -0.02794142 68.48864544 -0.02855436 69.38274112 -0.02918586 C71.14581794 -0.0304648 72.90889475 -0.03176165 74.67197154 -0.03307623 C91.18900494 -0.0444718 107.7059494 -0.03138369 124.22296821 -0.00987476 C138.38907692 0.00800162 152.55505453 0.00488569 166.72116089 -0.0135498 C183.18355621 -0.0349637 199.64587371 -0.04337991 216.10828102 -0.03110075 C217.86413756 -0.02982659 219.61999411 -0.0285691 221.37585068 -0.02732849 C222.23970573 -0.02671139 223.10356078 -0.02609429 223.99359325 -0.02545848 C230.07538985 -0.02200762 236.157137 -0.02782812 242.23892593 -0.0372467 C249.65103653 -0.04847356 257.06297771 -0.04541199 264.47506894 -0.02412373 C268.25537176 -0.01362345 272.03539228 -0.0094739 275.8156929 -0.02272034 C279.91578501 -0.03686997 284.01516654 -0.01995629 288.11523438 0 C289.30686821 -0.00892289 290.49850205 -0.01784577 291.726246 -0.02703905 C299.6911844 0.0482474 304.75957764 1.32000449 311.18453979 6.23059082 C313.7224519 9.5406641 315.23495589 13.12349358 316.86813354 16.94543457 C317.64748211 18.72564499 318.42747175 20.50557485 319.20797729 22.28527832 C319.63449585 23.26480469 320.0610144 24.24433105 320.50045776 25.25354004 C322.09972656 28.89270921 323.73222309 32.51581576 325.37203979 36.13684082 C325.9665722 37.45200377 326.5610546 38.76718933 327.15548706 40.08239746 C328.04007384 42.03937242 328.92524815 43.9960665 329.81268311 45.95175171 C330.6468603 47.7919516 331.47633452 49.63428115 332.30563354 51.47668457 C332.78774292 52.54338379 333.26985229 53.61008301 333.76657104 54.70910645 C334.71903284 56.99916978 335.53409991 59.06358793 335.93063354 61.50793457 C334.35457986 63.08398825 332.602047 62.90397781 330.41769409 63.17224121 C329.45546432 63.29229019 328.49323456 63.41233917 327.50184631 63.536026 C326.45096329 63.66210739 325.40008026 63.78818878 324.31735229 63.91809082 C323.23742508 64.04985214 322.15749786 64.18161346 321.04484558 64.31736755 C318.74752483 64.59610802 316.44992184 64.8725303 314.15206909 65.14685059 C310.67028073 65.56418411 307.19013015 65.99359626 303.70993042 66.4239502 C301.47499422 66.69357616 299.23997054 66.96247819 297.00485229 67.23059082 C295.97623581 67.35869644 294.94761932 67.48680206 293.88783264 67.61878967 C286.87374744 68.44126068 279.99001248 68.65199753 272.93063354 68.50793457 C272.69082961 72.34509857 272.69082961 72.34509857 274.49118042 75.6361084 C275.55949097 76.66514282 275.55949097 76.66514282 276.64938354 77.71496582 C277.41637573 78.46584473 278.18336792 79.21672363 278.97360229 79.99035645 C279.78442261 80.75928223 280.59524292 81.52820801 281.43063354 82.32043457 C282.24145386 83.10869629 283.05227417 83.89695801 283.88766479 84.70910645 C285.89123313 86.6537463 287.90551756 88.58578522 289.93063354 90.50793457 C288.48688461 93.56093537 287.31349394 95.32730839 284.55563354 97.32043457 C283.97039917 97.76000488 283.38516479 98.1995752 282.78219604 98.65246582 C280.93063354 99.50793457 280.93063354 99.50793457 278.93453979 99.33215332 C268.5838707 95.07486057 259.36359967 82.25759589 252.93063354 73.50793457 C252.53875854 74.47730957 252.14688354 75.44668457 251.74313354 76.44543457 C246.75744323 88.0395163 240.41118657 97.43852145 228.41891479 102.58605957 C226.26668377 103.31177053 224.13199844 103.95116913 221.93063354 104.50793457 C221.27707886 104.68969238 220.62352417 104.8714502 219.95016479 105.05871582 C210.57656978 107.14375146 200.44877089 104.83528903 192.31344604 99.92980957 C184.04920925 93.75250126 179.17509767 86.84199949 174.93063354 77.50793457 C174.60192261 78.26977051 174.27321167 79.03160645 173.93453979 79.81652832 C169.03546164 90.45111261 162.86776051 97.98787996 151.93063354 102.50793457 C151.24871948 102.85727051 150.56680542 103.20660645 149.86422729 103.56652832 C141.42572288 107.67497188 130.72839371 105.8109737 122.24703979 102.95715332 C111.19779573 98.12880285 104.30340998 90.72190711 99.78219604 79.71105957 C99.50118042 78.98402832 99.22016479 78.25699707 98.93063354 77.50793457 C98.59032104 78.19758301 98.25000854 78.88723145 97.89938354 79.59777832 C91.40645285 92.18646576 84.18662342 99.34086659 70.93063354 104.50793457 C60.23406529 106.75160498 49.31415298 105.66052714 39.99313354 99.63293457 C31.06829071 93.06771745 24.87912188 85.47025652 23.15719604 74.37902832 C23.04504761 73.45283691 23.04504761 73.45283691 22.93063354 72.50793457 C22.27063354 72.50793457 21.61063354 72.50793457 20.93063354 72.50793457 C20.66121948 73.09574707 20.39180542 73.68355957 20.11422729 74.28918457 C18.02673349 78.20237427 14.8885148 81.23200157 11.93063354 84.50793457 C10.66606323 85.98133301 10.66606323 85.98133301 9.37594604 87.48449707 C1.90877646 96.08386804 -4.98191227 101.41801486 -16.06936646 104.50793457 C-16.03605728 105.76723785 -16.00274811 107.02654114 -15.96842957 108.32400513 C-15.66328089 120.23897987 -15.43899897 132.15315427 -15.29218388 144.07116127 C-15.21415945 150.19758566 -15.10849766 156.3208367 -14.93777466 162.44543457 C-14.77379924 168.36557112 -14.68490692 174.28267309 -14.64620781 180.20490646 C-14.61866301 182.45460142 -14.56486725 184.70414503 -14.4834156 186.95253372 C-13.8406516 205.44467204 -13.8406516 205.44467204 -19.24926758 211.85919189 C-22.29433433 214.91850365 -25.58512408 217.51629378 -29.09068108 220.02488327 C-32.45205239 222.54427627 -35.42109819 225.47466173 -38.44436646 228.38293457 C-43.89897461 233.50793457 -43.89897461 233.50793457 -45.06936646 233.50793457 C-45.06936646 193.90793457 -45.06936646 154.30793457 -45.06936646 113.50793457 C-46.71936646 113.17793457 -48.36936646 112.84793457 -50.06936646 112.50793457 C-60.89971871 106.00972321 -67.78844984 95.45614589 -70.88186646 83.32043457 C-71.58093164 72.83445676 -69.60428064 66.73534109 -63.25686646 58.25793457 C-62.07822739 56.65655873 -60.89984951 55.05499062 -59.72171021 53.45324707 C-59.11697876 52.63630371 -58.51224731 51.81936035 -57.88919067 50.97766113 C-55.55598633 47.81121423 -53.2598408 44.61900144 -50.96536255 41.42443848 C-45.42633422 33.71317774 -39.79579293 26.0812207 -34.06936646 18.50793457 C-32.98571356 17.04983868 -31.9023464 15.59153035 -30.81936646 14.13293457 C-30.34499146 13.51160645 -29.87061646 12.89027832 -29.38186646 12.25012207 C-28.15176035 10.61730266 -26.98301603 8.93876173 -25.81936646 7.25793457 C-18.69457334 0.13314146 -9.56601997 -0.071899 0 0 Z " fill="#104174" transform="translate(315.0693664550781,400.4920654296875)"/>
<path d="M0 0 C1.69708819 1.69708819 1.12974474 3.85238934 1.13371277 6.17567444 C1.14011024 7.85954002 1.14011024 7.85954002 1.14663696 9.5774231 C1.14618378 10.82039154 1.14573059 12.06335999 1.14526367 13.34399414 C1.14862228 14.64492508 1.1519809 15.94585602 1.15544128 17.28620911 C1.1643097 20.8697592 1.16662092 24.45328544 1.16725707 28.03684545 C1.16796736 30.28077076 1.17010155 32.52469001 1.17275429 34.76861382 C1.18202554 42.61308044 1.18608801 50.45753004 1.18530273 58.30200195 C1.18470534 65.583405 1.19518565 72.86473313 1.2110464 80.14611727 C1.22420438 86.41300585 1.22948301 92.67987026 1.22884732 98.94677252 C1.22859423 102.68195465 1.23133841 106.41707061 1.24202538 110.15223885 C1.32064441 139.68271161 1.32064441 139.68271161 -1 153 C-1.18113846 154.17679825 -1.36227692 155.3535965 -1.54890442 156.5660553 C-5.3065608 179.86097947 -19.8904701 202.70201493 -38.85961914 216.54052734 C-70.20834253 238.2700725 -109.91039907 243.08074635 -147 237 C-174.54300032 231.71209355 -200.57665182 218.30592539 -216.77294922 194.87548828 C-226.05612436 180.68660021 -231.68949191 163.99514278 -232 147 C-232.02433105 146.3507959 -232.04866211 145.7015918 -232.07373047 145.03271484 C-232.79039359 125.46914711 -229.98625391 106.46121979 -225.12109375 87.546875 C-224.1786145 83.86201655 -223.52363523 80.20767364 -223 76.4375 C-222.42671506 73.19741637 -222.11433711 72.14292139 -220 69.5 C-217.45269281 68.22634641 -215.2515369 67.414406 -212.5390625 66.625 C-211.2072998 66.23344727 -211.2072998 66.23344727 -209.84863281 65.83398438 C-208.90858398 65.55876953 -207.96853516 65.28355469 -207 65 C-203.12284554 63.84045226 -199.24890564 62.6703488 -195.375 61.5 C-194.39015625 61.20480469 -193.4053125 60.90960938 -192.390625 60.60546875 C-186.8380774 58.92489768 -181.4132341 57.08478605 -176 55 C-171.88694527 53.67545695 -168.33784615 52.61724887 -164 53 C-163.67 53.33 -163.34 53.66 -163 54 C-163.51650602 59.96329682 -164.75523714 65.63582992 -166.1875 71.4375 C-166.4030957 72.32840332 -166.61869141 73.21930664 -166.84082031 74.13720703 C-167.55636179 77.09250532 -168.27782234 80.04631676 -169 83 C-169.81788306 86.35237818 -170.63412298 89.70512893 -171.4465332 93.05883789 C-171.97179867 95.22677495 -172.50015327 97.3939665 -173.03198242 99.56030273 C-175.37206758 109.21110986 -176.23083237 118.26216054 -176.3125 128.1875 C-176.34150391 129.34314453 -176.37050781 130.49878906 -176.40039062 131.68945312 C-176.50697847 146.29198839 -171.29795322 159.1746441 -161.35546875 169.86328125 C-151.85279252 178.48345355 -138.78390535 183.54880334 -126 184 C-124.7315625 184.0515625 -123.463125 184.103125 -122.15625 184.15625 C-104.75167951 184.64247798 -88.03748278 180.86802002 -74.375 169.5 C-61.46119556 156.89839742 -57.03962391 140.97838889 -56.66471195 123.35438251 C-56.6176391 118.89585343 -56.60760636 114.43831195 -56.61987495 109.97956276 C-56.629077 106.32674967 -56.61866219 102.67443973 -56.60325623 99.02165222 C-56.56337834 88.64847441 -56.56196702 78.27534142 -56.56420898 67.90209961 C-56.56425997 61.53049316 -56.54516616 55.15916431 -56.51487541 48.7876339 C-56.50404001 45.18895548 -56.5161781 41.59080326 -56.52870178 37.99214172 C-56.51980345 35.79659497 -56.5097312 33.60105256 -56.49829102 31.40551758 C-56.50803452 30.40553238 -56.51777802 29.40554718 -56.52781677 28.3752594 C-56.45757826 21.64432744 -56.45757826 21.64432744 -54.18812561 18.44865417 C-51.08348766 16.39322065 -47.79388629 15.1344007 -44.3046875 13.90625 C-43.55720245 13.6328479 -42.80971741 13.3594458 -42.0395813 13.07775879 C-39.65505759 12.20797275 -37.26537179 11.35356635 -34.875 10.5 C-32.51279167 9.64510095 -30.15174048 8.78706777 -27.79084778 7.92854309 C-26.26838132 7.37563647 -24.74518474 6.82473585 -23.22123718 6.27592468 C-18.40919321 4.53804423 -13.65842651 2.6958682 -8.95581055 0.67700195 C-5.83317419 -0.40389564 -3.26943099 -0.34781181 0 0 Z " fill="#09254D" transform="translate(993,399)"/>
<path d="M0 0 C0.66 0 1.32 0 2 0 C3.26513672 1.40527344 3.26513672 1.40527344 4.6796875 3.359375 C5.19660156 4.06320312 5.71351563 4.76703125 6.24609375 5.4921875 C6.78363281 6.23726562 7.32117188 6.98234375 7.875 7.75 C8.93181338 9.20536831 9.99163441 10.65855813 11.0546875 12.109375 C11.75827393 13.08342285 11.75827393 13.08342285 12.47607422 14.07714844 C13.92687133 16.09430377 13.92687133 16.09430377 16.06388855 17.45262146 C19.15680459 21.52202973 18.54849091 25.70638114 18.50170898 30.6809082 C18.50981346 32.31350334 18.50981346 32.31350334 18.51808167 33.9790802 C18.53061214 37.58658864 18.51403643 41.19330506 18.49609375 44.80078125 C18.49624876 47.31503847 18.49773806 49.82929593 18.50050354 52.34355164 C18.50188989 57.62376318 18.48973516 62.90369629 18.46655273 68.18383789 C18.44009353 74.25151177 18.43814681 80.31880242 18.4499411 86.38651401 C18.46081158 92.25234091 18.45434676 98.11803024 18.44038582 103.98384666 C18.43589923 106.4638854 18.43550983 108.94393533 18.43945122 111.42397499 C18.46708621 144.14927279 18.46708621 144.14927279 11.25 157.5 C10.722854 158.50522705 10.722854 158.50522705 10.18505859 159.53076172 C3.81995854 171.23692364 -6.27412798 177.14709809 -18.76049709 181.17497075 C-23.94561668 182.49550524 -28.93170383 182.54885845 -34.25793457 182.50120544 C-35.43170041 182.50673984 -36.60546624 182.51227424 -37.81480074 182.51797634 C-41.03699195 182.52914714 -44.2585575 182.52263408 -47.48071694 182.50823963 C-50.96954391 182.49705365 -54.45830562 182.50909744 -57.9471283 182.51808167 C-64.76755789 182.53196464 -71.58780146 182.5244947 -78.40822208 182.50940608 C-86.36222355 182.49248431 -94.31617948 182.49576401 -102.2701934 182.49950016 C-116.46874058 182.5053697 -130.66719889 182.49124288 -144.86572266 182.46655273 C-158.62194143 182.44263465 -172.37804151 182.43554965 -186.13427734 182.44604492 C-201.13837803 182.45747185 -216.14242391 182.4593623 -231.14652395 182.44494683 C-232.74851576 182.4434211 -234.35050757 182.44190074 -235.95249939 182.44038582 C-236.74057064 182.439628 -237.52864189 182.43887019 -238.34059408 182.43808941 C-243.87600192 182.43336029 -249.41138516 182.43518826 -254.9467926 182.43945122 C-261.69886485 182.44439407 -268.4508252 182.43832171 -275.20287192 182.41855692 C-278.64339829 182.40873156 -282.08375483 182.40352786 -285.52429008 182.41144943 C-289.26372847 182.41743305 -293.00267154 182.40483735 -296.74206543 182.38768005 C-297.81562806 182.3936901 -298.88919068 182.39970014 -299.99528551 182.40589231 C-317.83643162 182.25771847 -332.66087271 175.4656366 -345.19921875 163.0234375 C-348.69041385 159.37529557 -351.5558188 155.41961532 -354 151 C-352.66198588 147.9350908 -351.29092019 146.14639067 -348.6875 144.0625 C-343.12452886 139.46103004 -338.44770646 134.27618367 -333.76953125 128.79296875 C-333.18558594 128.20128906 -332.60164063 127.60960937 -332 127 C-331.34 127 -330.68 127 -330 127 C-329.5875 128.03125 -329.175 129.0625 -328.75 130.125 C-325.31730564 138.02337545 -320.43208378 143.24225898 -313.1875 147.75 C-303.95026954 151.37244332 -294.3709583 151.3342424 -284.5859375 151.4140625 C-283.12048294 151.43281113 -281.65503876 151.45238718 -280.18960571 151.4727478 C-276.36588713 151.52368536 -272.54213369 151.56351417 -268.71826172 151.60089111 C-264.80297498 151.64117394 -260.88782838 151.69215443 -256.97265625 151.7421875 C-249.31520094 151.83849121 -241.65767677 151.92303891 -234 152 C-234.00444122 151.30286896 -234.00888245 150.60573792 -234.01345825 149.88748169 C-234.05349586 143.32472274 -234.08396442 136.76199775 -234.10362434 130.19914436 C-234.11407142 126.82493006 -234.12824725 123.45081648 -234.15087891 120.07666016 C-234.17504885 116.19951682 -234.18646511 112.32251723 -234.1953125 108.4453125 C-234.20563507 107.23070343 -234.21595764 106.01609436 -234.22659302 104.76467896 C-234.22674408 103.64366791 -234.22689514 102.52265686 -234.22705078 101.36767578 C-234.231492 100.37728302 -234.23593323 99.38689026 -234.24050903 98.3664856 C-234 96 -234 96 -232 94 C-229.50976562 93.74121094 -229.50976562 93.74121094 -226.40625 93.734375 C-225.29378906 93.73179687 -224.18132812 93.72921875 -223.03515625 93.7265625 C-221.86855469 93.73429688 -220.70195312 93.74203125 -219.5 93.75 C-218.33339844 93.74226562 -217.16679687 93.73453125 -215.96484375 93.7265625 C-214.85238281 93.72914063 -213.73992187 93.73171875 -212.59375 93.734375 C-211.56958984 93.73663086 -210.54542969 93.73888672 -209.49023438 93.74121094 C-207 94 -207 94 -205 96 C-204.75949097 98.3664856 -204.75949097 98.3664856 -204.77294922 101.36767578 C-204.77317581 103.04919235 -204.77317581 103.04919235 -204.77340698 104.76467896 C-204.78372955 105.97928802 -204.79405212 107.19389709 -204.8046875 108.4453125 C-204.8075174 109.68546112 -204.81034729 110.92560974 -204.81326294 112.20333862 C-204.82257826 115.50124633 -204.8405511 118.79895972 -204.8626709 122.09680176 C-204.88312526 125.4616457 -204.89226377 128.82651807 -204.90234375 132.19140625 C-204.92443485 138.79435706 -204.95898061 145.39714074 -205 152 C-199.06 152 -193.12 152 -187 152 C-187.01047363 150.31406738 -187.02094727 148.62813477 -187.03173828 146.89111328 C-187.06395982 141.32714192 -187.0869565 135.76318395 -187.10362434 130.19914436 C-187.11407142 126.82493006 -187.12824725 123.45081648 -187.15087891 120.07666016 C-187.17504885 116.19951682 -187.18646511 112.32251723 -187.1953125 108.4453125 C-187.20563507 107.23070343 -187.21595764 106.01609436 -187.22659302 104.76467896 C-187.22674408 103.64366791 -187.22689514 102.52265686 -187.22705078 101.36767578 C-187.231492 100.37728302 -187.23593323 99.38689026 -187.24050903 98.3664856 C-187 96 -187 96 -185 94 C-182.41796875 93.74121094 -182.41796875 93.74121094 -179.1875 93.734375 C-178.02992188 93.73179687 -176.87234375 93.72921875 -175.6796875 93.7265625 C-174.46539062 93.73429688 -173.25109375 93.74203125 -172 93.75 C-170.78570312 93.74226562 -169.57140625 93.73453125 -168.3203125 93.7265625 C-166.58394531 93.73042969 -166.58394531 93.73042969 -164.8125 93.734375 C-163.21341797 93.73775879 -163.21341797 93.73775879 -161.58203125 93.74121094 C-159 94 -159 94 -157 96 C-156.75949097 98.32852173 -156.75949097 98.32852173 -156.77294922 101.27587891 C-156.77317581 102.92736435 -156.77317581 102.92736435 -156.77340698 104.61221313 C-156.78372955 105.80494843 -156.79405212 106.99768372 -156.8046875 108.2265625 C-156.8075174 109.44451508 -156.81034729 110.66246765 -156.81326294 111.91732788 C-156.82448744 115.81998383 -156.84959628 119.72241303 -156.875 123.625 C-156.88502686 126.26562169 -156.89415322 128.90624697 -156.90234375 131.546875 C-156.92443419 138.0313278 -156.95793408 144.5156477 -157 151 C-154.36 151 -151.72 151 -149 151 C-149.00999275 149.99521858 -149.00999275 149.99521858 -149.02018738 148.97013855 C-149.0864514 142.01130971 -149.13176348 135.05257019 -149.16479492 128.09350586 C-149.17990063 125.49483603 -149.20038634 122.89619177 -149.22631836 120.29760742 C-149.26262243 116.56683042 -149.27970858 112.83638987 -149.29296875 109.10546875 C-149.30845261 107.93976852 -149.32393646 106.7740683 -149.33988953 105.57304382 C-149.34022942 103.9517028 -149.34022942 103.9517028 -149.34057617 102.29760742 C-149.35056892 100.86864388 -149.35056892 100.86864388 -149.36076355 99.41081238 C-149 97 -149 97 -147.72505188 95.19160461 C-144.66983946 93.08117231 -141.01574618 93.61326253 -137.4375 93.6875 C-136.65697266 93.68427734 -135.87644531 93.68105469 -135.07226562 93.67773438 C-129.26716981 93.73283019 -129.26716981 93.73283019 -127 96 C-126.75949097 98.3664856 -126.75949097 98.3664856 -126.77294922 101.36767578 C-126.77317581 103.04919235 -126.77317581 103.04919235 -126.77340698 104.76467896 C-126.78372955 105.97928802 -126.79405212 107.19389709 -126.8046875 108.4453125 C-126.8075174 109.68546112 -126.81034729 110.92560974 -126.81326294 112.20333862 C-126.82257826 115.50124633 -126.8405511 118.79895972 -126.8626709 122.09680176 C-126.88312526 125.4616457 -126.89226377 128.82651807 -126.90234375 132.19140625 C-126.92443481 138.79434723 -126.95793517 145.39715771 -127 152 C-124.69 152 -122.38 152 -120 152 C-120.00444122 151.30286896 -120.00888245 150.60573792 -120.01345825 149.88748169 C-120.05349586 143.32472274 -120.08396442 136.76199775 -120.10362434 130.19914436 C-120.11407142 126.82493006 -120.12824725 123.45081648 -120.15087891 120.07666016 C-120.17504885 116.19951682 -120.18646511 112.32251723 -120.1953125 108.4453125 C-120.20563507 107.23070343 -120.21595764 106.01609436 -120.22659302 104.76467896 C-120.22674408 103.64366791 -120.22689514 102.52265686 -120.22705078 101.36767578 C-120.231492 100.37728302 -120.23593323 99.38689026 -120.24050903 98.3664856 C-120 96 -120 96 -118 94 C-116.125 93.734375 -116.125 93.734375 -114 93.75 C-113.29875 93.74484375 -112.5975 93.7396875 -111.875 93.734375 C-110 94 -110 94 -108 96 C-107.75949097 98.3664856 -107.75949097 98.3664856 -107.77294922 101.36767578 C-107.77317581 103.04919235 -107.77317581 103.04919235 -107.77340698 104.76467896 C-107.78372955 105.97928802 -107.79405212 107.19389709 -107.8046875 108.4453125 C-107.8075174 109.68546112 -107.81034729 110.92560974 -107.81326294 112.20333862 C-107.82257826 115.50124633 -107.8405511 118.79895972 -107.8626709 122.09680176 C-107.88312526 125.4616457 -107.89226377 128.82651807 -107.90234375 132.19140625 C-107.92443481 138.79434723 -107.95793517 145.39715771 -108 152 C-105.69 152 -103.38 152 -101 152 C-101.00444122 151.30286896 -101.00888245 150.60573792 -101.01345825 149.88748169 C-101.05349586 143.32472274 -101.08396442 136.76199775 -101.10362434 130.19914436 C-101.11407142 126.82493006 -101.12824725 123.45081648 -101.15087891 120.07666016 C-101.17504885 116.19951682 -101.18646511 112.32251723 -101.1953125 108.4453125 C-101.20563507 107.23070343 -101.21595764 106.01609436 -101.22659302 104.76467896 C-101.22674408 103.64366791 -101.22689514 102.52265686 -101.22705078 101.36767578 C-101.231492 100.37728302 -101.23593323 99.38689026 -101.24050903 98.3664856 C-101 96 -101 96 -99 94 C-96.47524284 93.80106201 -94.08485251 93.72152565 -91.5625 93.75 C-90.88123047 93.74226562 -90.19996094 93.73453125 -89.49804688 93.7265625 C-85.78590558 93.74110566 -84.16410628 93.89059582 -81 96 C-80.63923645 98.3664856 -80.63923645 98.3664856 -80.65942383 101.36767578 C-80.65965042 102.48868683 -80.65987701 103.60969788 -80.66011047 104.76467896 C-80.67559433 105.97928802 -80.69107819 107.19389709 -80.70703125 108.4453125 C-80.71127609 109.68546112 -80.71552094 110.92560974 -80.71989441 112.20333862 C-80.73386784 115.50135463 -80.76082639 118.7989335 -80.79400635 122.09680176 C-80.82468762 125.46161542 -80.83839554 128.82649304 -80.85351562 132.19140625 C-80.8866527 138.79444271 -80.93690303 145.39718558 -81 152 C-78.69 152 -76.38 152 -74 152 C-74.00444122 151.30286896 -74.00888245 150.60573792 -74.01345825 149.88748169 C-74.05349586 143.32472274 -74.08396442 136.76199775 -74.10362434 130.19914436 C-74.11407142 126.82493006 -74.12824725 123.45081648 -74.15087891 120.07666016 C-74.17504885 116.19951682 -74.18646511 112.32251723 -74.1953125 108.4453125 C-74.20563507 107.23070343 -74.21595764 106.01609436 -74.22659302 104.76467896 C-74.22674408 103.64366791 -74.22689514 102.52265686 -74.22705078 101.36767578 C-74.231492 100.37728302 -74.23593323 99.38689026 -74.24050903 98.3664856 C-74 96 -74 96 -72 94 C-69.12657939 93.80143028 -66.37138012 93.72171054 -63.5 93.75 C-62.32244141 93.73839844 -62.32244141 93.73839844 -61.12109375 93.7265625 C-55.25330787 93.74669213 -55.25330787 93.74669213 -53 96 C-52.75949097 98.32852173 -52.75949097 98.32852173 -52.77294922 101.27587891 C-52.77310028 102.3768692 -52.77325134 103.4778595 -52.77340698 104.61221313 C-52.78372955 105.80494843 -52.79405212 106.99768372 -52.8046875 108.2265625 C-52.80893234 110.05349136 -52.80893234 110.05349136 -52.81326294 111.91732788 C-52.82448744 115.81998383 -52.84959628 119.72241303 -52.875 123.625 C-52.88502686 126.26562169 -52.89415322 128.90624697 -52.90234375 131.546875 C-52.92443419 138.0313278 -52.95793408 144.5156477 -53 151 C-49.35305076 150.94753242 -45.70836411 150.85232443 -42.0625 150.75 C-41.04091797 150.73582031 -40.01933594 150.72164062 -38.96679688 150.70703125 C-30.76605409 150.44502669 -24.28802476 149.00210956 -18.125 143.375 C-13.0728092 135.35093226 -12.58185127 127.16113215 -12.7421875 117.88427734 C-12.74966507 116.71548538 -12.75714264 115.54669342 -12.7648468 114.34248352 C-12.78176264 111.82111252 -12.80495839 109.29977728 -12.83383179 106.77851486 C-12.87553326 102.78486843 -12.89262204 98.79157718 -12.8996582 94.79776001 C-12.92306561 83.44839184 -12.96398225 72.09969875 -13.09228516 60.75097656 C-13.16307128 54.46675065 -13.19449077 48.18361986 -13.18199539 41.89899218 C-13.17709037 38.58098368 -13.19854542 35.26648185 -13.25653076 31.9488945 C-13.62646986 10.11619383 -13.62646986 10.11619383 -9.50634766 5.59844971 C-6.71056696 3.54464098 -4.24375061 2.18834329 -1 1 C-0.67 0.67 -0.34 0.34 0 0 Z " fill="#0E3257" transform="translate(632,536)"/>
<path d="M0 0 C2.34119243 -0.00963057 4.68147624 -0.04069735 7.02246094 -0.07226562 C20.85104172 -0.17085134 34.42166069 1.26743645 47.37402344 6.42773438 C48.15463135 6.7281665 48.93523926 7.02859863 49.73950195 7.33813477 C68.29535687 14.6155647 84.01613805 23.90241349 98.87402344 37.24023438 C100.07865234 38.31724609 100.07865234 38.31724609 101.30761719 39.41601562 C112.46895902 49.98049426 126.8546304 67.51344617 128.87402344 83.24023438 C129.50050781 83.08167969 130.12699219 82.923125 130.77246094 82.75976562 C156.17240073 78.50511576 182.71923913 86.40825851 203.43652344 101.05273438 C219.08692202 112.77938631 231.80120122 126.74739189 238.87402344 145.24023438 C239.14859375 145.93117188 239.42316406 146.62210938 239.70605469 147.33398438 C245.56842993 163.27502443 246.48022633 184.88723571 240.49902344 200.92773438 C239.96277344 202.02085937 239.42652344 203.11398437 238.87402344 204.24023438 C238.19615194 205.9023753 237.53031203 207.56945387 236.87402344 209.24023438 C235.27178037 213.27049194 233.60327757 217.26294987 231.87402344 221.24023438 C231.21402344 221.24023438 230.55402344 221.24023438 229.87402344 221.24023438 C229.68839844 221.90023437 229.50277344 222.56023437 229.31152344 223.24023438 C226.01684804 230.11607869 220.3613929 235.37276412 213.87402344 239.24023438 C210.87402344 238.24023438 210.87402344 238.24023438 209.59960938 236.1706543 C208.26217206 233.26138616 206.92858348 230.35193887 205.62402344 227.42773438 C205.15222656 226.41646484 204.68042969 225.40519531 204.19433594 224.36328125 C203.75347656 223.38810547 203.31261719 222.41292969 202.85839844 221.40820312 C202.45331055 220.51383545 202.04822266 219.61946777 201.63085938 218.69799805 C200.80225475 216.00717135 200.85662198 214.82798058 201.87402344 212.24023438 C203.07324219 210.62695312 203.07324219 210.62695312 204.56152344 208.92773438 C207.51114587 205.1373983 209.40992078 201.11133652 211.18652344 196.67773438 C211.44071045 196.05278076 211.69489746 195.42782715 211.95678711 194.78393555 C216.99198631 181.73967078 215.71828248 167.06790955 210.68652344 154.24023438 C203.27735657 137.51544835 190.76797286 124.79239674 174.09667969 117.07617188 C158.38692888 111.16775944 141.85266299 109.20474093 125.35839844 112.72851562 C121.55412669 113.5120999 117.7372429 113.86024558 113.87402344 114.24023438 C113.87402344 114.90023437 113.87402344 115.56023437 113.87402344 116.24023438 C112.22402344 116.24023438 110.57402344 116.24023438 108.87402344 116.24023438 C108.57109375 115.00789063 108.26816406 113.77554688 107.95605469 112.50585938 C100.86275865 84.21289021 87.45230201 60.5022049 61.82958984 45.078125 C44.10224991 34.79714907 25.75390854 28.81159997 5.18652344 28.99023438 C4.0438501 28.99772705 2.90117676 29.00521973 1.72387695 29.01293945 C-31.14350866 29.42910003 -58.14865004 40.58713237 -81.65332031 63.72851562 C-98.34494298 81.08883196 -104.63461457 102.11122726 -109.12597656 125.24023438 C-113.16552304 124.67245039 -116.65999584 123.76282216 -120.43847656 122.24023438 C-135.94972588 116.51683222 -154.68115179 117.69350989 -169.56347656 124.42773438 C-180.68793705 129.6581812 -180.68793705 129.6581812 -189.12597656 138.24023438 C-189.78597656 138.24023438 -190.44597656 138.24023438 -191.12597656 138.24023438 C-191.38765625 138.80742187 -191.64933594 139.37460937 -191.91894531 139.95898438 C-193.22378866 142.42509608 -194.7626115 144.51070214 -196.43847656 146.74023438 C-204.78022134 158.53013252 -207.75479282 171.43131653 -205.78222656 185.73242188 C-205.0021459 189.48981042 -203.88310891 192.93829428 -202.43847656 196.49023438 C-201.03865118 200.48973546 -200.79350225 201.36997704 -202.12597656 205.24023438 C-203.86595415 207.88941311 -205.85083014 210.30523689 -207.87597656 212.74023438 C-208.66488281 213.71669922 -208.66488281 213.71669922 -209.46972656 214.71289062 C-212.50848936 218.43612722 -215.66450762 221.90696798 -219.12597656 225.24023438 C-232.28006598 205.29693752 -237.23251932 184.49965574 -233.73925781 160.59375 C-229.23967608 138.76177946 -214.29318371 118.79065707 -196.12597656 106.24023438 C-173.944155 92.36332926 -154.92791185 89.69583085 -129.12597656 90.24023438 C-128.96959717 89.5629126 -128.81321777 88.88559082 -128.65209961 88.18774414 C-126.92535591 81.25374204 -124.46853408 75.37354372 -120.93847656 69.17773438 C-120.44798828 68.30503906 -119.9575 67.43234375 -119.45214844 66.53320312 C-115.86097864 60.26156541 -112.00770814 54.58732728 -107.12597656 49.24023438 C-106.26101563 48.25796875 -105.39605469 47.27570313 -104.50488281 46.26367188 C-88.24168366 27.95475146 -68.44496654 14.86375033 -45.12597656 7.24023438 C-44.38347656 6.97726563 -43.64097656 6.71429688 -42.87597656 6.44335938 C-28.63905067 1.46043531 -14.97805795 0.03705911 0 0 Z " fill="#0EB494" transform="translate(458.1259765625,208.759765625)"/>
<path d="M0 0 C1.31331047 -0.00956978 1.31331047 -0.00956978 2.65315247 -0.01933289 C3.5999437 -0.02044571 4.54673492 -0.02155853 5.5222168 -0.02270508 C6.50578659 -0.02603348 7.48935638 -0.02936188 8.50273132 -0.03279114 C10.59165988 -0.03785952 12.68059655 -0.04019949 14.76953125 -0.04003906 C17.9209594 -0.04220169 21.0720236 -0.06029151 24.22338867 -0.0793457 C49.37617909 -0.15285173 72.20124495 3.65798207 91.2097168 21.62573242 C102.34222477 33.07783393 108.57229124 44.06195035 113.65893555 59.14526367 C114.09206055 60.30155273 114.09206055 60.30155273 114.53393555 61.48120117 C119.10876224 73.91901124 120.10692824 86.79419521 119.9519043 99.92651367 C119.9462861 101.36095732 119.94202658 102.79540685 119.93904114 104.2298584 C119.92776677 107.94521925 119.89845768 111.66020953 119.8649292 115.37542725 C119.83384496 119.19058219 119.82045522 123.00579896 119.80541992 126.82104492 C119.7735646 134.26261732 119.72258927 141.70388794 119.65893555 149.14526367 C118.99893555 149.14526367 118.33893555 149.14526367 117.65893555 149.14526367 C117.61768555 150.30026367 117.57643555 151.45526367 117.53393555 152.64526367 C116.82862465 157.9680099 114.47192316 161.43946848 110.65893555 165.14526367 C103.81628018 170.08596691 97.48361943 173.39643596 88.95220947 173.39250183 C87.96068174 173.39612345 87.96068174 173.39612345 86.94912314 173.39981824 C84.7419408 173.40543834 82.53505005 173.39680524 80.32788086 173.38818359 C78.74257835 173.38925686 77.15727622 173.3911962 75.57197571 173.39393616 C71.27271614 173.39877898 66.97356054 173.39113698 62.67431355 173.38098311 C58.17844575 173.37219852 53.68258117 173.3739601 49.18670654 173.37434387 C41.64113627 173.37340775 34.09560624 173.36472872 26.55004883 173.35107422 C17.8152456 173.3353265 9.08048638 173.33007692 0.34566998 173.33080977 C-8.04941849 173.33141908 -16.44449257 173.326324 -24.83957672 173.31801796 C-28.41692466 173.31447951 -31.99426752 173.31265392 -35.57161713 173.31212425 C-39.77735836 173.3111232 -43.98306233 173.30504617 -48.18879128 173.29495811 C-49.73642817 173.29202617 -51.28406935 173.29080914 -52.83170891 173.29138565 C-54.93527047 173.29187292 -57.03872608 173.28625479 -59.14227295 173.27897644 C-60.32212643 173.2773006 -61.5019799 173.27562475 -62.71758652 173.27389812 C-65.34106445 173.14526367 -65.34106445 173.14526367 -66.34106445 172.14526367 C-66.75816817 162.68630609 -63.31692071 153.5772851 -60.41333008 144.72705078 C-59.58688736 142.19496575 -58.79139962 139.65445329 -57.99731445 137.11206055 C-57.47310947 135.48841954 -56.94713036 133.86535001 -56.41918945 132.24291992 C-56.06887665 131.11165428 -56.06887665 131.11165428 -55.71148682 129.95753479 C-54.15861378 125.33152879 -52.6327861 122.82234053 -48.34106445 120.14526367 C-45.50396478 119.19956378 -43.77973959 119.02162883 -40.84223938 119.02500916 C-39.9209726 119.02363449 -38.99970581 119.02225983 -38.05052185 119.02084351 C-37.04207718 119.02443878 -36.03363251 119.02803406 -34.99462891 119.03173828 C-33.93105164 119.03159225 -32.86747437 119.03144623 -31.77166748 119.03129578 C-28.24920628 119.03199355 -24.72679769 119.03977966 -21.2043457 119.04760742 C-18.76482675 119.04947208 -16.32530742 119.05089576 -13.88578796 119.05189514 C-7.459452 119.05571654 -1.03313857 119.06554363 5.39318848 119.07659912 C11.94856461 119.08682134 18.50394437 119.0913945 25.05932617 119.09643555 C37.92587226 119.10716621 50.7924027 119.12404639 63.65893555 119.14526367 C63.50980349 114.65686974 63.35623776 110.16863778 63.2019043 105.68041992 C63.15996948 104.41669556 63.11803467 103.15297119 63.0748291 101.85095215 C62.42510543 80.55647872 62.42510543 80.55647872 52.22143555 62.27026367 C50.95299805 61.21838867 50.95299805 61.21838867 49.65893555 60.14526367 C48.92610352 59.52071289 48.92610352 59.52071289 48.1784668 58.88354492 C33.5661132 47.32555502 13.30071772 48.80464309 -4.25683594 48.68896484 C-7.00527374 48.66740568 -9.75302045 48.62804285 -12.5012207 48.58666992 C-13.34491714 48.58655411 -14.18861359 48.58643829 -15.05787659 48.58631897 C-20.87657744 48.48705417 -20.87657744 48.48705417 -23.09710693 46.85308838 C-24.34106445 45.14526367 -24.34106445 45.14526367 -24.15820312 41.41943359 C-23.12712286 35.31451574 -21.20130094 29.45706837 -19.32275391 23.57177734 C-18.65362251 21.45794709 -18.01391111 19.33653347 -17.37426758 17.21362305 C-16.94440886 15.85303275 -16.5128261 14.49298569 -16.0793457 13.13354492 C-15.69818604 11.9119165 -15.31702637 10.69028809 -14.92431641 9.43164062 C-12.93414933 5.30062459 -11.06735862 3.77131331 -7.34106445 1.14526367 C-4.56071068 0.21847908 -2.87202238 0.01424915 0 0 Z " fill="#0A254E" transform="translate(1472.341064453125,403.854736328125)"/>
<path d="M0 0 C0.66 0.66 1.32 1.32 2 2 C1.59237442 7.24625327 0.60435486 12.32575325 -0.453125 17.48046875 C-0.59363785 18.16761963 -0.7341507 18.85477051 -0.87892151 19.56274414 C-1.33221485 21.77178488 -1.79065401 23.97971049 -2.25 26.1875 C-2.40584564 26.94100739 -2.56169128 27.69451477 -2.72225952 28.47085571 C-5.74493246 43.07116678 -8.80912471 57.68275638 -13 72 C-14.65 72.33 -16.3 72.66 -18 73 C-23.51426743 66.81196356 -28.78091398 60.43805623 -34 54 C-38.84738822 55.56636445 -42.34934149 58.35402131 -46.3125 61.4375 C-51.7400801 65.58649748 -57.22085737 69.60278071 -62.875 73.4375 C-73.67501455 80.77825977 -84.21755268 88.47375431 -94.73266602 96.21533203 C-107.64821801 105.72407332 -120.79908736 114.89304128 -134 124 C-136.04174231 125.41655765 -138.08340707 126.83322707 -140.125 128.25 C-147.94734289 133.66328802 -155.79209232 139.04315699 -163.65625 144.39550781 C-165.90541917 145.93525154 -168.14134476 147.49255544 -170.375 149.0546875 C-171.70813335 149.97424833 -173.04145575 150.89353516 -174.375 151.8125 C-174.97489746 152.23909912 -175.57479492 152.66569824 -176.19287109 153.10522461 C-178.58328174 154.73704086 -180.66106365 155.92532809 -183.5 156.55078125 C-187.17709331 155.74067163 -189.72209356 153.65143032 -192.625 151.375 C-193.96446843 150.3575786 -195.30433108 149.34067607 -196.64453125 148.32421875 C-197.70534912 147.51090088 -197.70534912 147.51090088 -198.78759766 146.68115234 C-201.80405516 144.38901745 -204.86566193 142.16116888 -207.92675781 139.92919922 C-215.16327908 134.64621285 -222.30934448 129.25931388 -229.375 123.75 C-230.11685547 123.17403076 -230.85871094 122.59806152 -231.62304688 122.00463867 C-235.06720411 119.32299577 -238.48094307 116.61598633 -241.83984375 113.828125 C-242.43039551 113.34762695 -243.02094727 112.86712891 -243.62939453 112.37207031 C-245.19701513 111.09414346 -246.74954497 109.7977663 -248.30078125 108.5 C-249.19152344 108.005 -250.08226562 107.51 -251 107 C-260.79148164 109.95576535 -269.70998572 117.77424816 -278.0625 123.5 C-279.43631836 124.43779297 -279.43631836 124.43779297 -280.83789062 125.39453125 C-286.92199211 129.55393821 -292.96904479 133.76400949 -299 138 C-300.34241395 138.93885066 -301.68485991 139.87765554 -303.02734375 140.81640625 C-329.72728748 159.53744473 -354.57756299 179.25706217 -377.49389648 202.47998047 C-378.90448198 203.90359941 -380.32872599 205.31364825 -381.75390625 206.72265625 C-384.11621317 209.04492906 -384.11621317 209.04492906 -386.4375 212 C-389.1253805 215.14678692 -391.70624775 217.51138719 -395 220 C-395.66 220 -396.32 220 -397 220 C-397.98684881 217.62794139 -398.9645755 215.25276513 -399.9375 212.875 C-400.21529297 212.20984375 -400.49308594 211.5446875 -400.77929688 210.859375 C-404.23261768 202.37169495 -405.95938637 192.10196563 -404 183 C-401.59791105 178.93082936 -398.51030464 176.11901058 -395 173 C-393.8959968 171.72595493 -392.8112578 170.43486479 -391.75 169.125 C-383.15102874 159.30042824 -372.91213323 151.14751025 -362.58984375 143.22998047 C-360.30174103 141.45979289 -358.05852669 139.63561976 -355.8125 137.8125 C-350.66979806 133.69169198 -345.35280063 129.84187741 -340 126 C-338.59726608 124.98621674 -337.1949528 123.97185129 -335.79296875 122.95703125 C-332.67961887 120.70349515 -329.56358013 118.45375743 -326.4453125 116.20703125 C-323.85071679 114.33754119 -321.26068756 112.46242405 -318.6796875 110.57421875 C-300.59774137 97.45461122 -281.73595321 85.27495418 -262.90771484 73.25878906 C-261.18887381 72.12462674 -259.53625845 70.89160703 -257.89453125 69.6484375 C-254.12100474 67.49941161 -252.29327454 67.25710855 -248 68 C-244.78592239 69.74406722 -241.98966975 71.92481537 -239.125 74.1875 C-237.87988647 75.13882813 -237.87988647 75.13882813 -236.60961914 76.109375 C-234.89359968 77.42303662 -233.18307111 78.74390107 -231.47802734 80.07177734 C-229.20233746 81.84255554 -226.91264011 83.5921603 -224.61328125 85.33203125 C-215.75327117 92.04444074 -206.98534346 98.87724027 -198.21875 105.7109375 C-197.18814453 106.50516113 -197.18814453 106.50516113 -196.13671875 107.31542969 C-194.61505784 108.51509379 -193.1200885 109.74894623 -191.64453125 111.00488281 C-190.47470703 111.98086426 -190.47470703 111.98086426 -189.28125 112.9765625 C-188.58064453 113.57807129 -187.88003906 114.17958008 -187.15820312 114.79931641 C-185.04547811 116.22663657 -185.04547811 116.22663657 -182.49462891 115.85791016 C-179.8842386 114.96018932 -178.03938803 113.90969596 -175.8046875 112.296875 C-175.01570068 111.73500488 -174.22671387 111.17313477 -173.41381836 110.59423828 C-172.5760083 109.98563965 -171.73819824 109.37704102 -170.875 108.75 C-169.0827646 107.47032645 -167.28977681 106.19170611 -165.49609375 104.9140625 C-164.12880127 103.93614746 -164.12880127 103.93614746 -162.73388672 102.93847656 C-158.50808633 99.94215087 -154.22360615 97.03407506 -149.9375 94.125 C-144.21156201 90.22614523 -138.55977832 86.25682407 -132.984375 82.14453125 C-128.95682683 79.25038996 -124.85243063 76.47405666 -120.75 73.6875 C-114.30313304 69.30564511 -107.96183297 64.81992478 -101.70849609 60.16699219 C-96.68823404 56.45315297 -91.54648802 52.93671532 -86.375 49.4375 C-79.64804789 44.8830943 -73.13054319 40.16343406 -66.76171875 35.12109375 C-63.91358099 32.93362727 -61.00773386 30.95924761 -58 29 C-59.81564615 24.35150834 -63.57118989 21.41349636 -67.1875 18.15429688 C-69.63723797 15.83093428 -70.93266878 14.57074949 -71.3359375 11.15234375 C-71.22507812 10.44207031 -71.11421875 9.73179687 -71 9 C-67.38643395 7.40296703 -64.15190767 6.60234446 -60.23510742 6.13037109 C-59.100103 5.99037689 -57.96509857 5.85038269 -56.79570007 5.70614624 C-55.57792374 5.56335236 -54.3601474 5.42055847 -53.10546875 5.2734375 C-51.84414627 5.12089508 -50.58282379 4.96835266 -49.28327942 4.81118774 C-46.61651408 4.49027455 -43.94959496 4.17204931 -41.28198242 3.85839844 C-37.88192076 3.45838522 -34.48319494 3.04812328 -31.08477306 2.63443565 C-27.82142867 2.23832012 -24.55717596 1.84986885 -21.29296875 1.4609375 C-20.08126511 1.31409515 -18.86956146 1.16725281 -17.62113953 1.01596069 C-5.71271888 -0.37511813 -5.71271888 -0.37511813 0 0 Z " fill="#FD900B" transform="translate(674,465)"/>
<path d="M0 0 C24.42 0 48.84 0 74 0 C74.99 5.28 75.98 10.56 77 16 C77.5878125 18.536875 77.5878125 18.536875 78.1875 21.125 C78.90869241 24.56453303 79.17927258 27.50418478 79 31 C79.66 31 80.32 31 81 31 C81.89575691 35.17235154 82.76724042 39.34890012 83.6184082 43.53051758 C83.90994803 44.94654529 84.20760708 46.36132968 84.51196289 47.7746582 C87.64165255 62.34711403 88.15799288 75.1805041 79.9375 88.0625 C74.10945371 96.03772124 66.4871035 100.60053803 57 103 C56.34644531 103.18175781 55.69289063 103.36351562 55.01953125 103.55078125 C45.64593624 105.63581689 35.51813734 103.32735446 27.3828125 98.421875 C18.9289854 92.10285272 12.15787661 84.54774795 10.51464844 73.83618164 C10.3809082 72.62309326 10.24716797 71.41000488 10.109375 70.16015625 C9.3125845 63.30261414 8.36588826 56.47595235 7.34375 49.6484375 C7.19480286 48.65224899 7.04585571 47.65606049 6.89239502 46.62968445 C6.42973277 43.5445668 5.96499395 40.45976699 5.5 37.375 C5.03419031 34.2741355 4.56894502 31.17318722 4.10412598 28.07217407 C3.81762208 26.16189434 3.53049176 24.25170838 3.24255371 22.34164429 C2.12369318 14.89919666 1.06444876 7.45114132 0 0 Z " fill="#092747" transform="translate(480,402)"/>
<path d="M0 0 C23.43 0 46.86 0 71 0 C69.81287263 8.90345531 68.62067231 17.80122561 67.34375 26.69140625 C67.19595093 27.72458481 67.04815186 28.75776337 66.89587402 29.82225037 C66.43125233 33.06909655 65.96565227 36.31580148 65.5 39.5625 C65.0356749 42.80527096 64.57154343 46.04806942 64.10769653 49.29090881 C63.80963218 51.3710023 63.5105597 53.4509516 63.2104187 55.53074646 C62.58884803 59.84286819 61.97261814 64.15451882 61.41064453 68.47485352 C61.24677246 69.71291748 61.08290039 70.95098145 60.9140625 72.2265625 C60.78467285 73.24959473 60.6552832 74.27262695 60.52197266 75.32666016 C59.63745418 79.85681794 57.69611821 83.30583288 55 87 C54.46761719 87.75925781 53.93523437 88.51851563 53.38671875 89.30078125 C47.55266713 96.73388771 39.07135601 101.72649606 29.796875 103.671875 C18.92118486 104.94779396 8.82421388 103.09899456 -0.109375 96.52734375 C-7.2684289 90.74389318 -13.37711109 83.25046677 -15 74 C-15.96909346 64.44032237 -13.3519836 55.24314736 -11.25 46 C-10.89747357 44.41557874 -10.54590552 42.83094394 -10.1953125 41.24609375 C-9.49377532 38.08160941 -8.78408635 34.91911625 -8.06835938 31.7578125 C-7.34326559 28.54795821 -6.63769257 25.33467363 -5.94726562 22.1171875 C-5.77499451 21.32119141 -5.60272339 20.52519531 -5.42523193 19.70507812 C-5.10278362 18.21243997 -4.78396308 16.7190107 -4.4697876 15.22460938 C-3.32058645 9.93700944 -1.73745444 5.21236331 0 0 Z " fill="#092748" transform="translate(353,402)"/>
<path d="M0 0 C2.92734916 2.83864161 5.59955269 5.72285565 8.1875 8.875 C14.9118938 16.59127836 23.34455574 22.01531887 33.60665894 23.33528137 C36.26013621 23.51213397 38.90408667 23.61923553 41.5625 23.6875 C42.93245117 23.73874023 42.93245117 23.73874023 44.33007812 23.79101562 C46.55326229 23.87249358 48.77610197 23.94195738 51 24 C51.30200899 37.35203168 51.53259519 50.70324336 51.67355824 64.05800247 C51.74123682 70.26027821 51.83293038 76.46020754 51.98071289 82.66113281 C52.12259773 88.6525021 52.1998219 94.64162404 52.23340416 100.63454437 C52.25731486 102.91367718 52.30401216 105.19269504 52.37449074 107.47086334 C52.93199607 126.24899134 52.93199607 126.24899134 48.17044067 132.00665283 C45.06437687 135.12617616 41.63989852 137.53910882 38 140 C36.54024724 141.3085393 35.09948632 142.63964235 33.703125 144.015625 C33.11789062 144.56347656 32.53265625 145.11132812 31.9296875 145.67578125 C30.76155121 146.77056944 29.5949995 147.86704982 28.4296875 148.96484375 C24.11119098 153 24.11119098 153 23 153 C23 113.4 23 73.8 23 33 C21.35 32.67 19.7 32.34 18 32 C8.07685559 26.04611335 1.67096726 16.86671282 -2 6 C-2.1328125 3.16796875 -2.1328125 3.16796875 -2 1 C-1.34 0.67 -0.68 0.34 0 0 Z " fill="#0A284B" transform="translate(247,481)"/>
<path d="M0 0 C7.01556997 3.98998723 12.06947355 9.81169676 14.5 17.5625 C15.46530967 27.0225348 15.44970646 35.66972484 9.5 43.5625 C4.28979693 49.50963006 -2.21886575 53.05966645 -10.05859375 53.98046875 C-18.27687178 54.28668858 -24.84473926 53.62424761 -31.5 48.5625 C-36.86916611 43.561085 -42.07197223 38.16685592 -42.7734375 30.62109375 C-43.08290894 20.34902256 -41.60635893 12.9435474 -34.47265625 5.35546875 C-24.81367003 -3.42368902 -11.92151907 -5.45586587 0 0 Z " fill="#0A254E" transform="translate(884.5,365.4375)"/>
<path d="M0 0 C0.3828125 2.1171875 0.3828125 2.1171875 0 5 C-1.98562599 7.27532219 -3.86811658 9.15552329 -6.125 11.125 C-6.75736572 11.693396 -7.38973145 12.26179199 -8.04125977 12.84741211 C-13.88262256 18.03595502 -19.99462792 22.8475398 -26.19384766 27.59667969 C-28.73132552 29.56821561 -31.21705432 31.60113862 -33.70825195 33.63061523 C-40.55487488 39.19180672 -47.5473921 44.26694024 -55 49 C-56.45737425 49.94608643 -57.91437773 50.89274414 -59.37109375 51.83984375 C-73.07487705 60.69496499 -86.56510935 68.76961601 -102.0625 74.0625 C-103.36550049 74.511698 -103.36550049 74.511698 -104.69482422 74.9699707 C-110.00145876 76.68127578 -114.4279097 77.30276098 -120 77 C-119.60688252 72.02660677 -117.0316082 69.40900034 -113.6875 66 C-112.71076709 64.98057546 -111.73548537 63.95975836 -110.76171875 62.9375 C-110.05112305 62.19669189 -110.05112305 62.19669189 -109.32617188 61.44091797 C-108.13443184 60.14606346 -107.0346334 58.76800834 -105.94921875 57.3828125 C-102.69628456 53.40627972 -98.62314254 50.4547073 -94.60791016 47.27978516 C-92.9696961 45.9758802 -91.34945654 44.65189415 -89.73046875 43.32421875 C-81.25706974 36.43851095 -72.37749631 30.57677769 -63 25 C-61.88238281 24.32324219 -60.76476563 23.64648438 -59.61328125 22.94921875 C-44.53555388 14.04533005 -28.91713304 6.60330151 -12 2 C-10.13794922 1.44699219 -10.13794922 1.44699219 -8.23828125 0.8828125 C-5.29726418 0.08103945 -3.02100177 -0.18309102 0 0 Z " fill="#08AC87" transform="translate(1320,242)"/>
<path d="M0 0 C27.43801653 0 27.43801653 0 33.875 5.8125 C34.40867187 6.27269531 34.94234375 6.73289062 35.4921875 7.20703125 C39.54748535 12.02926367 40.53004664 16.71445434 40.4375 22.875 C40.42920166 23.58317871 40.42090332 24.29135742 40.41235352 25.02099609 C40.19588098 31.70930401 38.9282119 35.9191325 34.3515625 40.734375 C29.41472666 45.26160437 25.05134359 47.26792881 18.26171875 47.1953125 C16.81865356 47.18781982 16.81865356 47.18781982 15.34643555 47.18017578 C14.13898682 47.16196777 12.93153809 47.14375977 11.6875 47.125 C7.830625 47.08375 3.97375 47.0425 0 47 C0 31.49 0 15.98 0 0 Z " fill="#0EAE89" transform="translate(1040,640)"/>
<path d="M0 0 C10 0 10 0 12.33984375 1.80859375 C12.86707031 2.67613281 13.39429688 3.54367187 13.9375 4.4375 C14.56527344 5.42234375 15.19304687 6.4071875 15.83984375 7.421875 C16.34233643 8.26008789 16.34233643 8.26008789 16.85498047 9.11523438 C18.61126097 12.00616944 20.48365057 14.81953635 22.34204102 17.64550781 C24.58374859 21.08250667 26.78802588 24.54379044 29 28 C29.33 18.76 29.66 9.52 30 0 C33.3 0 36.6 0 40 0 C40 15.51 40 31.02 40 47 C30 47 30 47 27.84375 45.33984375 C27.4003125 44.54707031 26.956875 43.75429688 26.5 42.9375 C25.95988281 42.03773438 25.41976563 41.13796875 24.86328125 40.2109375 C23.94095703 38.62152344 23.94095703 38.62152344 23 37 C21.2612344 34.33247409 19.47123475 31.70008916 17.6875 29.0625 C16.83579326 27.78351404 15.98545033 26.50361845 15.13671875 25.22265625 C13.76033742 23.14676119 12.38161175 21.07241763 11 19 C10.67 28.24 10.34 37.48 10 47 C6.7 47 3.4 47 0 47 C0 31.49 0 15.98 0 0 Z " fill="#0EAE88" transform="translate(1481,640)"/>
<path d="M0 0 C3.3 0 6.6 0 10 0 C13.88943358 8.58610808 17.40517433 17.31145358 20.93359375 26.05078125 C23.28682574 31.85889677 25.6713669 37.62932656 28.31835938 43.31054688 C29 45 29 45 29 47 C25.37 47 21.74 47 18 47 C15 40.375 15 40.375 15 37 C8.4 37 1.8 37 -5 37 C-5.99 40.3 -6.98 43.6 -8 47 C-11.3 47 -14.6 47 -18 47 C-17.4025868 42.63001033 -16.32307747 38.84562964 -14.70703125 34.74609375 C-14.24103516 33.56080078 -13.77503906 32.37550781 -13.29492188 31.15429688 C-13.05056396 30.54191162 -12.80620605 29.92952637 -12.55444336 29.29858398 C-11.82526154 27.46951094 -11.10686622 25.63614956 -10.38867188 23.80273438 C-7.19463805 15.72832144 -3.72091651 7.84433798 0 0 Z " fill="#0DAD88" transform="translate(1405,640)"/>
<path d="M0 0 C3.3 0 6.6 0 10 0 C10 5.28 10 10.56 10 16 C10.66 16 11.32 16 12 16 C12.23589844 15.44570313 12.47179688 14.89140625 12.71484375 14.3203125 C14.3126455 11.43552758 16.31851009 9.28827968 18.5625 6.875 C21.63719186 3.68492491 21.63719186 3.68492491 24 0 C28.29 0 32.58 0 37 0 C34.22573398 3.89896846 31.42693681 7.60436037 28.1171875 11.0625 C27.61485596 11.5894043 27.11252441 12.11630859 26.5949707 12.65917969 C25.58081165 13.71195337 24.55595776 14.75453756 23.52026367 15.78613281 C21.9077582 17.40824104 21.9077582 17.40824104 20 20 C20.33241353 23.30487709 21.78057208 25.33129288 23.80078125 27.8984375 C24.36603516 28.62546875 24.93128906 29.3525 25.51367188 30.1015625 C26.10728516 30.85179687 26.70089844 31.60203125 27.3125 32.375 C31.05581084 37.15051948 34.71726755 41.89352729 38 47 C33.43382648 47.83737038 29.53929782 48.08102352 25 47 C20.66059534 43.61584498 17.91424848 38.57799991 15 34 C13.68 32.35 12.36 30.7 11 29 C10.67 34.94 10.34 40.88 10 47 C6.7 47 3.4 47 0 47 C0 31.49 0 15.98 0 0 Z " fill="#0AAC86" transform="translate(1218,640)"/>
<path d="M0 0 C3.3 0 6.6 0 10 0 C10.33 4.95 10.66 9.9 11 15 C12.588125 13.2675 14.17625 11.535 15.8125 9.75 C16.3072583 9.21213867 16.8020166 8.67427734 17.31176758 8.12011719 C19.2141836 6.0358045 20.95098431 4.08169281 22.40625 1.65625 C24 0 24 0 27.13671875 -0.390625 C28.30847656 -0.34421875 29.48023438 -0.2978125 30.6875 -0.25 C32.45673828 -0.19585938 32.45673828 -0.19585938 34.26171875 -0.140625 C35.61716797 -0.07101562 35.61716797 -0.07101562 37 0 C31.63559144 7.5995788 25.36524681 14.24336261 19 21 C20.56096448 24.54314159 22.70671541 27.22849188 25.1875 30.1875 C28.17324146 33.79164746 31.15463778 37.39503296 34.0625 41.0625 C34.63097656 41.77535156 35.19945312 42.48820313 35.78515625 43.22265625 C37 45 37 45 37 47 C32.71955755 47.94124913 29.25576679 48.14729197 25 47 C20.92480868 43.663717 18.01476992 39.11791235 15.15991211 34.73925781 C13.84896724 32.77353033 12.41765932 30.89021243 11 29 C10.67 34.94 10.34 40.88 10 47 C6.7 47 3.4 47 0 47 C0 31.49 0 15.98 0 0 Z " fill="#0AAC86" transform="translate(1304,640)"/>
<path d="M0 0 C3.3 0 6.6 0 10 0 C10.01981934 0.90766113 10.03963867 1.81532227 10.06005859 2.75048828 C10.13845667 6.13893117 10.2251592 9.52695502 10.31738281 12.91503906 C10.35551206 14.37752189 10.39039214 15.84009338 10.421875 17.30273438 C10.46787711 19.41308132 10.52580941 21.52282634 10.5859375 23.6328125 C10.6173584 24.90012207 10.6487793 26.16743164 10.68115234 27.47314453 C10.9977203 30.97478363 11.63394961 33.76602286 13 37 C15.77100394 38.38550197 17.9334706 38.1877467 21 38 C24.02462531 36.39197467 24.02462531 36.39197467 24.66772461 34.33691406 C25.12803504 31.09952139 25.23610624 27.87334424 25.31640625 24.609375 C25.33718735 23.90476135 25.35796844 23.20014771 25.37937927 22.47418213 C25.44453837 20.23288319 25.50360248 17.99147136 25.5625 15.75 C25.60571726 14.22655103 25.64933257 12.70311329 25.69335938 11.1796875 C25.80018491 7.45324409 25.90154639 3.72667506 26 0 C29.3 0 32.6 0 36 0 C36.09920549 5.15944873 36.17162646 10.31833689 36.21972656 15.47851562 C36.2397871 17.23219479 36.26704251 18.98580753 36.30175781 20.73925781 C36.35052302 23.26644318 36.37302392 25.79274091 36.390625 28.3203125 C36.41127014 29.09867462 36.43191528 29.87703674 36.45318604 30.6789856 C36.45532423 35.91835819 35.46176744 38.84322698 32 43 C25.68968807 47.76492942 20.72305661 48.64554425 13 48 C7.96260953 46.79292719 4.71844439 44.43005753 2 40 C0.26621635 34.96010233 -0.27490303 30.38468023 -0.1953125 25.09765625 C-0.1924826 24.3750914 -0.18965271 23.65252655 -0.18673706 22.9080658 C-0.17564386 20.62603384 -0.15056088 18.34441103 -0.125 16.0625 C-0.11495611 14.50456301 -0.10583274 12.94661979 -0.09765625 11.38867188 C-0.07574033 7.59229301 -0.04128738 3.7962156 0 0 Z " fill="#0AAC86" transform="translate(1130,640)"/>
<path d="M0 0 C11.21875 0 11.21875 0 16 3 C19.52131084 7.62562726 20.73727463 12.20712789 20 18 C18.71224633 22.06659054 17.90579723 24.33722154 14.4375 26.875 C13.2309375 27.431875 13.2309375 27.431875 12 28 C11.34 28.33 10.68 28.66 10 29 C6.7 29 3.4 29 0 29 C0 19.43 0 9.86 0 0 Z " fill="#F5FAFA" transform="translate(1050,649)"/>
<path d="M0 0 C1.29077969 -0.0034177 2.58155938 -0.0068354 3.9114536 -0.01035666 C7.46913733 -0.01924527 11.02633381 -0.00337835 14.58395553 0.01675558 C18.42975885 0.03410523 22.27553693 0.02817859 26.12136841 0.02514648 C32.77618491 0.02305385 39.43084397 0.03555378 46.08562088 0.05809784 C55.70716399 0.09067097 65.32863134 0.10103028 74.95022361 0.10604981 C90.56234834 0.11479414 106.17438926 0.14138629 121.78646851 0.17926025 C136.94792259 0.21600267 152.10935386 0.24430351 167.27084351 0.2612915 C168.67377757 0.26286784 168.67377757 0.26286784 170.10505374 0.26447603 C174.79734562 0.26969636 179.48963767 0.27475115 184.18192983 0.27972364 C223.08027874 0.32115884 261.97853409 0.39158376 300.87680054 0.48101807 C300.87680054 0.81101807 300.87680054 1.14101807 300.87680054 1.48101807 C300.06157725 1.48362244 300.06157725 1.48362244 299.2298848 1.48627943 C266.76012223 1.59011663 234.29037772 1.69838653 201.82064844 1.81213501 C197.89071683 1.82589871 193.96078509 1.83962668 190.03085327 1.85333252 C189.24872757 1.85606082 188.46660188 1.85878913 187.6607754 1.86160011 C175.12430877 1.90524683 162.58783445 1.94602325 150.05135461 1.98567068 C137.11358492 2.02665369 124.17582901 2.07087905 111.23807985 2.11789662 C104.00244132 2.14410467 96.76680418 2.1689578 89.53114891 2.19009209 C72.55081834 2.24033843 55.57098911 2.32018618 38.59106398 2.45308828 C34.82644206 2.48139674 31.06180837 2.50514644 27.29715347 2.52861404 C21.25863289 2.56888765 15.22070915 2.63126447 9.18257964 2.71061718 C6.95653054 2.73708663 4.73039243 2.75700363 2.50422323 2.76988304 C-0.53167406 2.78893879 -3.56624123 2.83257304 -6.60176086 2.88276672 C-7.48553905 2.88299383 -8.36931724 2.88322093 -9.27987659 2.88345492 C-14.70257284 3.00725513 -17.80085929 3.90751575 -22.12319946 7.48101807 C-23.94594807 9.33361353 -23.94594807 9.33361353 -25.37319946 11.23101807 C-26.82632446 13.09039307 -26.82632446 13.09039307 -28.12319946 14.48101807 C-28.78319946 14.48101807 -29.44319946 14.48101807 -30.12319946 14.48101807 C-30.20569946 15.01726807 -30.28819946 15.55351807 -30.37319946 16.10601807 C-31.38696044 19.31626117 -33.19480495 21.74394198 -35.12319946 24.48101807 C-36.11319946 24.15101807 -37.10319946 23.82101807 -38.12319946 23.48101807 C-36.77234176 21.63219713 -35.40459048 19.79919222 -34.01773071 17.97711182 C-32.68038682 16.21512677 -31.36745125 14.43448673 -30.07241821 12.64117432 C-29.34667603 11.68082275 -28.62093384 10.72047119 -27.87319946 9.73101807 C-26.87546509 8.37750244 -26.87546509 8.37750244 -25.85757446 6.99664307 C-18.47292443 0.20276504 -9.58734853 -0.09366339 0 0 Z " fill="#4B7193" transform="translate(315.1231994628906,400.51898193359375)"/>
<path d="M0 0 C1.32 0 2.64 0 4 0 C6 2 6 2 6.24050903 4.32852173 C6.23606781 5.3011496 6.23162659 6.27377747 6.22705078 7.27587891 C6.22682419 8.92736435 6.22682419 8.92736435 6.22659302 10.61221313 C6.21627045 11.80494843 6.20594788 12.99768372 6.1953125 14.2265625 C6.19106766 16.05349136 6.19106766 16.05349136 6.18673706 17.91732788 C6.17551256 21.81998383 6.15040372 25.72241303 6.125 29.625 C6.11497314 32.26562169 6.10584678 34.90624697 6.09765625 37.546875 C6.07556581 44.0313278 6.04206592 50.5156477 6 57 C3.69 57 1.38 57 -1 57 C-1.02312916 49.71578452 -1.04091801 42.4315769 -1.05181217 35.14733219 C-1.05703975 31.76528187 -1.06413511 28.3832566 -1.07543945 25.0012207 C-1.08834267 21.11670223 -1.09322924 17.23219403 -1.09765625 13.34765625 C-1.10281754 12.12788589 -1.10797882 10.90811554 -1.11329651 9.65138245 C-1.11337204 8.53029587 -1.11344757 7.40920929 -1.11352539 6.25415039 C-1.115746 5.26153702 -1.11796661 4.26892365 -1.12025452 3.24623108 C-1 1 -1 1 0 0 Z " fill="#D7DEE4" transform="translate(506,631)"/>
<path d="M0 0 C0.77214844 0.00902344 1.54429687 0.01804687 2.33984375 0.02734375 C2.90832031 0.03894531 3.47679687 0.05054688 4.0625 0.0625 C2.37070672 2.10469706 1.42522334 2.98043306 -1.19921875 3.57421875 C-1.99972656 3.63222656 -2.80023437 3.69023437 -3.625 3.75 C-4.83736328 3.84861328 -4.83736328 3.84861328 -6.07421875 3.94921875 C-6.68910156 3.98660156 -7.30398438 4.02398437 -7.9375 4.0625 C-7.4425 5.0525 -7.4425 5.0525 -6.9375 6.0625 C-11.4211518 6.63533489 -15.9052017 7.20490623 -20.38964844 7.77148438 C-21.91450133 7.96460217 -23.4392425 8.15860436 -24.96386719 8.35351562 C-27.15791363 8.63385011 -29.35234492 8.9109803 -31.546875 9.1875 C-32.2261908 9.27499512 -32.90550659 9.36249023 -33.60540771 9.45263672 C-36.76118959 9.84729557 -39.74760846 10.0625 -42.9375 10.0625 C-42.9375 9.4025 -42.9375 8.7425 -42.9375 8.0625 C-48.2175 7.7325 -53.4975 7.4025 -58.9375 7.0625 C-58.9375 6.7325 -58.9375 6.4025 -58.9375 6.0625 C-58.07758705 5.97187035 -58.07758705 5.97187035 -57.20030212 5.87940979 C-51.21385583 5.24821849 -45.22760206 4.61522466 -39.24145508 3.98120117 C-37.00973278 3.74506492 -34.7779624 3.50938262 -32.54614258 3.27416992 C-29.33141422 2.93528726 -26.11686441 2.59475268 -22.90234375 2.25390625 C-21.91040512 2.14969864 -20.91846649 2.04549103 -19.89646912 1.93812561 C-15.89406586 1.5124201 -11.90065407 1.07852772 -7.91796875 0.49414062 C-5.224034 0.10399673 -2.71654852 -0.04179305 0 0 Z " fill="#EFF2F5" transform="translate(646.9375,462.9375)"/>
<path d="M0 0 C0.33 0 0.66 0 1 0 C1.06949629 7.3800015 1.12280914 14.7599325 1.15543652 22.14019489 C1.17109574 25.56713223 1.19233804 28.99384577 1.22631836 32.4206543 C1.26513514 36.35983608 1.27970716 40.29892709 1.29296875 44.23828125 C1.30845261 45.46960281 1.32393646 46.70092438 1.33988953 47.96955872 C1.34022942 49.68099312 1.34022942 49.68099312 1.34057617 51.42700195 C1.34723801 52.432939 1.35389984 53.43887604 1.36076355 54.47529602 C1 57 1 57 -0.29081726 58.83659363 C-3.04735393 60.71291279 -5.77422649 60.18259095 -9 60 C-9.33 58.68 -9.66 57.36 -10 56 C-7.36 56 -4.72 56 -2 56 C-2.00444122 55.32792511 -2.00888245 54.65585022 -2.01345825 53.96340942 C-2.05759634 46.98848592 -2.08782667 40.01360187 -2.10986328 33.03857422 C-2.11994064 30.43308909 -2.1336027 27.82761531 -2.15087891 25.22216797 C-2.17505102 21.48402101 -2.1864656 17.74602315 -2.1953125 14.0078125 C-2.20563507 12.83695099 -2.21595764 11.66608948 -2.22659302 10.45974731 C-2.22674408 9.37877777 -2.22689514 8.29780823 -2.22705078 7.18408203 C-2.231492 6.22921906 -2.23593323 5.27435608 -2.24050903 4.29055786 C-2 2 -2 2 0 0 Z " fill="#2C4D70" transform="translate(485,631)"/>
<path d="M0 0 C0.66 0.66 1.32 1.32 2 2 C1.58445272 7.49309687 0.5052468 12.83435038 -0.62890625 18.21875 C-0.78286362 18.96209595 -0.93682098 19.70544189 -1.09544373 20.47131348 C-1.58151693 22.81483279 -2.07192853 25.15741866 -2.5625 27.5 C-2.89547122 29.10150246 -3.22815614 30.70306446 -3.56054688 32.3046875 C-4.37039337 36.20382054 -5.18412841 40.10212342 -6 44 C-8.44236591 40.33645113 -8.0390274 39.45103776 -7.25 35.25 C-6.94835937 33.63351562 -6.94835937 33.63351562 -6.640625 31.984375 C-5.91515791 28.60476001 -4.94945027 25.32307594 -4 22 C-3.47714592 19.02626739 -3.00727861 16.04887065 -2.5625 13.0625 C-1.92869863 9.61180364 -1.00777804 6.35926012 0 3 C-3.25068154 3.11014706 -6.50023328 3.24071212 -9.75 3.375 C-10.67039062 3.4059375 -11.59078125 3.436875 -12.5390625 3.46875 C-13.42851563 3.50742187 -14.31796875 3.54609375 -15.234375 3.5859375 C-16.05131836 3.6173584 -16.86826172 3.6487793 -17.70996094 3.68115234 C-20.18193399 4.02533111 -21.79848507 4.86517817 -24 6 C-27.3125 6.16015625 -27.3125 6.16015625 -31 6.0625 C-36.58065262 5.8879514 -36.58065262 5.8879514 -42 7 C-41.34 6.67 -40.68 6.34 -40 6 C-40 5.34 -40 4.68 -40 4 C-35.59000737 3.42385086 -31.17920926 2.85444723 -26.76757812 2.29101562 C-25.26994912 2.09881345 -23.77254661 1.90483709 -22.27539062 1.70898438 C-20.11126321 1.42620506 -17.94637508 1.15002367 -15.78125 0.875 C-13.8331543 0.62363281 -13.8331543 0.62363281 -11.84570312 0.3671875 C-7.81054325 -0.01808932 -4.04839388 -0.19992069 0 0 Z " fill="#FDC234" transform="translate(674,465)"/>
<path d="M0 0 C4.29 0 8.58 0 13 0 C9.45255145 4.7849306 5.85744026 9.46183499 2 14 C-0.97 12.35 -3.94 10.7 -7 9 C-5.47005208 7.2421875 -3.94010417 5.484375 -2.41015625 3.7265625 C-0.93041376 2.04367666 -0.93041376 2.04367666 0 0 Z " fill="#0FB28F" transform="translate(1242,640)"/>
<path d="M0 0 C0.33 0 0.66 0 1 0 C2.82652525 6.84946968 0.66965431 11.61933686 -2 18 C-2.45375 19.19625 -2.9075 20.3925 -3.375 21.625 C-5 25 -5 25 -6.8359375 26.7578125 C-9.24476795 29.26496256 -10.27791897 30.55451457 -11 34 C-9.17008797 40.75491451 -5.47074866 46.9680338 -2 53 C0.475 52.505 0.475 52.505 3 52 C2.25 53.9375 2.25 53.9375 1 56 C-1.078125 56.62890625 -1.078125 56.62890625 -3 57 C-3.45890625 56.01 -3.9178125 55.02 -4.390625 54 C-4.68646484 53.36360596 -4.98230469 52.72721191 -5.28710938 52.0715332 C-5.93028097 50.68783366 -6.57220377 49.30355297 -7.21289062 47.91870117 C-8.88296681 44.32557137 -10.61410703 40.79874581 -12.5 37.3125 C-14 34 -14 34 -13.76171875 32 C-12.91246276 29.77015863 -11.88098249 28.47828709 -10.3125 26.6875 C-7.36287757 22.89716393 -5.46410265 18.87110214 -3.6875 14.4375 C-3.43331299 13.81254639 -3.17912598 13.18759277 -2.91723633 12.54370117 C-1.29122643 8.33133483 -0.48704193 4.45213619 0 0 Z " fill="#33CBBC" transform="translate(673,391)"/>
<path d="M0 0 C1.14570465 0.00424484 2.2914093 0.00848969 3.47183228 0.01286316 C7.11948465 0.02961235 10.76657801 0.06725884 14.4140625 0.10546875 C16.89191909 0.12052039 19.36978436 0.13420796 21.84765625 0.14648438 C27.91164802 0.17950363 33.97531531 0.22966616 40.0390625 0.29296875 C40.0390625 0.62296875 40.0390625 0.95296875 40.0390625 1.29296875 C39.41345428 1.29661438 38.78784607 1.30026001 38.14328003 1.30401611 C31.6215117 1.34588349 25.10044434 1.4152592 18.57910156 1.50048828 C16.14655575 1.52868326 13.71391858 1.54990507 11.28125 1.56396484 C7.78077468 1.58541383 4.28139619 1.63207718 0.78125 1.68359375 C-0.30334503 1.68482239 -1.38794006 1.68605103 -2.50540161 1.68731689 C-8.63045837 1.80565621 -12.29207748 2.20927252 -16.9609375 6.29296875 C-18.78368611 8.14556422 -18.78368611 8.14556422 -20.2109375 10.04296875 C-21.6640625 11.90234375 -21.6640625 11.90234375 -22.9609375 13.29296875 C-23.6209375 13.29296875 -24.2809375 13.29296875 -24.9609375 13.29296875 C-25.0434375 13.82921875 -25.1259375 14.36546875 -25.2109375 14.91796875 C-26.22469848 18.12821185 -28.03254299 20.55589267 -29.9609375 23.29296875 C-30.9509375 22.96296875 -31.9409375 22.63296875 -32.9609375 22.29296875 C-30.99382207 19.60072057 -28.98529123 16.94242967 -26.9609375 14.29296875 C-25.87619141 12.86984375 -25.87619141 12.86984375 -24.76953125 11.41796875 C-24.00769531 10.44859375 -23.24585938 9.47921875 -22.4609375 8.48046875 C-21.749375 7.56652344 -21.0378125 6.65257812 -20.3046875 5.7109375 C-14.31823762 -0.46508329 -8.09013958 -0.11321291 0 0 Z " fill="#156BA6" transform="translate(309.9609375,401.70703125)"/>
<path d="M0 0 C3.3 0 6.6 0 10 0 C10.06058594 1.05960938 10.12117188 2.11921875 10.18359375 3.2109375 C10.26800127 4.59897221 10.35264917 5.98699232 10.4375 7.375 C10.47681641 8.07367187 10.51613281 8.77234375 10.55664062 9.4921875 C10.74280134 13.37360492 10.74280134 13.37360492 12 17 C11.01 17 10.02 17 9 17 C8.67 13.04 8.34 9.08 8 5 C6.02 5.99 4.04 6.98 2 8 C1.67 20.87 1.34 33.74 1 47 C0.67 47 0.34 47 0 47 C0 31.49 0 15.98 0 0 Z " fill="#22B893" transform="translate(1304,640)"/>
<path d="M0 0 C0.66 0 1.32 0 2 0 C2 11.88 2 23.76 2 36 C1.34 36 0.68 36 0 36 C0 44.58 0 53.16 0 62 C-0.33 62 -0.66 62 -1 62 C-1.11355404 41.30521233 -1.04544753 20.67539319 0 0 Z " fill="#1F3557" transform="translate(1376,504)"/>
<path d="M0 0 C-4.43335506 2.95557004 -7.60164049 3.10734574 -12.875 3 C-18.9935075 2.93938343 -18.9935075 2.93938343 -25 4 C-25.33 4.66 -25.66 5.32 -26 6 C-25.34 6.33 -24.68 6.66 -24 7 C-23.7525 7.5775 -23.505 8.155 -23.25 8.75 C-22.02007265 11.29264842 -22.02007265 11.29264842 -19 13.4375 C-16.04244707 15.96374313 -15.04602348 17.33891782 -14 21 C-27.78125 9.46875 -27.78125 9.46875 -28.4375 5.0625 C-28.293125 4.381875 -28.14875 3.70125 -28 3 C-23.80660736 1.06647071 -19.66928763 0.36036271 -15.125 -0.1875 C-14.44308594 -0.28224609 -13.76117187 -0.37699219 -13.05859375 -0.47460938 C-8.46949379 -1.04715423 -4.54942716 -0.83742719 0 0 Z " fill="#FDBC2A" transform="translate(631,471)"/>
<path d="M0 0 C0.66 0 1.32 0 2 0 C2.67528223 1.57967807 3.33989694 3.16391903 4 4.75 C4.37125 5.63171875 4.7425 6.5134375 5.125 7.421875 C6 10 6 10 6 14 C2.37 14 -1.26 14 -5 14 C-1.85714286 4.42857143 -1.85714286 4.42857143 0 0 Z " fill="#F4FAF9" transform="translate(1409,654)"/>
<path d="M0 0 C1.125 1.5 1.125 1.5 2 4 C1.34 6.64 0.68 9.28 0 12 C9.24 12 18.48 12 28 12 C28 12.33 28 12.66 28 13 C30.31 13.33 32.62 13.66 35 14 C35 14.33 35 14.66 35 15 C30.21284377 15.07415168 25.42602173 15.12860204 20.63842773 15.16479492 C19.00978777 15.17988243 17.38118844 15.20035506 15.75268555 15.22631836 C13.41184465 15.26270449 11.07154081 15.2797262 8.73046875 15.29296875 C7.63813179 15.31619453 7.63813179 15.31619453 6.52372742 15.33988953 C3.60112431 15.34086273 1.50493877 15.32139195 -0.9987793 13.7277832 C-3.06956966 10.1542686 -1.30532026 5.35697892 -0.4375 1.5 C-0.293125 1.005 -0.14875 0.51 0 0 Z " fill="#24395B" transform="translate(1450,437)"/>
<path d="M0 0 C0.66 0 1.32 0 2 0 C5.27204089 8.41381943 6.71243343 17.12648131 5 26 C4.7215625 27.485 4.7215625 27.485 4.4375 29 C4.293125 29.66 4.14875 30.32 4 31 C3.67 31 3.34 31 3 31 C2.94465088 30.27409668 2.88930176 29.54819336 2.83227539 28.80029297 C2.57843447 25.4916443 2.32050554 22.18332641 2.0625 18.875 C1.93198242 17.16183594 1.93198242 17.16183594 1.79882812 15.4140625 C1.71181641 14.30546875 1.62480469 13.196875 1.53515625 12.0546875 C1.456604 11.03874512 1.37805176 10.02280273 1.29711914 8.97607422 C0.99531094 5.95303233 0.53217866 2.99033726 0 0 Z " fill="#1BC1AB" transform="translate(671,366)"/>
<path d="M0 0 C0.66 0 1.32 0 2 0 C1.71848084 2.12636813 1.42446737 4.25108528 1.125 6.375 C0.96257813 7.55835938 0.80015625 8.74171875 0.6328125 9.9609375 C0 13 0 13 -2 15 C-4.375 14.9375 -4.375 14.9375 -7 14 C-9.3125 11.4375 -9.3125 11.4375 -11 9 C-7.61976483 9 -5.16531063 9.87455622 -2 11 C-1.93941406 10.28972656 -1.87882813 9.57945312 -1.81640625 8.84765625 C-1.73261719 7.92855469 -1.64882813 7.00945313 -1.5625 6.0625 C-1.48128906 5.14597656 -1.40007813 4.22945312 -1.31640625 3.28515625 C-1 1 -1 1 0 0 Z " fill="#F9A620" transform="translate(662,523)"/>
<path d="M0 0 C0 0.33 0 0.66 0 1 C-4.10289959 1.51076821 -8.20747883 2.00659735 -12.3125 2.5 C-14.03436523 2.71462891 -14.03436523 2.71462891 -15.79101562 2.93359375 C-22.90124747 3.77957034 -29.84062443 4.1961224 -37 4 C-37 3.67 -37 3.34 -37 3 C-33.7 3 -30.4 3 -27 3 C-27 2.34 -27 1.68 -27 1 C-17.80103749 -0.29126968 -9.25752135 -1.46944783 0 0 Z " fill="#325880" transform="translate(626,465)"/>
<path d="M0 0 C2.31 0 4.62 0 7 0 C7 0.33 7 0.66 7 1 C9.475 1.495 9.475 1.495 12 2 C12 2.33 12 2.66 12 3 C9.45887768 3.33801152 6.91723254 3.67053379 4.375 4 C3.66214844 4.09539062 2.94929687 4.19078125 2.21484375 4.2890625 C-1.88821609 4.81606101 -5.85245742 5.10466984 -10 5 C-9.34 4.67 -8.68 4.34 -8 4 C-7.67 3.01 -7.34 2.02 -7 1 C-4.69 1 -2.38 1 0 1 C0 0.67 0 0.34 0 0 Z " fill="#FAF7ED" transform="translate(628,466)"/>
<path d="M0 0 C0.33 0 0.66 0 1 0 C1 7.92 1 15.84 1 24 C1.66 24.33 2.32 24.66 3 25 C3 25.66 3 26.32 3 27 C3.66 27.33 4.32 27.66 5 28 C2.625 27.6875 2.625 27.6875 0 27 C-2.48070985 23.27893523 -2.08699828 21.82235467 -1.6875 17.4375 C-1.57921875 16.19613281 -1.4709375 14.95476562 -1.359375 13.67578125 C-1.24078125 12.46277344 -1.1221875 11.24976563 -1 10 C-0.90203125 8.96230469 -0.8040625 7.92460937 -0.703125 6.85546875 C-0.48067607 4.56882464 -0.24735248 2.28406332 0 0 Z " fill="#27375C" transform="translate(1207,400)"/>
<path d="M0 0 C0.33 0 0.66 0 1 0 C1.51602387 10.66449323 -1.92367498 19.27475756 -6 29 C-6.66 27.68 -7.32 26.36 -8 25 C-7.34 24.67 -6.68 24.34 -6 24 C-5.41730638 22.18471366 -5.41730638 22.18471366 -5.0625 20 C-4.39450885 16.66534577 -3.56032884 13.52291839 -2.4375 10.3125 C-1.25003158 6.8940303 -0.4618383 3.60233872 0 0 Z " fill="#2DC8B8" transform="translate(700,393)"/>
<path d="M0 0 C3.3 0 6.6 0 10 0 C10 0.33 10 0.66 10 1 C7.69 1.33 5.38 1.66 3 2 C1.8992924 5.3021228 1.79372928 7.94083279 1.68359375 11.41796875 C1.64169922 12.67158203 1.59980469 13.92519531 1.55664062 15.21679688 C1.51732422 16.52712891 1.47800781 17.83746094 1.4375 19.1875 C1.39429008 20.52279978 1.350675 21.85808652 1.30664062 23.19335938 C1.20043498 26.46213297 1.09839003 29.73098333 1 33 C0.67 33 0.34 33 0 33 C0 22.11 0 11.22 0 0 Z " fill="#11B490" transform="translate(1130,640)"/>
<path d="M0 0 C1.8125 1.5 1.8125 1.5 3 3 C-2.52708611 3.94220126 -7.83758352 4.12116149 -13.4375 4.0625 C-14.26443359 4.05798828 -15.09136719 4.05347656 -15.94335938 4.04882812 C-17.96227146 4.03715811 -19.98114574 4.01922718 -22 4 C-22 3.67 -22 3.34 -22 3 C-20.41058594 2.80083984 -20.41058594 2.80083984 -18.7890625 2.59765625 C-17.40101721 2.41946125 -16.01299769 2.2410654 -14.625 2.0625 C-13.92632813 1.97548828 -13.22765625 1.88847656 -12.5078125 1.79882812 C-8.10217197 1.22694209 -4.43810514 -0.43298587 0 0 Z " fill="#264874" transform="translate(639,461)"/>
<path d="M0 0 C0.99 0.33 1.98 0.66 3 1 C2.57589844 1.4125 2.15179688 1.825 1.71484375 2.25 C-6.76181813 10.28551758 -6.76181813 10.28551758 -13 20 C-13.41299178 16.59889121 -13.22969095 15.31410729 -11.171875 12.5 C-9.97304688 11.2625 -9.97304688 11.2625 -8.75 10 C-5.66194241 6.77065873 -2.74631802 3.52738095 0 0 Z " fill="#FC7D1E" transform="translate(283,633)"/>
<path d="M0 0 C0.33 0 0.66 0 1 0 C1.36421725 4.49201278 1.36421725 4.49201278 -0.1875 6.65625 C-2.62421563 8.46278055 -4.18944021 8.30430752 -7.1875 8.1875 C-8.08855469 8.16042969 -8.98960937 8.13335938 -9.91796875 8.10546875 C-10.60503906 8.07066406 -11.29210937 8.03585937 -12 8 C-12 7.67 -12 7.34 -12 7 C-14.31 6.67 -16.62 6.34 -19 6 C-19 5.67 -19 5.34 -19 5 C-13.06 5 -7.12 5 -1 5 C-0.67 3.35 -0.34 1.7 0 0 Z " fill="#113F69" transform="translate(446,683)"/>
<path d="M0 0 C0.33 0 0.66 0 1 0 C1 2.97 1 5.94 1 9 C-4.2584002 8.32584613 -9.02638346 6.75734451 -14 5 C-10.08263419 3.8299903 -7.02040985 4.30415983 -3 5 C-2.525625 4.175 -2.05125 3.35 -1.5625 2.5 C-1.046875 1.675 -0.53125 0.85 0 0 Z " fill="#2CBB97" transform="translate(348,325)"/>
<path d="M0 0 C0.33 0 0.66 0 1 0 C1 6.6 1 13.2 1 20 C-3.5 15.5 -3.5 15.5 -5 12 C-3.35 11.67 -1.7 11.34 0 11 C0 7.37 0 3.74 0 0 Z " fill="#E6F6F3" transform="translate(1510,649)"/>
<path d="M0 0 C0.33 0 0.66 0 1 0 C2.0176403 5.01608525 2.11856434 9.78608306 2.0625 14.875 C2.05798828 15.65875 2.05347656 16.4425 2.04882812 17.25 C2.03714093 19.16670014 2.01920908 21.08336048 2 23 C-0.07168402 21.32607931 -0.94044082 20.52106974 -1.2487793 17.82348633 C-1.19117432 17.00130615 -1.13356934 16.17912598 -1.07421875 15.33203125 C-1.01943359 14.43935547 -0.96464844 13.54667969 -0.90820312 12.62695312 C-0.83537109 11.69818359 -0.76253906 10.76941406 -0.6875 9.8125 C-0.62626953 8.87212891 -0.56503906 7.93175781 -0.50195312 6.96289062 C-0.34870489 4.64059043 -0.1808714 2.32028542 0 0 Z " fill="#31C8B6" transform="translate(700,370)"/>
<path d="M0 0 C0.99 0 1.98 0 3 0 C1.61811547 3.21043882 0.07578097 5.04936365 -2.625 7.25 C-3.57246094 8.03117188 -3.57246094 8.03117188 -4.5390625 8.828125 C-5.02117187 9.21484375 -5.50328125 9.6015625 -6 10 C-6.66 9.67 -7.32 9.34 -8 9 C-6.533292 5.13322435 -4.52798328 3.99014441 -1 2 C-0.67 1.34 -0.34 0.68 0 0 Z " fill="#F38328" transform="translate(300,659)"/>
<path d="M0 0 C0.33 0 0.66 0 1 0 C1 2.64 1 5.28 1 8 C1.66 8 2.32 8 3 8 C3.66 9.32 4.32 10.64 5 12 C3.35 13.32 1.7 14.64 0 16 C0 10.72 0 5.44 0 0 Z " fill="#DBF4EE" transform="translate(1314,640)"/>
<path d="M0 0 C0.66 0 1.32 0 2 0 C3.78770907 2.1335282 5.46872824 4.26844058 7.125 6.5 C7.59292969 7.12003906 8.06085937 7.74007812 8.54296875 8.37890625 C9.70096609 9.91502517 10.85121357 11.45698059 12 13 C9 13 9 13 7.5625 11.875 C6 10 6 10 4.0625 6.9375 C2.0987372 4.14062571 1.13875387 3.12098353 -2 2 C-1.34 1.34 -0.68 0.68 0 0 Z " fill="#263853" transform="translate(632,536)"/>
<path d="M0 0 C0.99 0.33 1.98 0.66 3 1 C-0.96 3.97 -4.92 6.94 -9 10 C-9.33 9.01 -9.66 8.02 -10 7 C-8.4050992 5.80008401 -6.79873853 4.61538682 -5.1875 3.4375 C-3.84751953 2.44556641 -3.84751953 2.44556641 -2.48046875 1.43359375 C-1.66191406 0.96050781 -0.84335937 0.48742187 0 0 Z " fill="#FD8215" transform="translate(341,586)"/>
<path d="M0 0 C1.64826111 2.96687001 2.44271087 5.65626525 3 9 C2.21625 9.309375 1.4325 9.61875 0.625 9.9375 C-1.92330128 10.92875038 -1.92330128 10.92875038 -4 12 C-2.66666667 8 -1.33333333 4 0 0 Z " fill="#E1E5EB" transform="translate(490,475)"/>
<path d="M0 0 C5.28 0.33 10.56 0.66 16 1 C16 1.66 16 2.32 16 3 C10.26157749 3.20413361 5.39460953 3.27141454 0 1 C0 0.67 0 0.34 0 0 Z " fill="#202E48" transform="translate(517,503)"/>
<path d="M0 0 C2.64465038 3.1254959 3.84414715 6.08788267 5 10 C4.01 10 3.02 10 2 10 C2 9.34 2 8.68 2 8 C0.68 8 -0.64 8 -2 8 C-1.34 5.36 -0.68 2.72 0 0 Z " fill="#E5E9EE" transform="translate(413,476)"/>
<path d="M0 0 C0.66 0 1.32 0 2 0 C1.835 0.61875 1.67 1.2375 1.5 1.875 C0.79924683 6.25470729 0.92265749 10.57428989 1 15 C0.01 14.67 -0.98 14.34 -2 14 C-2.1799928 8.78020872 -1.97094808 4.92737019 0 0 Z " fill="#1A3C6C" transform="translate(246,467)"/>
<path d="M0 0 C-1 3 -1 3 -3.14453125 4.421875 C-4.02496094 4.86015625 -4.90539063 5.2984375 -5.8125 5.75 C-6.68519531 6.19859375 -7.55789063 6.6471875 -8.45703125 7.109375 C-11.19935744 8.06982104 -12.3313431 8.02018585 -15 7 C-12.87767021 5.82823482 -10.75242209 4.66245215 -8.625 3.5 C-7.72007813 2.99919922 -7.72007813 2.99919922 -6.796875 2.48828125 C-2.2265625 0 -2.2265625 0 0 0 Z " fill="#20335B" transform="translate(1280,333)"/>
<path d="M0 0 C3.3 0 6.6 0 10 0 C10.33 0.66 10.66 1.32 11 2 C7.43954823 3.18681726 4.56191663 3.09689832 0.8125 3.0625 C-0.45980469 3.05347656 -1.73210937 3.04445313 -3.04296875 3.03515625 C-4.50669922 3.01775391 -4.50669922 3.01775391 -6 3 C-6 2.67 -6 2.34 -6 2 C-4.02 1.67 -2.04 1.34 0 1 C0 0.67 0 0.34 0 0 Z " fill="#E0F5F1" transform="translate(316,296)"/>
<path d="M0 0 C0 0.66 0 1.32 0 2 C-0.9590625 2.1546875 -0.9590625 2.1546875 -1.9375 2.3125 C-2.618125 2.539375 -3.29875 2.76625 -4 3 C-4.33 3.99 -4.66 4.98 -5 6 C-5.99 6 -6.98 6 -8 6 C-8.66 7.32 -9.32 8.64 -10 10 C-10.99 9.34 -11.98 8.68 -13 8 C-11.2126038 6.66094733 -9.41995047 5.32890934 -7.625 4 C-6.62726562 3.2575 -5.62953125 2.515 -4.6015625 1.75 C-2 0 -2 0 0 0 Z " fill="#FDA320" transform="translate(563,533)"/>
<path d="M0 0 C0.66 0 1.32 0 2 0 C1.34 4.29 0.68 8.58 0 13 C-0.66 12.67 -1.32 12.34 -2 12 C-1.85962479 10.18706911 -1.71255111 8.3746557 -1.5625 6.5625 C-1.48128906 5.55316406 -1.40007813 4.54382813 -1.31640625 3.50390625 C-1 1 -1 1 0 0 Z " fill="#FDA414" transform="translate(662,523)"/>
<path d="M0 0 C1.37562854 1.28965176 2.70766393 2.62689293 4 4 C4 4.66 4 5.32 4 6 C0.04 6 -3.92 6 -8 6 C-8 5.67 -8 5.34 -8 5 C-6.576875 4.87625 -6.576875 4.87625 -5.125 4.75 C-1.89538209 4.34925077 -1.89538209 4.34925077 -0.625 1.9375 C-0.41875 1.298125 -0.2125 0.65875 0 0 Z " fill="#1DB290" transform="translate(1337,681)"/>
<path d="M0 0 C0.99 0.33 1.98 0.66 3 1 C0.19195732 3.96404505 -2.18315774 6.44499019 -6 8 C-6 6.68 -6 5.36 -6 4 C-4.7934375 3.566875 -4.7934375 3.566875 -3.5625 3.125 C-0.8673532 2.26737432 -0.8673532 2.26737432 0 0 Z " fill="#E97813" transform="translate(283,677)"/>
<path d="M0 0 C0.66 0 1.32 0 2 0 C2.33 2.31 2.66 4.62 3 7 C0.03 6.505 0.03 6.505 -3 6 C-2 4 -1 2 0 0 Z " fill="#DDE2E7" transform="translate(336,473)"/>
<path d="M0 0 C1.9078584 3.1749094 2.1609041 5.10585211 1.625 8.75 C1.51414062 9.54921875 1.40328125 10.3484375 1.2890625 11.171875 C1.19367188 11.77515625 1.09828125 12.3784375 1 13 C0.01 12.67 -0.98 12.34 -2 12 C-1 3.42857143 -1 3.42857143 0 0 Z " fill="#293A60" transform="translate(1450,437)"/>
<path d="M0 0 C0.66 0.33 1.32 0.66 2 1 C0.9015258 2.46262592 -0.2040036 3.91995503 -1.3125 5.375 C-1.92738281 6.18710937 -2.54226563 6.99921875 -3.17578125 7.8359375 C-5 10 -5 10 -8 12 C-8 11.01 -8 10.02 -8 9 C-7.34 9 -6.68 9 -6 9 C-5.67 8.01 -5.34 7.02 -5 6 C-4.34 6 -3.68 6 -3 6 C-2.814375 5.071875 -2.814375 5.071875 -2.625 4.125 C-2 2 -2 2 0 0 Z " fill="#2DC9C0" transform="translate(686,431)"/>
<path d="M0 0 C-0.40683495 2.35964273 -0.89814339 3.85934088 -2.3125 5.8125 C-2.869375 6.204375 -3.42625 6.59625 -4 7 C-6.10546875 6.57421875 -6.10546875 6.57421875 -8 6 C-7.0479279 4.99403703 -6.08812654 3.99538437 -5.125 3 C-4.59132813 2.443125 -4.05765625 1.88625 -3.5078125 1.3125 C-2 0 -2 0 0 0 Z " fill="#25426A" transform="translate(302,663)"/>
<path d="M0 0 C2.12508244 3.18762365 2.5020163 5.26512223 3 9 C-0.63 9 -4.26 9 -8 9 C-7.67 8.34 -7.34 7.68 -7 7 C-4.69 7 -2.38 7 0 7 C0 4.69 0 2.38 0 0 Z " fill="#D5F0EA" transform="translate(1412,659)"/>
<path d="M0 0 C0 0.99 0 1.98 0 3 C-1.3921875 3.185625 -1.3921875 3.185625 -2.8125 3.375 C-6.13925235 3.81533082 -6.13925235 3.81533082 -9 6 C-9.33 5.01 -9.66 4.02 -10 3 C-8.70990357 2.49596232 -7.41786211 1.99690074 -6.125 1.5 C-5.04605469 1.08234375 -5.04605469 1.08234375 -3.9453125 0.65625 C-2 0 -2 0 0 0 Z " fill="#233A62" transform="translate(1045,323)"/>
<path d="M0 0 C-0.33 0.66 -0.66 1.32 -1 2 C-3.06640625 2.6328125 -3.06640625 2.6328125 -5.5625 3.125 C-6.38878906 3.29257812 -7.21507812 3.46015625 -8.06640625 3.6328125 C-8.70449219 3.75398438 -9.34257813 3.87515625 -10 4 C-10 3.01 -10 2.02 -10 1 C-6.21812119 -0.83691257 -4.05431692 -1.15837626 0 0 Z " fill="#EEF0F3" transform="translate(1360,299)"/>
<path d="M0 0 C0.66 0.99 1.32 1.98 2 3 C-0.64 5.31 -3.28 7.62 -6 10 C-6.66 9.67 -7.32 9.34 -8 9 C-5.36 6.03 -2.72 3.06 0 0 Z " fill="#2BB69A" transform="translate(1327,641)"/>
<path d="M0 0 C2.31 0 4.62 0 7 0 C7 0.99 7 1.98 7 3 C4.69 3.33 2.38 3.66 0 4 C0 2.68 0 1.36 0 0 Z " fill="#FBFCFB" transform="translate(613,467)"/>
<path d="M0 0 C0.66 0.33 1.32 0.66 2 1 C3.87056791 1.2275015 5.74685958 1.40962811 7.625 1.5625 C8.62789062 1.64628906 9.63078125 1.73007812 10.6640625 1.81640625 C11.43492187 1.87699219 12.20578125 1.93757813 13 2 C13 2.33 13 2.66 13 3 C5.08 3.495 5.08 3.495 -3 4 C-2.34 3.67 -1.68 3.34 -1 3 C-0.67 2.01 -0.34 1.02 0 0 Z " fill="#FCEECB" transform="translate(621,467)"/>
<path d="M0 0 C0.33 0 0.66 0 1 0 C1.3690205 9.41002278 1.3690205 9.41002278 -1 14 C-1.66 13.34 -2.32 12.68 -3 12 C-2.5390625 9.1796875 -2.5390625 9.1796875 -1.625 5.875 C-1.32851563 4.77929688 -1.03203125 3.68359375 -0.7265625 2.5546875 C-0.48679687 1.71164062 -0.24703125 0.86859375 0 0 Z " fill="#42CDBF" transform="translate(700,393)"/>
<path d="M0 0 C-0.33 0.66 -0.66 1.32 -1 2 C-2.4370809 2.05422947 -3.87475462 2.09289723 -5.3125 2.125 C-6.11300781 2.14820313 -6.91351562 2.17140625 -7.73828125 2.1953125 C-10 2 -10 2 -13 0 C-11.58456585 -0.19658808 -10.16755969 -0.38187546 -8.75 -0.5625 C-7.96109375 -0.66691406 -7.1721875 -0.77132813 -6.359375 -0.87890625 C-3.99467126 -1.00027349 -2.2488963 -0.69633257 0 0 Z " fill="#E9EDF2" transform="translate(630,466)"/>
<path d="M0 0 C1.21236328 0.04060547 1.21236328 0.04060547 2.44921875 0.08203125 C3.06410156 0.11683594 3.67898438 0.15164063 4.3125 0.1875 C2.60421079 2.29383718 1.79101584 3.12551608 -0.94921875 3.48046875 C-1.74972656 3.44566406 -2.55023437 3.41085937 -3.375 3.375 C-4.58736328 3.33439453 -4.58736328 3.33439453 -5.82421875 3.29296875 C-6.74654297 3.24076172 -6.74654297 3.24076172 -7.6875 3.1875 C-5.26849268 0.20484049 -3.789448 -0.16475861 0 0 Z " fill="#EFF0F2" transform="translate(646.6875,462.8125)"/>
<path d="M0 0 C0 0.99 0 1.98 0 3 C-1.8125 4.0625 -1.8125 4.0625 -4 5 C-4.99 4.67 -5.98 4.34 -7 4 C-7.33 3.34 -7.66 2.68 -8 2 C-5.09399739 0.74335022 -3.20395416 0 0 0 Z " fill="#253E66" transform="translate(1333,310)"/>
<path d="M0 0 C0.66 0 1.32 0 2 0 C3.125 4.75 3.125 4.75 2 7 C0.68 7 -0.64 7 -2 7 C-1.34 4.69 -0.68 2.38 0 0 Z " fill="#DFEFED" transform="translate(1409,654)"/>
<path d="M0 0 C0.33 0.99 0.66 1.98 1 3 C-0.65 4.65 -2.3 6.3 -4 8 C-4.99 7.34 -5.98 6.68 -7 6 C-4.69 4.02 -2.38 2.04 0 0 Z " fill="#1D345E" transform="translate(921,566)"/>
<path d="M0 0 C0.99 0.33 1.98 0.66 3 1 C4.89212737 1.22179785 6.78884472 1.40614015 8.6875 1.5625 C9.68136719 1.64628906 10.67523437 1.73007812 11.69921875 1.81640625 C12.83810547 1.90728516 12.83810547 1.90728516 14 2 C14 2.33 14 2.66 14 3 C9.38 3.33 4.76 3.66 0 4 C0 2.68 0 1.36 0 0 Z " fill="#FDF0CF" transform="translate(604,469)"/>
<path d="M0 0 C0.33 0 0.66 0 1 0 C2.28571429 7.42857143 2.28571429 7.42857143 1 11 C0.34 11 -0.32 11 -1 11 C-1.33 11.99 -1.66 12.98 -2 14 C-2.33 13.34 -2.66 12.68 -3 12 C-2.33333333 10.33333333 -1.66666667 8.66666667 -1 7 C-0.6186926 4.67402489 -0.27539746 2.34087842 0 0 Z " fill="#40CEBF" transform="translate(673,391)"/>
<path d="M0 0 C0.33 0 0.66 0 1 0 C1.18451025 10.55808656 1.18451025 10.55808656 0 15 C-0.33 15 -0.66 15 -1 15 C-2.01603857 9.20858017 -1.96263236 5.5415502 0 0 Z " fill="#9BA4B6" transform="translate(1209,380)"/>
<path d="M0 0 C5.61 0 11.22 0 17 0 C17 0.99 17 1.98 17 3 C16.34 2.67 15.68 2.34 15 2 C12.45384991 1.76827173 9.92603775 1.58105471 7.375 1.4375 C6.66859375 1.39431641 5.9621875 1.35113281 5.234375 1.30664062 C3.48981463 1.20055249 1.74493303 1.09977111 0 1 C0 0.67 0 0.34 0 0 Z " fill="#204163" transform="translate(560,630)"/>
<path d="M0 0 C0.33 0.66 0.66 1.32 1 2 C-1.875 2.625 -1.875 2.625 -5 3 C-5.66 2.34 -6.32 1.68 -7 1 C-3.375 -1.125 -3.375 -1.125 0 0 Z M1 0 C3 1 3 1 3 1 Z M-7 3 C-5 4 -5 4 -5 4 Z " fill="#273E64" transform="translate(1066,316)"/>
<path d="M0 0 C7.38461538 -0.36923077 7.38461538 -0.36923077 10.5 1.5 C10.995 1.995 11.49 2.49 12 3 C10.56163249 2.88541307 9.12429034 2.75790884 7.6875 2.625 C6.88699219 2.55539062 6.08648437 2.48578125 5.26171875 2.4140625 C3 2 3 2 0 0 Z " fill="#3D5778" transform="translate(311,714)"/>
<path d="M0 0 C0 2.31 0 4.62 0 7 C-1.65 5.35 -3.3 3.7 -5 2 C-2 0 -2 0 0 0 Z " fill="#F0FAF8" transform="translate(1510,660)"/>
<path d="M0 0 C0.99 0.33 1.98 0.66 3 1 C4.6875 4.5625 4.6875 4.5625 6 8 C5.01 8 4.02 8 3 8 C0 2.25 0 2.25 0 0 Z " fill="#21C4A7" transform="translate(230,417)"/>
<path d="M0 0 C1.80411967 2.75924185 2.0127245 3.88972103 1.625 7.25 C1.41875 8.1575 1.2125 9.065 1 10 C0.34 10 -0.32 10 -1 10 C-1.125 3.375 -1.125 3.375 0 0 Z " fill="#2FC2AD" transform="translate(225,369)"/>
<path d="M0 0 C2.64 0 5.28 0 8 0 C7 2 7 2 5.15234375 2.6328125 C4.42144531 2.79523437 3.69054687 2.95765625 2.9375 3.125 C1.83728516 3.37636719 1.83728516 3.37636719 0.71484375 3.6328125 C0.14894531 3.75398437 -0.41695312 3.87515625 -1 4 C-0.67 2.68 -0.34 1.36 0 0 Z " fill="#224970" transform="translate(514,630)"/>
<path d="M0 0 C0.66 0.33 1.32 0.66 2 1 C0.875 2.9375 0.875 2.9375 -1 5 C-4.1875 5.75 -4.1875 5.75 -7 6 C-4.74259377 3.66475218 -2.7194239 1.81294927 0 0 Z " fill="#FD9D28" transform="translate(524,559)"/>
<path d="M0 0 C0.99 0.33 1.98 0.66 3 1 C0.34345343 4.73884332 -1.58110387 6.64978174 -6 8 C-4.02 5.36 -2.04 2.72 0 0 Z " fill="#D7E0E8" transform="translate(484,488)"/>
<path d="M0 0 C-3 1 -3 1 -6 0 C-6 0.66 -6 1.32 -6 2 C-7.65 1.67 -9.3 1.34 -11 1 C-6.68398307 -1.87734462 -4.56105874 -2.76921423 0 0 Z " fill="#142F5A" transform="translate(804,462)"/>
<path d="M0 0 C0.66 0.33 1.32 0.66 2 1 C-0.475 4.465 -0.475 4.465 -3 8 C-3.99 7.67 -4.98 7.34 -6 7 C-4.02 4.69 -2.04 2.38 0 0 Z " fill="#1C6499" transform="translate(283,417)"/>
<path d="M0 0 C0.66 0.33 1.32 0.66 2 1 C1.38722388 3.96175123 0.74627478 5.38058783 -1 8 C-1.66 8 -2.32 8 -3 8 C-1.125 1.125 -1.125 1.125 0 0 Z " fill="#DBF7F5" transform="translate(697,412)"/>
<path d="M0 0 C0.66 0.66 1.32 1.32 2 2 C-0.97 4.475 -0.97 4.475 -4 7 C-4 4 -4 4 -2 1.8125 C-1.34 1.214375 -0.68 0.61625 0 0 Z " fill="#20B895" transform="translate(1240,643)"/>
<path d="M0 0 C1.66611905 -0.042721 3.33382885 -0.04063832 5 0 C6 1 6 1 6.0625 3.5625 C6.041875 4.366875 6.02125 5.17125 6 6 C5.34 5.67 4.68 5.34 4 5 C4 4.01 4 3.02 4 2 C2.68 2 1.36 2 0 2 C0 1.34 0 0.68 0 0 Z " fill="#3E4B6C" transform="translate(824,452)"/>
<path d="M0 0 C-0.75 1.9375 -0.75 1.9375 -2 4 C-4.125 4.75 -4.125 4.75 -6 5 C-6.33 4.01 -6.66 3.02 -7 2 C-2.25 0 -2.25 0 0 0 Z " fill="#36D1C6" transform="translate(676,443)"/>
<path d="M0 0 C0.66 0.99 1.32 1.98 2 3 C-0.31 3.66 -2.62 4.32 -5 5 C-5.66 4.34 -6.32 3.68 -7 3 C-4.69 2.01 -2.38 1.02 0 0 Z " fill="#EFF2F4" transform="translate(1339,304)"/>
<path d="M0 0 C2.31 0 4.62 0 7 0 C6.01 1.485 6.01 1.485 5 3 C2.375 3.1875 2.375 3.1875 0 3 C0 2.01 0 1.02 0 0 Z " fill="#113E69" transform="translate(525,688)"/>
<path d="M0 0 C1.32 0.33 2.64 0.66 4 1 C1.69 2.65 -0.62 4.3 -3 6 C-3 3 -3 3 -1.75 1.25 C-1.1725 0.8375 -0.595 0.425 0 0 Z " fill="#FD8D19" transform="translate(557,573)"/>
<path d="M0 0 C0 0.66 0 1.32 0 2 C-4.43076923 4.09230769 -4.43076923 4.09230769 -7.3125 3.625 C-7.869375 3.41875 -8.42625 3.2125 -9 3 C-3.375 0 -3.375 0 0 0 Z " fill="#384A6D" transform="translate(1289,329)"/>
<path d="M0 0 C1.65 0 3.3 0 5 0 C5.1875 2.375 5.1875 2.375 5 5 C4.01 5.66 3.02 6.32 2 7 C1.67 5.68 1.34 4.36 1 3 C1.66 3 2.32 3 3 3 C3.33 2.34 3.66 1.68 4 1 C2.68 0.67 1.36 0.34 0 0 Z " fill="#31B69A" transform="translate(1315,242)"/>
</svg>
